SplineFontDB: 3.2
FontName: Cooper-Black
FullName: Cooper* Black
FamilyName: Cooper* Black
Weight: Black
Version: 0.001; ttfautohint (v1.8.4.7-5d5b)
ItalicAngle: 0
UnderlinePosition: -200
UnderlineWidth: 100
Ascent: 1496
Descent: 504
InvalidEm: 0
sfntRevision: 0x00000041
LayerCount: 2
Layer: 0 1 "Hinten" 1
Layer: 1 1 "Vorne" 0
XUID: [1021 367 390255522 4536094]
StyleMap: 0x0020
FSType: 0
OS2Version: 4
OS2_WeightWidthSlopeOnly: 0
OS2_UseTypoMetrics: 1
CreationTime: 1460762150
ModificationTime: 1776195829
PfmFamily: 81
TTFWeight: 900
TTFWidth: 5
LineGap: 0
VLineGap: 0
Panose: 0 0 0 0 0 0 0 0 0 0
OS2TypoAscent: 1496
OS2TypoAOffset: 0
OS2TypoDescent: -504
OS2TypoDOffset: 0
OS2TypoLinegap: 0
OS2WinAscent: 1965
OS2WinAOffset: 0
OS2WinDescent: 659
OS2WinDOffset: 0
HheadAscent: 1496
HheadAOffset: 0
HheadDescent: -504
HheadDOffset: 0
OS2SubXSize: 1300
OS2SubYSize: 1200
OS2SubXOff: 0
OS2SubYOff: 150
OS2SupXSize: 1300
OS2SupYSize: 1200
OS2SupXOff: 0
OS2SupYOff: 700
OS2StrikeYSize: 100
OS2StrikeYPos: 624
OS2CapHeight: 1500
OS2XHeight: 1040
OS2FamilyClass: 256
OS2Vendor: 'it* '
OS2CodePages: 20000093.00000000
OS2UnicodeRanges: a00000ff.5000e04b.00000000.00000000
DEI: 91125
TtTable: prep
PUSHW_1
 0
CALL
SVTCA[y-axis]
PUSHW_3
 1
 3
 2
CALL
SVTCA[x-axis]
PUSHW_3
 4
 1
 2
CALL
SVTCA[x-axis]
PUSHW_8
 4
 26
 21
 17
 12
 9
 0
 8
CALL
SVTCA[y-axis]
PUSHW_8
 1
 37
 33
 26
 19
 9
 0
 8
CALL
PUSHW_8
 2
 51
 42
 33
 24
 13
 0
 8
CALL
PUSHW_8
 3
 44
 33
 26
 19
 13
 0
 8
CALL
SVTCA[y-axis]
PUSHW_3
 5
 4
 7
CALL
PUSHW_1
 0
DUP
RCVT
RDTG
ROUND[Black]
RTG
WCVTP
EndTTInstrs
TtTable: fpgm
PUSHW_1
 0
FDEF
MPPEM
PUSHW_1
 9
LT
IF
PUSHB_2
 1
 1
INSTCTRL
EIF
PUSHW_1
 511
SCANCTRL
PUSHW_1
 68
SCVTCI
PUSHW_2
 9
 3
SDS
SDB
ENDF
PUSHW_1
 1
FDEF
DUP
DUP
RCVT
ROUND[Black]
WCVTP
PUSHB_1
 1
ADD
ENDF
PUSHW_1
 2
FDEF
PUSHW_1
 1
LOOPCALL
POP
ENDF
PUSHW_1
 3
FDEF
DUP
GC[cur]
PUSHB_1
 3
CINDEX
GC[cur]
GT
IF
SWAP
EIF
DUP
ROLL
DUP
ROLL
MD[grid]
ABS
ROLL
DUP
GC[cur]
DUP
ROUND[Grey]
SUB
ABS
PUSHB_1
 4
CINDEX
GC[cur]

StartChar: .notdef
Encoding: 65536 -1 0
Width: 728
Flags: W
LayerCount: 2
Fore
SplineSet
66 0 m 1,0,-1
 66 1333 l 1,1,-1
 596 1333 l 1,2,-1
 596 0 l 1,3,-1
 66 0 l 1,0,-1
132 66 m 1,4,-1
 530 66 l 1,5,-1
 530 1267 l 1,6,-1
 132 1267 l 1,7,-1
 132 66 l 1,4,-1
EndSplineSet
EndChar

StartChar: exclam
Encoding: 33 33 4
Width: 569
Flags: W
LayerCount: 2
Fore
SplineSet
34 1143 m 0,0,1
 34 1268 34 1268 96.5 1355.5 c 128,-1,2
 159 1443 159 1443 284 1443 c 256,3,4
 409 1443 409 1443 471.5 1355.5 c 128,-1,5
 534 1268 534 1268 534 1143 c 0,6,7
 534 992 534 992 504 879 c 128,-1,8
 474 766 474 766 440 696.5 c 128,-1,9
 406 627 406 627 394 608 c 0,10,11
 372 575 372 575 341.5 546 c 128,-1,12
 311 517 311 517 284 517 c 256,13,14
 257 517 257 517 231.5 546 c 128,-1,15
 206 575 206 575 184 608 c 0,16,17
 172 628 172 628 135.5 699 c 128,-1,18
 99 770 99 770 66.5 883.5 c 128,-1,19
 34 997 34 997 34 1143 c 0,0,1
42 199 m 256,20,21
 42 266 42 266 75 321.5 c 128,-1,22
 108 377 108 377 163.5 410 c 128,-1,23
 219 443 219 443 286 443 c 256,24,25
 353 443 353 443 408.5 410 c 128,-1,26
 464 377 464 377 497 321.5 c 128,-1,27
 530 266 530 266 530 199 c 256,28,29
 530 132 530 132 497 76.5 c 128,-1,30
 464 21 464 21 408.5 -12 c 128,-1,31
 353 -45 353 -45 286 -45 c 256,32,33
 219 -45 219 -45 163.5 -12 c 128,-1,34
 108 21 108 21 75 76.5 c 128,-1,35
 42 132 42 132 42 199 c 256,20,21
EndSplineSet
EndChar

StartChar: numbersign
Encoding: 35 35 6
Width: 1163
Flags: W
LayerCount: 2
Fore
SplineSet
21 188 m 0,0,1
 21 197 21 197 30 240.5 c 128,-1,2
 39 284 39 284 52.5 339 c 128,-1,3
 66 394 66 394 80.5 439 c 128,-1,4
 95 484 95 484 105 495 c 0,5,6
 126 518 126 518 153 518 c 0,7,8
 164 518 164 518 193 517.5 c 128,-1,9
 222 517 222 517 264 516 c 1,10,-1
 293 650 l 1,11,-1
 291 650 l 2,12,13
 231 650 231 650 175.5 645 c 128,-1,14
 120 640 120 640 109 640 c 0,15,16
 99 640 99 640 90 647.5 c 128,-1,17
 81 655 81 655 81 668 c 0,18,19
 81 677 81 677 90 720.5 c 128,-1,20
 99 764 99 764 112.5 819 c 128,-1,21
 126 874 126 874 140.5 919 c 128,-1,22
 155 964 155 964 165 975 c 0,23,24
 186 998 186 998 213 998 c 0,25,26
 226 998 226 998 267 997 c 128,-1,27
 308 996 308 996 365 995 c 1,28,29
 372 1041 372 1041 374 1071.5 c 128,-1,30
 376 1102 376 1102 376 1120 c 0,31,32
 376 1150 376 1150 407 1175 c 128,-1,33
 438 1200 438 1200 489 1200 c 0,34,35
 539 1200 539 1200 557 1179 c 128,-1,36
 575 1158 575 1158 575 1135 c 0,37,38
 575 1113 575 1113 564.5 1088.5 c 128,-1,39
 554 1064 554 1064 545 1022 c 2,40,-1
 538 991 l 1,41,42
 583 990 583 990 627.5 989 c 128,-1,43
 672 988 672 988 713 987 c 1,44,45
 721 1039 721 1039 723.5 1073 c 128,-1,46
 726 1107 726 1107 726 1120 c 0,47,48
 726 1150 726 1150 757 1175 c 128,-1,49
 788 1200 788 1200 839 1200 c 0,50,51
 889 1200 889 1200 907 1179 c 128,-1,52
 925 1158 925 1158 925 1135 c 0,53,54
 925 1113 925 1113 914.5 1088.5 c 128,-1,55
 904 1064 904 1064 895 1022 c 2,56,-1
 887 984 l 1,57,58
 916 983 916 983 925 983 c 0,59,60
 971 983 971 983 997 987 c 128,-1,61
 1023 991 1023 991 1043.5 995 c 128,-1,62
 1064 999 1064 999 1091 999 c 0,63,64
 1105 999 1105 999 1114 988 c 128,-1,65
 1123 977 1123 977 1123 963 c 0,66,67
 1123 954 1123 954 1114.5 910.5 c 128,-1,68
 1106 867 1106 867 1094 812.5 c 128,-1,69
 1082 758 1082 758 1070.5 713.5 c 128,-1,70
 1059 669 1059 669 1053 657 c 0,71,72
 1039 631 1039 631 1011 631 c 0,73,74
 990 631 990 631 954 640.5 c 128,-1,75
 918 650 918 650 871 650 c 2,76,-1
 815 650 l 1,77,-1
 783 504 l 1,78,79
 851 503 851 503 865 503 c 0,80,81
 911 503 911 503 937 507 c 128,-1,82
 963 511 963 511 983.5 515 c 128,-1,83
 1004 519 1004 519 1031 519 c 0,84,85
 1045 519 1045 519 1054 508 c 128,-1,86
 1063 497 1063 497 1063 483 c 0,87,88
 1063 474 1063 474 1054.5 430.5 c 128,-1,89
 1046 387 1046 387 1034 332.5 c 128,-1,90
 1022 278 1022 278 1010.5 233.5 c 128,-1,91
 999 189 999 189 993 177 c 0,92,93
 979 151 979 151 951 151 c 0,94,95
 930 151 930 151 894 160.5 c 128,-1,96
 858 170 858 170 811 170 c 2,97,-1
 711 170 l 1,98,-1
 667 -32 l 2,99,100
 659 -69 659 -69 626 -97.5 c 128,-1,101
 593 -126 593 -126 546 -126 c 0,102,103
 497 -126 497 -126 478.5 -104 c 128,-1,104
 460 -82 460 -82 460 -55 c 0,105,106
 460 -29 460 -29 485 6.5 c 128,-1,107
 510 42 510 42 527 120 c 2,108,-1
 538 170 l 1,109,-1
 361 170 l 1,110,-1
 317 -32 l 2,111,112
 309 -69 309 -69 276 -97.5 c 128,-1,113
 243 -126 243 -126 196 -126 c 0,114,115
 147 -126 147 -126 128.5 -104 c 128,-1,116
 110 -82 110 -82 110 -55 c 0,117,118
 110 -29 110 -29 135 6.5 c 128,-1,119
 160 42 160 42 177 120 c 2,120,-1
 188 169 l 1,121,122
 139 167 139 167 98.5 163.5 c 128,-1,123
 58 160 58 160 49 160 c 0,124,125
 39 160 39 160 30 167.5 c 128,-1,126
 21 175 21 175 21 188 c 0,0,1
435 512 m 1,127,128
 479 511 479 511 524 510 c 128,-1,129
 569 509 569 509 612 508 c 1,130,-1
 643 650 l 1,131,-1
 465 650 l 1,132,-1
 435 512 l 1,127,128
EndSplineSet
EndChar

StartChar: dollar
Encoding: 36 36 7
Width: 1226
Flags: W
LayerCount: 2
Fore
SplineSet
298 309 m 0,0,1
 340 248 340 248 394 221.5 c 128,-1,2
 448 195 448 195 500 195 c 0,3,4
 544 195 544 195 575 212.5 c 128,-1,5
 606 230 606 230 606 268 c 256,6,7
 606 306 606 306 570.5 330 c 128,-1,8
 535 354 535 354 462.5 385 c 128,-1,9
 390 416 390 416 280 476 c 0,10,11
 200 520 200 520 140.5 562 c 128,-1,12
 81 604 81 604 48.5 662.5 c 128,-1,13
 16 721 16 721 16 813 c 0,14,15
 16 952 16 952 81.5 1044.5 c 128,-1,16
 147 1137 147 1137 255 1190 c 128,-1,17
 363 1243 363 1243 490 1262 c 1,18,19
 490 1294 490 1294 487 1325 c 128,-1,20
 484 1356 484 1356 484 1365 c 0,21,22
 484 1377 484 1377 492 1389 c 128,-1,23
 500 1401 500 1401 517 1401 c 0,24,25
 537 1401 537 1401 571 1401.5 c 128,-1,26
 605 1402 605 1402 636.5 1402 c 128,-1,27
 668 1402 668 1402 678 1402 c 0,28,29
 689 1402 689 1402 698.5 1394 c 128,-1,30
 708 1386 708 1386 708 1362 c 0,31,32
 708 1348 708 1348 706.5 1327 c 128,-1,33
 705 1306 705 1306 704 1274 c 1,34,35
 803 1269 803 1269 875 1246 c 128,-1,36
 947 1223 947 1223 990.5 1198.5 c 128,-1,37
 1034 1174 1034 1174 1049 1164 c 0,38,39
 1121 1115 1121 1115 1121 1035 c 0,40,41
 1121 973 1121 973 1071 929.5 c 128,-1,42
 1021 886 1021 886 962 886 c 0,43,44
 908 886 908 886 859.5 917 c 128,-1,45
 811 948 811 948 779 1000 c 0,46,47
 754 1040 754 1040 712 1057 c 128,-1,48
 670 1074 670 1074 608 1074 c 0,49,50
 558 1074 558 1074 525 1054 c 128,-1,51
 492 1034 492 1034 492 996 c 0,52,53
 492 956 492 956 537.5 926 c 128,-1,54
 583 896 583 896 668.5 863.5 c 128,-1,55
 754 831 754 831 872 784 c 0,56,57
 991 737 991 737 1058.5 689 c 128,-1,58
 1126 641 1126 641 1153.5 579.5 c 128,-1,59
 1181 518 1181 518 1181 428 c 0,60,61
 1181 287 1181 287 1115.5 201.5 c 128,-1,62
 1050 116 1050 116 947 71.5 c 128,-1,63
 844 27 844 27 733 10 c 1,64,-1
 733 -4 l 2,65,66
 733 -35 733 -35 736.5 -60 c 128,-1,67
 740 -85 740 -85 740 -94 c 0,68,69
 740 -106 740 -106 733.5 -118 c 128,-1,70
 727 -130 727 -130 707 -130 c 0,71,72
 690 -130 690 -130 647.5 -132 c 128,-1,73
 605 -134 605 -134 565 -136 c 128,-1,74
 525 -138 525 -138 514 -138 c 0,75,76
 504 -138 504 -138 494 -130 c 128,-1,77
 484 -122 484 -122 484 -98 c 0,78,79
 484 -88 484 -88 485.5 -66.5 c 128,-1,80
 487 -45 487 -45 488 -5 c 1,81,82
 372 -1 372 -1 289 24.5 c 128,-1,83
 206 50 206 50 151 84 c 128,-1,84
 96 118 96 118 64 148 c 0,85,86
 46 165 46 165 31.5 195 c 128,-1,87
 17 225 17 225 17 259 c 0,88,89
 17 330 17 330 57 370.5 c 128,-1,90
 97 411 97 411 170 411 c 0,91,92
 220 411 220 411 248.5 375.5 c 128,-1,93
 277 340 277 340 298 309 c 0,0,1
EndSplineSet
EndChar

StartChar: percent
Encoding: 37 37 8
Width: 1740
Flags: W
LayerCount: 2
Fore
SplineSet
900 546 m 2,0,1
 774 366 774 366 680.5 228.5 c 128,-1,2
 587 91 587 91 519 -7 c 0,3,4
 499 -36 499 -36 472 -16 c 2,5,-1
 387 39 l 2,6,7
 360 59 360 59 380 88 c 0,8,9
 448 186 448 186 546.5 320.5 c 128,-1,10
 645 455 645 455 771 635 c 2,11,-1
 810 691 l 2,12,13
 936 871 936 871 1037 1020.5 c 128,-1,14
 1138 1170 1138 1170 1206 1267 c 0,15,16
 1217 1282 1217 1282 1227 1285 c 128,-1,17
 1237 1288 1237 1288 1254 1277 c 2,18,-1
 1338 1221 l 2,19,20
 1367 1202 1367 1202 1346 1172 c 0,21,22
 1278 1075 1278 1075 1172 929 c 128,-1,23
 1066 783 1066 783 940 603 c 2,24,-1
 900 546 l 2,0,1
848 968 m 0,25,26
 848 886 848 886 808 812.5 c 128,-1,27
 768 739 768 739 702 683 c 128,-1,28
 636 627 636 627 557.5 595 c 128,-1,29
 479 563 479 563 402 563 c 0,30,31
 320 563 320 563 237.5 595.5 c 128,-1,32
 155 628 155 628 100 700 c 128,-1,33
 45 772 45 772 45 889 c 0,34,35
 45 972 45 972 85.5 1044 c 128,-1,36
 126 1116 126 1116 191.5 1169.5 c 128,-1,37
 257 1223 257 1223 334 1253 c 128,-1,38
 411 1283 411 1283 484 1283 c 0,39,40
 570 1283 570 1283 653.5 1252 c 128,-1,41
 737 1221 737 1221 792.5 1152 c 128,-1,42
 848 1083 848 1083 848 968 c 0,25,26
412 714 m 0,43,44
 441 714 441 714 477 784.5 c 128,-1,45
 513 855 513 855 513 1015 c 0,46,47
 513 1068 513 1068 506.5 1100 c 128,-1,48
 500 1132 500 1132 481 1132 c 0,49,50
 444 1132 444 1132 412 1062 c 128,-1,51
 380 992 380 992 380 833 c 0,52,53
 380 773 380 773 385 743.5 c 128,-1,54
 390 714 390 714 412 714 c 0,43,44
1695 370 m 0,55,56
 1695 288 1695 288 1655 214.5 c 128,-1,57
 1615 141 1615 141 1549 85 c 128,-1,58
 1483 29 1483 29 1404.5 -3 c 128,-1,59
 1326 -35 1326 -35 1249 -35 c 0,60,61
 1167 -35 1167 -35 1084.5 -2.5 c 128,-1,62
 1002 30 1002 30 947 102 c 128,-1,63
 892 174 892 174 892 291 c 0,64,65
 892 374 892 374 932.5 446 c 128,-1,66
 973 518 973 518 1038.5 571.5 c 128,-1,67
 1104 625 1104 625 1181 655 c 128,-1,68
 1258 685 1258 685 1331 685 c 0,69,70
 1417 685 1417 685 1500.5 654 c 128,-1,71
 1584 623 1584 623 1639.5 554 c 128,-1,72
 1695 485 1695 485 1695 370 c 0,55,56
1259 116 m 0,73,74
 1288 116 1288 116 1324 186.5 c 128,-1,75
 1360 257 1360 257 1360 417 c 0,76,77
 1360 470 1360 470 1353.5 502 c 128,-1,78
 1347 534 1347 534 1328 534 c 0,79,80
 1291 534 1291 534 1259 464 c 128,-1,81
 1227 394 1227 394 1227 235 c 0,82,83
 1227 175 1227 175 1232 145.5 c 128,-1,84
 1237 116 1237 116 1259 116 c 0,73,74
EndSplineSet
EndChar

StartChar: ampersand
Encoding: 38 38 9
Width: 1708
Flags: W
LayerCount: 2
Fore
SplineSet
823 1131 m 0,0,1
 803 1131 803 1131 786.5 1140 c 128,-1,2
 770 1149 770 1149 754 1163 c 0,3,4
 734 1180 734 1180 706 1194 c 128,-1,5
 678 1208 678 1208 643 1208 c 0,6,7
 594 1208 594 1208 569 1165.5 c 128,-1,8
 544 1123 544 1123 544 1075 c 0,9,10
 544 1024 544 1024 575.5 991 c 128,-1,11
 607 958 607 958 643 958 c 0,12,13
 665 958 665 958 677.5 961 c 128,-1,14
 690 964 690 964 706 964 c 0,15,16
 730 964 730 964 746 933 c 128,-1,17
 762 902 762 902 762 851 c 0,18,19
 762 829 762 829 747 793.5 c 128,-1,20
 732 758 732 758 688 728.5 c 128,-1,21
 644 699 644 699 556 694 c 1,22,23
 548 665 548 665 548 635 c 0,24,25
 548 528 548 528 604 438.5 c 128,-1,26
 660 349 660 349 748.5 295.5 c 128,-1,27
 837 242 837 242 933 242 c 0,28,29
 1040 242 1040 242 1113.5 306 c 128,-1,30
 1187 370 1187 370 1187 466 c 0,31,32
 1187 510 1187 510 1161.5 540.5 c 128,-1,33
 1136 571 1136 571 1081 571 c 0,34,35
 1023 571 1023 571 997.5 543 c 128,-1,36
 972 515 972 515 961 474 c 0,37,38
 954 450 954 450 938.5 432.5 c 128,-1,39
 923 415 923 415 897 415 c 0,40,41
 853 415 853 415 820.5 453.5 c 128,-1,42
 788 492 788 492 788 576 c 0,43,44
 788 671 788 671 824 740 c 128,-1,45
 860 809 860 809 917 858.5 c 128,-1,46
 974 908 974 908 1037.5 943.5 c 128,-1,47
 1101 979 1101 979 1158 1006.5 c 128,-1,48
 1215 1034 1215 1034 1251 1058.5 c 128,-1,49
 1287 1083 1287 1083 1287 1112 c 0,50,51
 1287 1129 1287 1129 1275 1141 c 128,-1,52
 1263 1153 1263 1153 1246 1153 c 0,53,54
 1214 1153 1214 1153 1203 1148.5 c 128,-1,55
 1192 1144 1192 1144 1178 1144 c 0,56,57
 1141 1144 1141 1144 1141 1178 c 0,58,59
 1141 1252 1141 1252 1184.5 1297 c 128,-1,60
 1228 1342 1228 1342 1292.5 1363 c 128,-1,61
 1357 1384 1357 1384 1420 1384 c 0,62,63
 1493 1384 1493 1384 1556.5 1347.5 c 128,-1,64
 1620 1311 1620 1311 1659 1248.5 c 128,-1,65
 1698 1186 1698 1186 1698 1107 c 0,66,67
 1698 1004 1698 1004 1654 930 c 128,-1,68
 1610 856 1610 856 1539 805 c 128,-1,69
 1468 754 1468 754 1386 719 c 1,70,71
 1466 696 1466 696 1523 634.5 c 128,-1,72
 1580 573 1580 573 1580 493 c 0,73,74
 1580 373 1580 373 1515 274 c 128,-1,75
 1450 175 1450 175 1335 103.5 c 128,-1,76
 1220 32 1220 32 1069 -6.5 c 128,-1,77
 918 -45 918 -45 746 -45 c 0,78,79
 593 -45 593 -45 460 -3 c 128,-1,80
 327 39 327 39 227.5 112 c 128,-1,81
 128 185 128 185 72 278 c 128,-1,82
 16 371 16 371 16 473 c 0,83,84
 16 617 16 617 69.5 700.5 c 128,-1,85
 123 784 123 784 212 843 c 1,86,87
 180 889 180 889 158 942 c 128,-1,88
 136 995 136 995 136 1065 c 0,89,90
 136 1185 136 1185 207 1273 c 128,-1,91
 278 1361 278 1361 391 1409 c 128,-1,92
 504 1457 504 1457 631 1457 c 0,93,94
 768 1457 768 1457 860 1397 c 128,-1,95
 952 1337 952 1337 952 1244 c 0,96,97
 952 1196 952 1196 913.5 1163.5 c 128,-1,98
 875 1131 875 1131 823 1131 c 0,0,1
EndSplineSet
EndChar

StartChar: quotesingle
Encoding: 39 39 10
Width: 609
Flags: W
LayerCount: 2
Fore
SplineSet
204 829 m 0,0,1
 172 829 172 829 155 855.5 c 128,-1,2
 138 882 138 882 138 904 c 0,3,4
 138 927 138 927 137 959 c 128,-1,5
 136 991 136 991 128 1040 c 0,6,7
 122 1080 122 1080 96 1136 c 128,-1,8
 70 1192 70 1192 70 1282 c 0,9,10
 70 1335 70 1335 107.5 1385.5 c 128,-1,11
 145 1436 145 1436 210.5 1469.5 c 128,-1,12
 276 1503 276 1503 359 1503 c 0,13,14
 445 1503 445 1503 492 1466 c 128,-1,15
 539 1429 539 1429 539 1380 c 0,16,17
 539 1301 539 1301 507 1230 c 128,-1,18
 475 1159 475 1159 434 1102 c 128,-1,19
 393 1045 393 1045 365 1007 c 0,20,21
 301 919 301 919 270 874 c 128,-1,22
 239 829 239 829 204 829 c 0,0,1
EndSplineSet
EndChar

StartChar: parenleft
Encoding: 40 40 11
Width: 830
Flags: W
LayerCount: 2
Fore
SplineSet
72 594 m 256,0,1
 72 685 72 685 81 762.5 c 128,-1,2
 90 840 90 840 101 903 c 0,3,4
 160 1231 160 1231 284.5 1382.5 c 128,-1,5
 409 1534 409 1534 603 1534 c 0,6,7
 649 1534 649 1534 695 1526 c 128,-1,8
 741 1518 741 1518 765 1507 c 256,9,10
 789 1496 789 1496 799.5 1475.5 c 128,-1,11
 810 1455 810 1455 810 1412 c 0,12,13
 810 1367 810 1367 797.5 1343 c 128,-1,14
 785 1319 785 1319 747 1319 c 0,15,16
 722 1319 722 1319 695 1326 c 128,-1,17
 668 1333 668 1333 637 1333 c 0,18,19
 607 1333 607 1333 582.5 1320.5 c 128,-1,20
 558 1308 558 1308 536.5 1264.5 c 128,-1,21
 515 1221 515 1221 495.5 1130 c 128,-1,22
 476 1039 476 1039 458 882 c 0,23,24
 452 825 452 825 447 753 c 128,-1,25
 442 681 442 681 442 594 c 256,26,27
 442 507 442 507 447 435 c 128,-1,28
 452 363 452 363 458 306 c 0,29,30
 476 149 476 149 495.5 58 c 128,-1,31
 515 -33 515 -33 536.5 -76.5 c 128,-1,32
 558 -120 558 -120 582.5 -132.5 c 128,-1,33
 607 -145 607 -145 637 -145 c 0,34,35
 668 -145 668 -145 695 -138 c 128,-1,36
 722 -131 722 -131 747 -131 c 0,37,38
 785 -131 785 -131 797.5 -155 c 128,-1,39
 810 -179 810 -179 810 -224 c 0,40,41
 810 -267 810 -267 799.5 -287.5 c 128,-1,42
 789 -308 789 -308 765 -319 c 256,43,44
 741 -330 741 -330 695 -338 c 128,-1,45
 649 -346 649 -346 603 -346 c 0,46,47
 409 -346 409 -346 284.5 -194.5 c 128,-1,48
 160 -43 160 -43 101 285 c 0,49,50
 90 348 90 348 81 425.5 c 128,-1,51
 72 503 72 503 72 594 c 256,0,1
EndSplineSet
EndChar

StartChar: parenright
Encoding: 41 41 12
Width: 830
Flags: W
LayerCount: 2
Fore
SplineSet
758 594 m 256,0,1
 758 503 758 503 749 425.5 c 128,-1,2
 740 348 740 348 729 285 c 0,3,4
 670 -43 670 -43 545.5 -194.5 c 128,-1,5
 421 -346 421 -346 227 -346 c 0,6,7
 181 -346 181 -346 135 -338 c 128,-1,8
 89 -330 89 -330 65 -319 c 256,9,10
 41 -308 41 -308 30.5 -287.5 c 128,-1,11
 20 -267 20 -267 20 -224 c 0,12,13
 20 -179 20 -179 32.5 -155 c 128,-1,14
 45 -131 45 -131 83 -131 c 0,15,16
 108 -131 108 -131 135 -138 c 128,-1,17
 162 -145 162 -145 193 -145 c 0,18,19
 223 -145 223 -145 246 -132.5 c 128,-1,20
 269 -120 269 -120 288.5 -76.5 c 128,-1,21
 308 -33 308 -33 327.5 58 c 128,-1,22
 347 149 347 149 369 306 c 0,23,24
 377 363 377 363 382.5 435 c 128,-1,25
 388 507 388 507 388 594 c 256,26,27
 388 681 388 681 382.5 753 c 128,-1,28
 377 825 377 825 369 882 c 0,29,30
 347 1039 347 1039 327.5 1130 c 128,-1,31
 308 1221 308 1221 288.5 1264.5 c 128,-1,32
 269 1308 269 1308 246 1320.5 c 128,-1,33
 223 1333 223 1333 193 1333 c 0,34,35
 162 1333 162 1333 135 1326 c 128,-1,36
 108 1319 108 1319 83 1319 c 0,37,38
 45 1319 45 1319 32.5 1343 c 128,-1,39
 20 1367 20 1367 20 1412 c 0,40,41
 20 1455 20 1455 30.5 1475.5 c 128,-1,42
 41 1496 41 1496 65 1507 c 256,43,44
 89 1518 89 1518 135 1526 c 128,-1,45
 181 1534 181 1534 227 1534 c 0,46,47
 421 1534 421 1534 545.5 1382.5 c 128,-1,48
 670 1231 670 1231 729 903 c 0,49,50
 740 840 740 840 749 762.5 c 128,-1,51
 758 685 758 685 758 594 c 256,0,1
EndSplineSet
EndChar

StartChar: asterisk
Encoding: 42 42 13
Width: 1460
Flags: W
LayerCount: 2
Fore
SplineSet
50 873 m 0,0,1
 50 946 50 946 97 1007 c 128,-1,2
 144 1068 144 1068 225 1068 c 0,3,4
 296 1068 296 1068 353.5 1040.5 c 128,-1,5
 411 1013 411 1013 479.5 976 c 128,-1,6
 548 939 548 939 652 912 c 0,7,8
 663 909 663 909 663.5 910 c 128,-1,9
 664 911 664 911 656 919 c 0,10,11
 578 994 578 994 512.5 1035.5 c 128,-1,12
 447 1077 447 1077 395.5 1114 c 128,-1,13
 344 1151 344 1151 309 1213 c 0,14,15
 268 1283 268 1283 294 1352 c 128,-1,16
 320 1421 320 1421 390 1462 c 0,17,18
 460 1502 460 1502 533 1490 c 128,-1,19
 606 1478 606 1478 646 1408 c 0,20,21
 682 1346 682 1346 687 1282.5 c 128,-1,22
 692 1219 692 1219 694 1141.5 c 128,-1,23
 696 1064 696 1064 725 960 c 0,24,25
 728 949 728 949 729 949 c 128,-1,26
 730 949 730 949 733 960 c 0,27,28
 759 1066 759 1066 762 1143 c 128,-1,29
 765 1220 765 1220 771.5 1283 c 128,-1,30
 778 1346 778 1346 814 1408 c 0,31,32
 854 1478 854 1478 927 1490 c 128,-1,33
 1000 1502 1000 1502 1070 1462 c 0,34,35
 1140 1421 1140 1421 1166 1352 c 128,-1,36
 1192 1283 1192 1283 1151 1213 c 0,37,38
 1116 1151 1116 1151 1063 1115 c 128,-1,39
 1010 1079 1010 1079 943.5 1037.5 c 128,-1,40
 877 996 877 996 801 919 c 0,41,42
 794 912 794 912 794.5 911.5 c 128,-1,43
 795 911 795 911 805 914 c 0,44,45
 910 944 910 944 979 980 c 128,-1,46
 1048 1016 1048 1016 1106 1042 c 128,-1,47
 1164 1068 1164 1068 1235 1068 c 0,48,49
 1316 1068 1316 1068 1363 1011 c 128,-1,50
 1410 954 1410 954 1410 873 c 256,51,52
 1410 792 1410 792 1363 735 c 128,-1,53
 1316 678 1316 678 1235 678 c 0,54,55
 1164 678 1164 678 1106 706 c 128,-1,56
 1048 734 1048 734 979 771 c 128,-1,57
 910 808 910 808 805 835 c 0,58,59
 793 838 793 838 792.5 837 c 128,-1,60
 792 836 792 836 800 828 c 0,61,62
 876 750 876 750 942.5 708.5 c 128,-1,63
 1009 667 1009 667 1062.5 631 c 128,-1,64
 1116 595 1116 595 1151 533 c 0,65,66
 1192 463 1192 463 1166 394 c 128,-1,67
 1140 325 1140 325 1070 284 c 0,68,69
 1007 247 1007 247 930.5 257.5 c 128,-1,70
 854 268 854 268 814 338 c 0,71,72
 778 400 778 400 773 464 c 128,-1,73
 768 528 768 528 765.5 606.5 c 128,-1,74
 763 685 763 685 734 790 c 0,75,76
 731 801 731 801 730 801 c 128,-1,77
 729 801 729 801 726 790 c 0,78,79
 697 685 697 685 694.5 606.5 c 128,-1,80
 692 528 692 528 687 464 c 128,-1,81
 682 400 682 400 646 338 c 0,82,83
 606 268 606 268 533 256 c 128,-1,84
 460 244 460 244 390 284 c 0,85,86
 327 321 327 321 297.5 392 c 128,-1,87
 268 463 268 463 309 533 c 0,88,89
 344 595 344 595 397 631 c 128,-1,90
 450 667 450 667 516.5 708.5 c 128,-1,91
 583 750 583 750 659 827 c 0,92,93
 668 836 668 836 667.5 837 c 128,-1,94
 667 838 667 838 654 835 c 0,95,96
 549 807 549 807 480.5 770.5 c 128,-1,97
 412 734 412 734 354 706 c 128,-1,98
 296 678 296 678 225 678 c 0,99,100
 144 678 144 678 97 735 c 128,-1,101
 50 792 50 792 50 873 c 0,0,1
EndSplineSet
EndChar

StartChar: plus
Encoding: 43 43 14
Width: 1222
Flags: W
LayerCount: 2
Fore
SplineSet
102 338 m 0,0,1
 102 390 102 390 114 455 c 128,-1,2
 126 520 126 520 146 580 c 128,-1,3
 166 640 166 640 189 675 c 0,4,5
 197 688 197 688 212.5 693 c 128,-1,6
 228 698 228 698 244 698 c 256,7,8
 260 698 260 698 316 697 c 128,-1,9
 372 696 372 696 446 694 c 1,10,11
 440 771 440 771 433 831.5 c 128,-1,12
 426 892 426 892 426 930 c 0,13,14
 426 950 426 950 430 960 c 128,-1,15
 434 970 434 970 450 970 c 2,16,-1
 770 970 l 2,17,18
 786 970 786 970 790 960 c 128,-1,19
 794 950 794 950 794 930 c 0,20,21
 794 891 794 891 786.5 828.5 c 128,-1,22
 779 766 779 766 773 686 c 1,23,24
 831 685 831 685 872 684 c 128,-1,25
 913 683 913 683 925 683 c 0,26,27
 971 683 971 683 997 687 c 128,-1,28
 1023 691 1023 691 1043.5 695 c 128,-1,29
 1064 699 1064 699 1091 699 c 0,30,31
 1105 699 1105 699 1114 688 c 128,-1,32
 1123 677 1123 677 1123 663 c 0,33,34
 1123 654 1123 654 1115.5 617 c 128,-1,35
 1108 580 1108 580 1095 529.5 c 128,-1,36
 1082 479 1082 479 1064.5 427.5 c 128,-1,37
 1047 376 1047 376 1027 337 c 0,38,39
 1020 324 1020 324 1004.5 312.5 c 128,-1,40
 989 301 989 301 975 301 c 0,41,42
 954 301 954 301 918 310.5 c 128,-1,43
 882 320 882 320 835 320 c 2,44,-1
 772 320 l 1,45,46
 778 244 778 244 786 187.5 c 128,-1,47
 794 131 794 131 794 90 c 0,48,49
 794 70 794 70 790 60 c 128,-1,50
 786 50 786 50 770 50 c 2,51,-1
 450 50 l 2,52,53
 434 50 434 50 430 60 c 128,-1,54
 426 70 426 70 426 90 c 0,55,56
 426 131 426 131 434 187.5 c 128,-1,57
 442 244 442 244 448 320 c 1,58,-1
 340 320 l 2,59,60
 258 320 258 320 213.5 305 c 128,-1,61
 169 290 169 290 143 290 c 0,62,63
 125 290 125 290 113.5 300 c 128,-1,64
 102 310 102 310 102 338 c 0,0,1
EndSplineSet
EndChar

StartChar: comma
Encoding: 44 44 15
Width: 680
Flags: W
LayerCount: 2
Fore
SplineSet
208 -329 m 0,0,1
 208 -293 208 -293 254 -253 c 0,2,3
 271 -238 271 -238 298.5 -192.5 c 128,-1,4
 326 -147 326 -147 326 -80 c 0,5,6
 326 -57 326 -57 321 -47.5 c 128,-1,7
 316 -38 316 -38 308 -34 c 0,8,9
 302 -31 302 -31 289 -28 c 128,-1,10
 276 -25 276 -25 256 -19 c 0,11,12
 229 -11 229 -11 185 13.5 c 128,-1,13
 141 38 141 38 105.5 82.5 c 128,-1,14
 70 127 70 127 70 195 c 0,15,16
 70 305 70 305 141 381 c 128,-1,17
 212 457 212 457 322 457 c 0,18,19
 441 457 441 457 509 369.5 c 128,-1,20
 577 282 577 282 577 145 c 0,21,22
 577 30 577 30 550 -68 c 128,-1,23
 523 -166 523 -166 482.5 -238.5 c 128,-1,24
 442 -311 442 -311 401 -351 c 128,-1,25
 360 -391 360 -391 332 -391 c 0,26,27
 262 -391 262 -391 235 -369 c 128,-1,28
 208 -347 208 -347 208 -329 c 0,0,1
EndSplineSet
EndChar

StartChar: hyphen
Encoding: 45 45 16
Width: 702
Flags: W
LayerCount: 2
Fore
SplineSet
70 486 m 0,0,1
 70 513 70 513 79 570.5 c 128,-1,2
 88 628 88 628 104.5 692 c 128,-1,3
 121 756 121 756 144 803 c 0,4,5
 165 846 165 846 212 846 c 256,6,7
 259 846 259 846 286.5 843.5 c 128,-1,8
 314 841 314 841 354 841 c 0,9,10
 423 841 423 841 481 849 c 128,-1,11
 539 857 539 857 580 857 c 0,12,13
 602 857 602 857 617 846 c 128,-1,14
 632 835 632 835 632 813 c 0,15,16
 632 786 632 786 617 733.5 c 128,-1,17
 602 681 602 681 581.5 620 c 128,-1,18
 561 559 561 559 542 507 c 0,19,20
 533 482 533 482 506 471.5 c 128,-1,21
 479 461 479 461 450 461 c 0,22,23
 413 461 413 461 362.5 467.5 c 128,-1,24
 312 474 312 474 262 474 c 0,25,26
 207 474 207 474 176 458 c 128,-1,27
 145 442 145 442 119 442 c 0,28,29
 101 442 101 442 85.5 453.5 c 128,-1,30
 70 465 70 465 70 486 c 0,0,1
EndSplineSet
EndChar

StartChar: period
Encoding: 46 46 17
Width: 680
Flags: W
LayerCount: 2
Fore
SplineSet
70 187 m 256,0,1
 70 261 70 261 106.5 322.5 c 128,-1,2
 143 384 143 384 204.5 420.5 c 128,-1,3
 266 457 266 457 340 457 c 256,4,5
 414 457 414 457 475.5 420.5 c 128,-1,6
 537 384 537 384 573.5 322.5 c 128,-1,7
 610 261 610 261 610 187 c 256,8,9
 610 113 610 113 573.5 51.5 c 128,-1,10
 537 -10 537 -10 475.5 -46.5 c 128,-1,11
 414 -83 414 -83 340 -83 c 256,12,13
 266 -83 266 -83 204.5 -46.5 c 128,-1,14
 143 -10 143 -10 106.5 51.5 c 128,-1,15
 70 113 70 113 70 187 c 256,0,1
EndSplineSet
EndChar

StartChar: slash
Encoding: 47 47 18
Width: 880
Flags: W
LayerCount: 2
Fore
SplineSet
336 -112 m 0,0,1
 330 -130 330 -130 294.5 -145.5 c 128,-1,2
 259 -161 259 -161 213.5 -172 c 128,-1,3
 168 -183 168 -183 130 -189.5 c 128,-1,4
 92 -196 92 -196 80 -196 c 0,5,6
 40 -196 40 -196 25 -179.5 c 128,-1,7
 10 -163 10 -163 10 -135 c 0,8,9
 10 -109 10 -109 29.5 -72 c 128,-1,10
 49 -35 49 -35 77 40 c 0,11,12
 204 373 204 373 326 712 c 128,-1,13
 448 1051 448 1051 564 1396 c 0,14,15
 570 1414 570 1414 602.5 1429.5 c 128,-1,16
 635 1445 635 1445 676.5 1456 c 128,-1,17
 718 1467 718 1467 753 1473.5 c 128,-1,18
 788 1480 788 1480 800 1480 c 0,19,20
 840 1480 840 1480 855 1463.5 c 128,-1,21
 870 1447 870 1447 870 1419 c 0,22,23
 870 1393 870 1393 860.5 1356 c 128,-1,24
 851 1319 851 1319 823 1244 c 0,25,26
 696 911 696 911 574 572 c 128,-1,27
 452 233 452 233 336 -112 c 0,0,1
EndSplineSet
EndChar

StartChar: zero
Encoding: 48 48 19
Width: 1230
Flags: W
LayerCount: 2
Fore
SplineSet
40 576 m 0,0,1
 40 724 40 724 88.5 845 c 128,-1,2
 137 966 137 966 220 1053.5 c 128,-1,3
 303 1141 303 1141 407.5 1188 c 128,-1,4
 512 1235 512 1235 623 1235 c 0,5,6
 714 1235 714 1235 813 1195.5 c 128,-1,7
 912 1156 912 1156 997.5 1076.5 c 128,-1,8
 1083 997 1083 997 1136.5 877.5 c 128,-1,9
 1190 758 1190 758 1190 598 c 0,10,11
 1190 393 1190 393 1114 251.5 c 128,-1,12
 1038 110 1038 110 913.5 37.5 c 128,-1,13
 789 -35 789 -35 644 -35 c 0,14,15
 545 -35 545 -35 439.5 1 c 128,-1,16
 334 37 334 37 243 111.5 c 128,-1,17
 152 186 152 186 96 301.5 c 128,-1,18
 40 417 40 417 40 576 c 0,0,1
666 304 m 0,19,20
 710 304 710 304 726.5 332.5 c 128,-1,21
 743 361 743 361 743 410 c 0,22,23
 743 558 743 558 719.5 667 c 128,-1,24
 696 776 696 776 659 836.5 c 128,-1,25
 622 897 622 897 581 897 c 0,26,27
 541 897 541 897 513 867 c 128,-1,28
 485 837 485 837 485 774 c 0,29,30
 485 620 485 620 514 515.5 c 128,-1,31
 543 411 543 411 585 357.5 c 128,-1,32
 627 304 627 304 666 304 c 0,19,20
EndSplineSet
EndChar

StartChar: one
Encoding: 49 49 20
Width: 1230
Flags: W
LayerCount: 2
Fore
SplineSet
360 521 m 2,0,-1
 360 721 l 2,1,2
 360 816 360 816 344.5 844.5 c 128,-1,3
 329 873 329 873 280 873 c 0,4,5
 239 873 239 873 213 869 c 128,-1,6
 187 865 187 865 164 865 c 0,7,8
 134 865 134 865 111 892.5 c 128,-1,9
 88 920 88 920 88 950 c 0,10,11
 88 969 88 969 100 994.5 c 128,-1,12
 112 1020 112 1020 158 1048 c 0,13,14
 207 1078 207 1078 278 1104 c 128,-1,15
 349 1130 349 1130 428 1150.5 c 128,-1,16
 507 1171 507 1171 581.5 1185.5 c 128,-1,17
 656 1200 656 1200 712 1206 c 0,18,19
 777 1214 777 1214 820.5 1218 c 128,-1,20
 864 1222 864 1222 892 1222 c 0,21,22
 940 1222 940 1222 972 1197.5 c 128,-1,23
 1004 1173 1004 1173 1004 1132 c 0,24,25
 1004 1100 1004 1100 980 1083.5 c 128,-1,26
 956 1067 956 1067 934 1059 c 0,27,28
 870 1036 870 1036 858 1000 c 0,29,30
 852 981 852 981 850 943 c 128,-1,31
 848 905 848 905 848 844 c 2,32,-1
 848 594 l 2,33,34
 848 466 848 466 850.5 399 c 128,-1,35
 853 332 853 332 859.5 301 c 128,-1,36
 866 270 866 270 878 248 c 0,37,38
 894 220 894 220 925 205 c 128,-1,39
 956 190 956 190 990 190 c 0,40,41
 1008 190 1008 190 1021 191 c 128,-1,42
 1034 192 1034 192 1048 192 c 0,43,44
 1077 192 1077 192 1103.5 175.5 c 128,-1,45
 1130 159 1130 159 1130 109 c 0,46,47
 1130 15 1130 15 994 -15 c 128,-1,48
 858 -45 858 -45 596 -45 c 0,49,50
 456 -45 456 -45 339.5 -38.5 c 128,-1,51
 223 -32 223 -32 153.5 -4 c 128,-1,52
 84 24 84 24 84 88 c 0,53,54
 84 123 84 123 106 144.5 c 128,-1,55
 128 166 128 166 156 166 c 0,56,57
 177 166 177 166 195.5 164 c 128,-1,58
 214 162 214 162 234 162 c 0,59,60
 278 162 278 162 301 175 c 128,-1,61
 324 188 324 188 332 207 c 0,62,63
 350 251 350 251 355 321 c 128,-1,64
 360 391 360 391 360 521 c 2,0,-1
EndSplineSet
EndChar

StartChar: two
Encoding: 50 50 21
Width: 1230
Flags: W
LayerCount: 2
Fore
SplineSet
162 766 m 0,0,1
 138 766 138 766 106 787 c 128,-1,2
 74 808 74 808 50.5 840.5 c 128,-1,3
 27 873 27 873 27 909 c 0,4,5
 27 966 27 966 82 1026.5 c 128,-1,6
 137 1087 137 1087 228.5 1138.5 c 128,-1,7
 320 1190 320 1190 432 1222 c 128,-1,8
 544 1254 544 1254 659 1254 c 0,9,10
 792 1254 792 1254 896.5 1213.5 c 128,-1,11
 1001 1173 1001 1173 1061.5 1105 c 128,-1,12
 1122 1037 1122 1037 1122 956 c 0,13,14
 1122 865 1122 865 1095 802.5 c 128,-1,15
 1068 740 1068 740 1011 676 c 128,-1,16
 954 612 954 612 864 515 c 0,17,18
 827 475 827 475 808.5 456 c 128,-1,19
 790 437 790 437 790 420 c 0,20,21
 790 401 790 401 814.5 389.5 c 128,-1,22
 839 378 839 378 909 378 c 2,23,-1
 941 378 l 2,24,25
 975 378 975 378 991 385 c 128,-1,26
 1007 392 1007 392 1026 408 c 0,27,28
 1040 420 1040 420 1059.5 436 c 128,-1,29
 1079 452 1079 452 1114 452 c 0,30,31
 1165 452 1165 452 1189 399 c 128,-1,32
 1213 346 1213 346 1213 268 c 0,33,34
 1213 231 1213 231 1196.5 169 c 128,-1,35
 1180 107 1180 107 1151.5 44.5 c 128,-1,36
 1123 -18 1123 -18 1086.5 -61 c 128,-1,37
 1050 -104 1050 -104 1009 -104 c 0,38,39
 957 -104 957 -104 941 -89 c 128,-1,40
 925 -74 925 -74 920 -67 c 0,41,42
 913 -55 913 -55 903 -39 c 128,-1,43
 893 -23 893 -23 882 -13 c 0,44,45
 872 -3 872 -3 848 -1.5 c 128,-1,46
 824 0 824 0 807 0 c 2,47,-1
 157 0 l 2,48,49
 84 0 84 0 53 11.5 c 128,-1,50
 22 23 22 23 22 63 c 0,51,52
 22 95 22 95 49 121 c 128,-1,53
 76 147 76 147 103 174 c 256,54,55
 130 201 130 201 195.5 281 c 128,-1,56
 261 361 261 361 383 513 c 0,57,58
 437 581 437 581 480.5 646 c 128,-1,59
 524 711 524 711 524 778 c 0,60,61
 524 831 524 831 493.5 858.5 c 128,-1,62
 463 886 463 886 410 886 c 0,63,64
 380 886 380 886 354 876.5 c 128,-1,65
 328 867 328 867 290 839 c 0,66,67
 239 802 239 802 215 784 c 128,-1,68
 191 766 191 766 162 766 c 0,0,1
EndSplineSet
EndChar

StartChar: three
Encoding: 51 51 22
Width: 1230
Flags: W
LayerCount: 2
Fore
SplineSet
105 847 m 0,0,1
 71 847 71 847 42.5 887 c 128,-1,2
 14 927 14 927 14 972 c 0,3,4
 14 995 14 995 34.5 1028.5 c 128,-1,5
 55 1062 55 1062 114 1100 c 128,-1,6
 173 1138 173 1138 288 1175 c 0,7,8
 356 1197 356 1197 427 1203 c 128,-1,9
 498 1209 498 1209 555 1209 c 0,10,11
 693 1209 693 1209 802 1175.5 c 128,-1,12
 911 1142 911 1142 974 1083 c 128,-1,13
 1037 1024 1037 1024 1037 946 c 0,14,15
 1037 890 1037 890 1009.5 832.5 c 128,-1,16
 982 775 982 775 921 722 c 0,17,18
 911 713 911 713 893.5 698.5 c 128,-1,19
 876 684 876 684 876 679 c 0,20,21
 876 671 876 671 892.5 661 c 128,-1,22
 909 651 909 651 925 651 c 0,23,24
 1000 650 1000 650 1067.5 615 c 128,-1,25
 1135 580 1135 580 1178 511 c 128,-1,26
 1221 442 1221 442 1221 338 c 0,27,28
 1221 189 1221 189 1154 83 c 128,-1,29
 1087 -23 1087 -23 975 -90.5 c 128,-1,30
 863 -158 863 -158 726.5 -189.5 c 128,-1,31
 590 -221 590 -221 451 -221 c 0,32,33
 296 -221 296 -221 198.5 -197 c 128,-1,34
 101 -173 101 -173 56 -137.5 c 128,-1,35
 11 -102 11 -102 11 -67 c 0,36,37
 11 -18 11 -18 36 22 c 128,-1,38
 61 62 61 62 119 62 c 0,39,40
 160 62 160 62 189 55 c 0,41,42
 230 45 230 45 267 36.5 c 128,-1,43
 304 28 304 28 339 28 c 0,44,45
 467 28 467 28 547 79 c 128,-1,46
 627 130 627 130 627 229 c 0,47,48
 627 281 627 281 596 313.5 c 128,-1,49
 565 346 565 346 519.5 361.5 c 128,-1,50
 474 377 474 377 429 377 c 0,51,52
 380 377 380 377 337.5 367 c 128,-1,53
 295 357 295 357 276 357 c 0,54,55
 251 357 251 357 219 400.5 c 128,-1,56
 187 444 187 444 187 506 c 0,57,58
 187 570 187 570 213 577 c 0,59,60
 259 590 259 590 314.5 618.5 c 128,-1,61
 370 647 370 647 410.5 689.5 c 128,-1,62
 451 732 451 732 451 783 c 0,63,64
 451 838 451 838 409 877 c 128,-1,65
 367 916 367 916 302 916 c 0,66,67
 254 916 254 916 221 897.5 c 128,-1,68
 188 879 188 879 159 864 c 0,69,70
 146 857 146 857 132.5 852 c 128,-1,71
 119 847 119 847 105 847 c 0,0,1
EndSplineSet
EndChar

StartChar: four
Encoding: 52 52 23
Width: 1230
Flags: W
LayerCount: 2
Fore
SplineSet
531 -23 m 2,0,-1
 147 -23 l 2,1,2
 110 -23 110 -23 71.5 -3.5 c 128,-1,3
 33 16 33 16 33 74 c 2,4,-1
 33 176 l 2,5,6
 33 227 33 227 45 262 c 128,-1,7
 57 297 57 297 89 341 c 2,8,-1
 516 937 l 2,9,10
 567 1008 567 1008 629.5 1079.5 c 128,-1,11
 692 1151 692 1151 764 1199.5 c 128,-1,12
 836 1248 836 1248 916 1248 c 0,13,14
 982 1248 982 1248 1011 1210 c 128,-1,15
 1040 1172 1040 1172 1040 1117 c 0,16,17
 1040 1045 1040 1045 1030.5 930 c 128,-1,18
 1021 815 1021 815 1021 672 c 2,19,-1
 1021 384 l 2,20,21
 1021 365 1021 365 1025.5 359 c 128,-1,22
 1030 353 1030 353 1042 353 c 0,23,24
 1065 353 1065 353 1076.5 354 c 128,-1,25
 1088 355 1088 355 1104 355 c 0,26,27
 1127 355 1127 355 1136 340 c 128,-1,28
 1145 325 1145 325 1145 308 c 0,29,30
 1145 289 1145 289 1145.5 250 c 128,-1,31
 1146 211 1146 211 1146.5 168.5 c 128,-1,32
 1147 126 1147 126 1147.5 94 c 128,-1,33
 1148 62 1148 62 1148 56 c 0,34,35
 1148 29 1148 29 1129 8 c 128,-1,36
 1110 -13 1110 -13 1083 -13 c 0,37,38
 1078 -13 1078 -13 1072 -12.5 c 128,-1,39
 1066 -12 1066 -12 1061 -12 c 0,40,41
 1044 -12 1044 -12 1044 -46 c 2,42,-1
 1044 -134 l 2,43,44
 1044 -165 1044 -165 1047 -187.5 c 128,-1,45
 1050 -210 1050 -210 1050 -219 c 0,46,47
 1050 -241 1050 -241 1017 -255 c 0,48,49
 1005 -260 1005 -260 961.5 -262 c 128,-1,50
 918 -264 918 -264 859.5 -264 c 128,-1,51
 801 -264 801 -264 741 -263 c 128,-1,52
 681 -262 681 -262 636 -262 c 0,53,54
 611 -262 611 -262 593.5 -253 c 128,-1,55
 576 -244 576 -244 576 -220 c 0,56,57
 576 -203 576 -203 577 -189.5 c 128,-1,58
 578 -176 578 -176 578 -128 c 2,59,-1
 578 -58 l 2,60,61
 578 -41 578 -41 569 -32 c 128,-1,62
 560 -23 560 -23 531 -23 c 2,0,-1
587 360 m 2,63,-1
 587 578 l 2,64,65
 587 641 587 641 579.5 662.5 c 128,-1,66
 572 684 572 684 552 684 c 0,67,68
 533 684 533 684 518.5 669 c 128,-1,69
 504 654 504 654 492 636 c 2,70,-1
 381 470 l 2,71,72
 350 424 350 424 330.5 394.5 c 128,-1,73
 311 365 311 365 311 345 c 0,74,75
 311 318 311 318 363 318 c 2,76,-1
 537 318 l 2,77,78
 572 318 572 318 579.5 328.5 c 128,-1,79
 587 339 587 339 587 360 c 2,63,-1
EndSplineSet
EndChar

StartChar: five
Encoding: 53 53 24
Width: 1230
Flags: W
LayerCount: 2
Fore
SplineSet
374 1198 m 2,0,-1
 665 1198 l 2,1,2
 721 1198 721 1198 782.5 1204.5 c 128,-1,3
 844 1211 844 1211 903 1220 c 0,4,5
 949 1227 949 1227 982.5 1234.5 c 128,-1,6
 1016 1242 1016 1242 1055 1242 c 0,7,8
 1092 1242 1092 1242 1107.5 1218.5 c 128,-1,9
 1123 1195 1123 1195 1123 1172 c 0,10,11
 1123 1118 1123 1118 1105 1071 c 1,12,-1
 1091 1023 l 2,13,14
 1076 972 1076 972 1054.5 942 c 128,-1,15
 1033 912 1033 912 983.5 899.5 c 128,-1,16
 934 887 934 887 836 887 c 2,17,-1
 718 887 l 2,18,19
 424 887 424 887 397 814 c 2,20,-1
 394 806 l 2,21,22
 390 795 390 795 390 780 c 0,23,24
 390 754 390 754 412 741.5 c 128,-1,25
 434 729 434 729 467 729 c 0,26,27
 550 729 550 729 644.5 713 c 128,-1,28
 739 697 739 697 829.5 664.5 c 128,-1,29
 920 632 920 632 994 582 c 128,-1,30
 1068 532 1068 532 1112 464 c 128,-1,31
 1156 396 1156 396 1156 309 c 0,32,33
 1156 200 1156 200 1098 103 c 128,-1,34
 1040 6 1040 6 936 -68.5 c 128,-1,35
 832 -143 832 -143 694.5 -185.5 c 128,-1,36
 557 -228 557 -228 398 -228 c 0,37,38
 253 -228 253 -228 171.5 -190 c 128,-1,39
 90 -152 90 -152 90 -97 c 0,40,41
 90 -55 90 -55 110 -21.5 c 128,-1,42
 130 12 130 12 152 12 c 0,43,44
 175 12 175 12 226 -1 c 128,-1,45
 277 -14 277 -14 350 -14 c 0,46,47
 452 -14 452 -14 514.5 34 c 128,-1,48
 577 82 577 82 577 160 c 0,49,50
 577 207 577 207 542 246.5 c 128,-1,51
 507 286 507 286 421 317 c 128,-1,52
 335 348 335 348 181 368 c 0,53,54
 154 372 154 372 124 380 c 128,-1,55
 94 388 94 388 72.5 408 c 128,-1,56
 51 428 51 428 51 467 c 0,57,58
 51 527 51 527 72 600 c 2,59,-1
 195 1026 l 2,60,61
 211 1082 211 1082 227.5 1120.5 c 128,-1,62
 244 1159 244 1159 276.5 1178.5 c 128,-1,63
 309 1198 309 1198 374 1198 c 2,0,-1
EndSplineSet
EndChar

StartChar: six
Encoding: 54 54 25
Width: 1230
Flags: W
LayerCount: 2
Fore
SplineSet
34 507 m 0,0,1
 34 701 34 701 90 852 c 128,-1,2
 146 1003 146 1003 229.5 1114 c 128,-1,3
 313 1225 313 1225 396 1300 c 0,4,5
 442 1342 442 1342 498 1342 c 0,6,7
 530 1342 530 1342 586.5 1320 c 128,-1,8
 643 1298 643 1298 692 1278 c 0,9,10
 736 1259 736 1259 750 1239 c 128,-1,11
 764 1219 764 1219 764 1197 c 0,12,13
 764 1172 764 1172 728 1138 c 0,14,15
 681 1093 681 1093 653 1055.5 c 128,-1,16
 625 1018 625 1018 584 950 c 0,17,18
 579 942 579 942 575.5 926 c 128,-1,19
 572 910 572 910 572 905 c 0,20,21
 572 892 572 892 581.5 880 c 128,-1,22
 591 868 591 868 604 868 c 0,23,24
 610 868 610 868 625.5 871.5 c 128,-1,25
 641 875 641 875 660 882 c 0,26,27
 695 896 695 896 727.5 902.5 c 128,-1,28
 760 909 760 909 806 909 c 0,29,30
 902 909 902 909 991.5 859.5 c 128,-1,31
 1081 810 1081 810 1138.5 719 c 128,-1,32
 1196 628 1196 628 1196 503 c 0,33,34
 1196 387 1196 387 1151.5 285 c 128,-1,35
 1107 183 1107 183 1026.5 105.5 c 128,-1,36
 946 28 946 28 839.5 -16 c 128,-1,37
 733 -60 733 -60 608 -60 c 0,38,39
 514 -60 514 -60 413.5 -25.5 c 128,-1,40
 313 9 313 9 226.5 79.5 c 128,-1,41
 140 150 140 150 87 256.5 c 128,-1,42
 34 363 34 363 34 507 c 0,0,1
514 501 m 0,43,44
 514 389 514 389 564.5 317.5 c 128,-1,45
 615 246 615 246 684 246 c 0,46,47
 723 246 723 246 742.5 274 c 128,-1,48
 762 302 762 302 762 339 c 0,49,50
 762 466 762 466 712 537.5 c 128,-1,51
 662 609 662 609 600 609 c 0,52,53
 561 609 561 609 537.5 581 c 128,-1,54
 514 553 514 553 514 501 c 0,43,44
EndSplineSet
EndChar

StartChar: seven
Encoding: 55 55 26
Width: 1230
Flags: W
LayerCount: 2
Fore
SplineSet
398 1208 m 0,0,1
 411 1208 411 1208 459.5 1208.5 c 128,-1,2
 508 1209 508 1209 573 1210.5 c 128,-1,3
 638 1212 638 1212 703 1213 c 128,-1,4
 768 1214 768 1214 816.5 1214.5 c 128,-1,5
 865 1215 865 1215 878 1215 c 0,6,7
 900 1215 900 1215 947.5 1216.5 c 128,-1,8
 995 1218 995 1218 1042 1219 c 128,-1,9
 1089 1220 1089 1220 1108 1220 c 0,10,11
 1159 1220 1159 1220 1191.5 1193 c 128,-1,12
 1224 1166 1224 1166 1224 1121 c 0,13,14
 1224 1091 1224 1091 1213.5 1054 c 128,-1,15
 1203 1017 1203 1017 1190.5 983.5 c 128,-1,16
 1178 950 1178 950 1172 932 c 2,17,-1
 836 -108 l 2,18,19
 823 -148 823 -148 815 -185.5 c 128,-1,20
 807 -223 807 -223 786 -247 c 128,-1,21
 765 -271 765 -271 714 -271 c 0,22,23
 678 -271 678 -271 622 -264.5 c 128,-1,24
 566 -258 566 -258 509.5 -244.5 c 128,-1,25
 453 -231 453 -231 414.5 -208.5 c 128,-1,26
 376 -186 376 -186 376 -154 c 0,27,28
 376 -105 376 -105 420 -42 c 128,-1,29
 464 21 464 21 514 131 c 2,30,-1
 776 706 l 2,31,32
 785 725 785 725 787.5 736 c 128,-1,33
 790 747 790 747 790 757 c 0,34,35
 790 783 790 783 758 793.5 c 128,-1,36
 726 804 726 804 694 804 c 0,37,38
 663 804 663 804 614.5 803.5 c 128,-1,39
 566 803 566 803 510 803 c 0,40,41
 432 803 432 803 391.5 791 c 128,-1,42
 351 779 351 779 336 761 c 0,43,44
 323 746 323 746 316.5 727.5 c 128,-1,45
 310 709 310 709 294 694 c 0,46,47
 281 681 281 681 260 671 c 128,-1,48
 239 661 239 661 204 661 c 0,49,50
 177 661 177 661 152 673 c 128,-1,51
 127 685 127 685 98 724 c 0,52,53
 84 744 84 744 70 785.5 c 128,-1,54
 56 827 56 827 56 923 c 0,55,56
 56 1009 56 1009 84 1086 c 128,-1,57
 112 1163 112 1163 157 1211.5 c 128,-1,58
 202 1260 202 1260 254 1260 c 0,59,60
 281 1260 281 1260 303.5 1247 c 128,-1,61
 326 1234 326 1234 348.5 1221 c 128,-1,62
 371 1208 371 1208 398 1208 c 0,0,1
EndSplineSet
EndChar

StartChar: eight
Encoding: 56 56 27
Width: 1230
Flags: W
LayerCount: 2
Fore
SplineSet
14 927 m 0,0,1
 14 1064 14 1064 95 1159 c 128,-1,2
 176 1254 176 1254 314 1303 c 128,-1,3
 452 1352 452 1352 622 1352 c 0,4,5
 782 1352 782 1352 902.5 1313 c 128,-1,6
 1023 1274 1023 1274 1090.5 1199.5 c 128,-1,7
 1158 1125 1158 1125 1158 1020 c 0,8,9
 1158 935 1158 935 1113.5 882.5 c 128,-1,10
 1069 830 1069 830 1024 798 c 0,11,12
 994 776 994 776 994 774 c 0,13,14
 994 769 994 769 999 767 c 128,-1,15
 1004 765 1004 765 1012 759 c 0,16,17
 1097 702 1097 702 1140.5 654.5 c 128,-1,18
 1184 607 1184 607 1200 553 c 128,-1,19
 1216 499 1216 499 1216 422 c 0,20,21
 1216 293 1216 293 1140 190 c 128,-1,22
 1064 87 1064 87 927 27 c 128,-1,23
 790 -33 790 -33 608 -33 c 0,24,25
 431 -33 431 -33 299 20 c 128,-1,26
 167 73 167 73 93.5 161.5 c 128,-1,27
 20 250 20 250 20 356 c 0,28,29
 20 455 20 455 65.5 519 c 128,-1,30
 111 583 111 583 160 611 c 0,31,32
 164 613 164 613 171 619.5 c 128,-1,33
 178 626 178 626 178 632 c 0,34,35
 178 643 178 643 136 671 c 0,36,37
 72 715 72 715 43 783 c 128,-1,38
 14 851 14 851 14 927 c 0,0,1
736 920 m 0,39,40
 750 938 750 938 758 965 c 128,-1,41
 766 992 766 992 766 1014 c 0,42,43
 766 1073 766 1073 721 1107.5 c 128,-1,44
 676 1142 676 1142 610 1142 c 0,45,46
 574 1142 574 1142 541 1120.5 c 128,-1,47
 508 1099 508 1099 508 1064 c 0,48,49
 508 1039 508 1039 534.5 1007 c 128,-1,50
 561 975 561 975 660 921 c 0,51,52
 681 910 681 910 689.5 907 c 128,-1,53
 698 904 698 904 708 904 c 0,54,55
 724 904 724 904 736 920 c 0,39,40
389 494 m 0,56,57
 382 488 382 488 377 473.5 c 128,-1,58
 372 459 372 459 372 427 c 0,59,60
 372 360 372 360 405 306.5 c 128,-1,61
 438 253 438 253 490 222 c 128,-1,62
 542 191 542 191 598 191 c 0,63,64
 675 191 675 191 710.5 222.5 c 128,-1,65
 746 254 746 254 746 287 c 0,66,67
 746 335 746 335 687.5 385 c 128,-1,68
 629 435 629 435 468 479 c 0,69,70
 446 485 446 485 431 492.5 c 128,-1,71
 416 500 416 500 404 500 c 0,72,73
 395 500 395 500 389 494 c 0,56,57
EndSplineSet
EndChar

StartChar: nine
Encoding: 57 57 28
Width: 1230
Flags: W
LayerCount: 2
Fore
SplineSet
1210 728 m 0,0,1
 1210 583 1210 583 1170 437 c 128,-1,2
 1130 291 1130 291 1067.5 160.5 c 128,-1,3
 1005 30 1005 30 936 -71 c 128,-1,4
 867 -172 867 -172 808 -228 c 0,5,6
 785 -250 785 -250 754.5 -259.5 c 128,-1,7
 724 -269 724 -269 698 -269 c 0,8,9
 666 -269 666 -269 613.5 -250 c 128,-1,10
 561 -231 561 -231 512 -211 c 0,11,12
 468 -192 468 -192 455 -172 c 128,-1,13
 442 -152 442 -152 442 -130 c 0,14,15
 442 -103 442 -103 476 -71 c 0,16,17
 523 -26 523 -26 565 29 c 128,-1,18
 607 84 607 84 640 152 c 0,19,20
 645 161 645 161 648.5 176.5 c 128,-1,21
 652 192 652 192 652 197 c 0,22,23
 652 211 652 211 642.5 222.5 c 128,-1,24
 633 234 633 234 620 234 c 0,25,26
 614 234 614 234 599 231.5 c 128,-1,27
 584 229 584 229 564 225 c 0,28,29
 529 218 529 218 498 215.5 c 128,-1,30
 467 213 467 213 420 213 c 0,31,32
 348 213 348 213 277 249.5 c 128,-1,33
 206 286 206 286 148 351.5 c 128,-1,34
 90 417 90 417 55 505.5 c 128,-1,35
 20 594 20 594 20 699 c 0,36,37
 20 854 20 854 100.5 974 c 128,-1,38
 181 1094 181 1094 316.5 1163 c 128,-1,39
 452 1232 452 1232 618 1232 c 0,40,41
 713 1232 713 1232 816 1207 c 128,-1,42
 919 1182 919 1182 1008.5 1124 c 128,-1,43
 1098 1066 1098 1066 1154 969 c 128,-1,44
 1210 872 1210 872 1210 728 c 0,0,1
760 661 m 0,45,46
 760 773 760 773 709.5 844.5 c 128,-1,47
 659 916 659 916 590 916 c 0,48,49
 551 916 551 916 530.5 888 c 128,-1,50
 510 860 510 860 510 823 c 0,51,52
 510 696 510 696 561.5 624.5 c 128,-1,53
 613 553 613 553 674 553 c 0,54,55
 713 553 713 553 736.5 581 c 128,-1,56
 760 609 760 609 760 661 c 0,45,46
EndSplineSet
EndChar

StartChar: less
Encoding: 60 60 31
Width: 1084
Flags: W
LayerCount: 2
Fore
SplineSet
555 182 m 2,0,-1
 531 190 l 2,1,2
 392 238 392 238 275.5 275 c 128,-1,3
 159 312 159 312 109 326 c 0,4,5
 91 331 91 331 85.5 337.5 c 128,-1,6
 80 344 80 344 80 359 c 2,7,-1
 80 728 l 2,8,9
 80 743 80 743 85.5 750 c 128,-1,10
 91 757 91 757 109 761 c 0,11,12
 159 773 159 773 275.5 811 c 128,-1,13
 392 849 392 849 531 897 c 2,14,-1
 555 905 l 2,15,16
 701 955 701 955 773.5 985.5 c 128,-1,17
 846 1016 846 1016 895 1030 c 0,18,19
 904 1032 904 1032 915 1034 c 128,-1,20
 926 1036 926 1036 936 1030 c 256,21,22
 946 1024 946 1024 958.5 987 c 128,-1,23
 971 950 971 950 983 903 c 128,-1,24
 995 856 995 856 1002.5 816.5 c 128,-1,25
 1010 777 1010 777 1010 765 c 0,26,27
 1010 749 1010 749 997.5 742.5 c 128,-1,28
 985 736 985 736 971 732 c 0,29,30
 922 718 922 718 851 697.5 c 128,-1,31
 780 677 780 677 716 654 c 2,32,-1
 696 647 l 2,33,34
 593 611 593 611 529.5 583.5 c 128,-1,35
 466 556 466 556 419 544 c 1,36,37
 466 531 466 531 529.5 503.5 c 128,-1,38
 593 476 593 476 696 440 c 2,39,-1
 716 433 l 2,40,41
 780 410 780 410 851 389.5 c 128,-1,42
 922 369 922 369 971 355 c 0,43,44
 985 351 985 351 997.5 344.5 c 128,-1,45
 1010 338 1010 338 1010 322 c 0,46,47
 1010 310 1010 310 1002.5 270.5 c 128,-1,48
 995 231 995 231 983 184 c 128,-1,49
 971 137 971 137 958.5 100 c 128,-1,50
 946 63 946 63 936 57 c 256,51,52
 926 51 926 51 915 53 c 128,-1,53
 904 55 904 55 895 57 c 0,54,55
 846 71 846 71 773.5 102 c 128,-1,56
 701 133 701 133 555 182 c 2,0,-1
EndSplineSet
EndChar

StartChar: equal
Encoding: 61 61 32
Width: 1124
Flags: W
LayerCount: 2
Fore
SplineSet
551 558 m 2,0,1
 438 558 438 558 365.5 556.5 c 128,-1,2
 293 555 293 555 245.5 553 c 128,-1,3
 198 551 198 551 160 551 c 0,4,5
 100 551 100 551 100 595 c 2,6,-1
 100 815 l 2,7,8
 100 859 100 859 160 859 c 0,9,10
 198 859 198 859 245.5 857.5 c 128,-1,11
 293 856 293 856 365.5 854 c 128,-1,12
 438 852 438 852 551 852 c 2,13,-1
 572 852 l 2,14,15
 685 852 685 852 758 854 c 128,-1,16
 831 856 831 856 878.5 857.5 c 128,-1,17
 926 859 926 859 964 859 c 0,18,19
 1024 859 1024 859 1024 815 c 2,20,-1
 1024 595 l 2,21,22
 1024 551 1024 551 964 551 c 0,23,24
 926 551 926 551 878.5 553 c 128,-1,25
 831 555 831 555 758 556.5 c 128,-1,26
 685 558 685 558 572 558 c 2,27,-1
 551 558 l 2,0,1
551 168 m 2,28,29
 438 168 438 168 365.5 166.5 c 128,-1,30
 293 165 293 165 245.5 163 c 128,-1,31
 198 161 198 161 160 161 c 0,32,33
 100 161 100 161 100 205 c 2,34,-1
 100 425 l 2,35,36
 100 469 100 469 160 469 c 0,37,38
 198 469 198 469 245.5 467.5 c 128,-1,39
 293 466 293 466 365.5 464 c 128,-1,40
 438 462 438 462 551 462 c 2,41,-1
 572 462 l 2,42,43
 685 462 685 462 758 464 c 128,-1,44
 831 466 831 466 878.5 467.5 c 128,-1,45
 926 469 926 469 964 469 c 0,46,47
 1024 469 1024 469 1024 425 c 2,48,-1
 1024 205 l 2,49,50
 1024 161 1024 161 964 161 c 0,51,52
 926 161 926 161 878.5 163 c 128,-1,53
 831 165 831 165 758 166.5 c 128,-1,54
 685 168 685 168 572 168 c 2,55,-1
 551 168 l 2,28,29
EndSplineSet
EndChar

StartChar: greater
Encoding: 62 62 33
Width: 1084
Flags: W
LayerCount: 2
Fore
SplineSet
529 182 m 2,0,1
 384 133 384 133 311.5 102 c 128,-1,2
 239 71 239 71 189 57 c 0,3,4
 180 55 180 55 169 53 c 128,-1,5
 158 51 158 51 148 57 c 256,6,7
 138 63 138 63 125.5 100 c 128,-1,8
 113 137 113 137 101 184 c 128,-1,9
 89 231 89 231 81.5 270.5 c 128,-1,10
 74 310 74 310 74 322 c 0,11,12
 74 338 74 338 87 344.5 c 128,-1,13
 100 351 100 351 113 355 c 0,14,15
 163 369 163 369 233.5 389.5 c 128,-1,16
 304 410 304 410 368 433 c 2,17,-1
 388 440 l 2,18,19
 491 476 491 476 555 503.5 c 128,-1,20
 619 531 619 531 665 543 c 1,21,22
 619 556 619 556 555 583.5 c 128,-1,23
 491 611 491 611 388 647 c 2,24,-1
 368 654 l 2,25,26
 304 677 304 677 233.5 697.5 c 128,-1,27
 163 718 163 718 113 732 c 0,28,29
 100 736 100 736 87 742.5 c 128,-1,30
 74 749 74 749 74 765 c 0,31,32
 74 777 74 777 81.5 816.5 c 128,-1,33
 89 856 89 856 101 903 c 128,-1,34
 113 950 113 950 125.5 987 c 128,-1,35
 138 1024 138 1024 148 1030 c 256,36,37
 158 1036 158 1036 169 1034 c 128,-1,38
 180 1032 180 1032 189 1030 c 0,39,40
 239 1016 239 1016 311.5 985.5 c 128,-1,41
 384 955 384 955 529 905 c 2,42,-1
 553 897 l 2,43,44
 693 849 693 849 809.5 812 c 128,-1,45
 926 775 926 775 975 761 c 0,46,47
 993 757 993 757 998.5 750 c 128,-1,48
 1004 743 1004 743 1004 728 c 2,49,-1
 1004 359 l 2,50,51
 1004 344 1004 344 998.5 337.5 c 128,-1,52
 993 331 993 331 975 326 c 0,53,54
 925 314 925 314 809 276 c 128,-1,55
 693 238 693 238 553 190 c 2,56,-1
 529 182 l 2,0,1
EndSplineSet
EndChar

StartChar: question
Encoding: 63 63 34
Width: 1121
Flags: W
LayerCount: 2
Fore
SplineSet
561 518 m 0,0,1
 482 518 482 518 442.5 562 c 128,-1,2
 403 606 403 606 403 676 c 0,3,4
 403 741 403 741 425 795 c 128,-1,5
 447 849 447 849 476.5 896 c 128,-1,6
 506 943 506 943 528 986.5 c 128,-1,7
 550 1030 550 1030 550 1074 c 0,8,9
 550 1117 550 1117 537 1152 c 128,-1,10
 524 1187 524 1187 491 1187 c 0,11,12
 466 1187 466 1187 455.5 1169.5 c 128,-1,13
 445 1152 445 1152 445 1134 c 0,14,15
 445 1115 445 1115 452.5 1098.5 c 128,-1,16
 460 1082 460 1082 460 1052 c 0,17,18
 460 997 460 997 425.5 952 c 128,-1,19
 391 907 391 907 338.5 880 c 128,-1,20
 286 853 286 853 231 853 c 0,21,22
 142 853 142 853 103 905 c 128,-1,23
 64 957 64 957 64 1032 c 0,24,25
 64 1152 64 1152 132 1247.5 c 128,-1,26
 200 1343 200 1343 320.5 1398.5 c 128,-1,27
 441 1454 441 1454 600 1454 c 0,28,29
 729 1454 729 1454 827 1395.5 c 128,-1,30
 925 1337 925 1337 980.5 1246.5 c 128,-1,31
 1036 1156 1036 1156 1036 1060 c 0,32,33
 1036 981 1036 981 1000 928.5 c 128,-1,34
 964 876 964 876 914.5 840 c 128,-1,35
 865 804 865 804 821.5 774.5 c 128,-1,36
 778 745 778 745 763 711 c 0,37,38
 749 679 749 679 746.5 656 c 128,-1,39
 744 633 744 633 737 610 c 0,40,41
 726 574 726 574 679.5 546 c 128,-1,42
 633 518 633 518 561 518 c 0,0,1
352 225 m 256,43,44
 352 328 352 328 419 399.5 c 128,-1,45
 486 471 486 471 598 471 c 0,46,47
 708 471 708 471 776 399.5 c 128,-1,48
 844 328 844 328 844 225 c 256,49,50
 844 122 844 122 776 50.5 c 128,-1,51
 708 -21 708 -21 598 -21 c 0,52,53
 486 -21 486 -21 419 50.5 c 128,-1,54
 352 122 352 122 352 225 c 256,43,44
EndSplineSet
EndChar

StartChar: at
Encoding: 64 64 35
Width: 1538
Flags: W
LayerCount: 2
Fore
SplineSet
90 412 m 0,0,1
 90 572 90 572 140.5 697 c 128,-1,2
 191 822 191 822 276.5 914.5 c 128,-1,3
 362 1007 362 1007 468.5 1067.5 c 128,-1,4
 575 1128 575 1128 689 1157.5 c 128,-1,5
 803 1187 803 1187 909 1187 c 0,6,7
 1097 1187 1097 1187 1221 1114.5 c 128,-1,8
 1345 1042 1345 1042 1406.5 922.5 c 128,-1,9
 1468 803 1468 803 1468 662 c 0,10,11
 1468 522 1468 522 1405 402.5 c 128,-1,12
 1342 283 1342 283 1231 210 c 128,-1,13
 1120 137 1120 137 976 137 c 0,14,15
 922 137 922 137 891.5 152 c 128,-1,16
 861 167 861 167 854 210 c 0,17,18
 853 217 853 217 851 227.5 c 128,-1,19
 849 238 849 238 847 254 c 256,20,21
 845 270 845 270 829 270 c 0,22,23
 819 270 819 270 810 262 c 128,-1,24
 801 254 801 254 794 247 c 0,25,26
 754 204 754 204 708 174 c 128,-1,27
 662 144 662 144 589 144 c 0,28,29
 504 144 504 144 462 205.5 c 128,-1,30
 420 267 420 267 420 355 c 0,31,32
 420 451 420 451 453.5 543 c 128,-1,33
 487 635 487 635 542.5 708.5 c 128,-1,34
 598 782 598 782 667.5 825.5 c 128,-1,35
 737 869 737 869 809 869 c 0,36,37
 844 869 844 869 873.5 855 c 128,-1,38
 903 841 903 841 926 826 c 0,39,40
 938 818 938 818 953 818 c 0,41,42
 962 818 962 818 972 820.5 c 128,-1,43
 982 823 982 823 998 833 c 0,44,45
 1011 841 1011 841 1020.5 846.5 c 128,-1,46
 1030 852 1030 852 1040 857 c 0,47,48
 1060 867 1060 867 1080.5 871.5 c 128,-1,49
 1101 876 1101 876 1133 876 c 0,50,51
 1170 876 1170 876 1170 838 c 0,52,53
 1170 822 1170 822 1167 794.5 c 128,-1,54
 1164 767 1164 767 1159 727 c 0,55,56
 1148 639 1148 639 1137 560 c 128,-1,57
 1126 481 1126 481 1126 406 c 0,58,59
 1126 360 1126 360 1160 360 c 0,60,61
 1190 360 1190 360 1222 400.5 c 128,-1,62
 1254 441 1254 441 1276 507.5 c 128,-1,63
 1298 574 1298 574 1298 652 c 0,64,65
 1298 826 1298 826 1202 935 c 128,-1,66
 1106 1044 1106 1044 918 1044 c 0,67,68
 813 1044 813 1044 699.5 995.5 c 128,-1,69
 586 947 586 947 488 860 c 128,-1,70
 390 773 390 773 329.5 656 c 128,-1,71
 269 539 269 539 269 402 c 0,72,73
 269 254 269 254 333.5 148 c 128,-1,74
 398 42 398 42 508 -15 c 128,-1,75
 618 -72 618 -72 752 -72 c 0,76,77
 895 -72 895 -72 996.5 -25.5 c 128,-1,78
 1098 21 1098 21 1169 82 c 0,79,80
 1176 88 1176 88 1185 93 c 128,-1,81
 1194 98 1194 98 1204 98 c 0,82,83
 1219 98 1219 98 1239 81 c 128,-1,84
 1259 64 1259 64 1274.5 43 c 128,-1,85
 1290 22 1290 22 1290 10 c 0,86,87
 1290 -5 1290 -5 1280 -15.5 c 128,-1,88
 1270 -26 1270 -26 1260 -34 c 0,89,90
 1209 -76 1209 -76 1135 -119.5 c 128,-1,91
 1061 -163 1061 -163 965.5 -192 c 128,-1,92
 870 -221 870 -221 751 -221 c 0,93,94
 624 -221 624 -221 505.5 -179 c 128,-1,95
 387 -137 387 -137 293.5 -56 c 128,-1,96
 200 25 200 25 145 143 c 128,-1,97
 90 261 90 261 90 412 c 0,0,1
875 718 m 0,98,99
 853 718 853 718 826.5 687.5 c 128,-1,100
 800 657 800 657 775.5 610 c 128,-1,101
 751 563 751 563 735 513 c 128,-1,102
 719 463 719 463 719 423 c 0,103,104
 719 401 719 401 728 381 c 128,-1,105
 737 361 737 361 754 361 c 0,106,107
 773 361 773 361 798.5 391.5 c 128,-1,108
 824 422 824 422 848.5 471 c 128,-1,109
 873 520 873 520 889 575 c 128,-1,110
 905 630 905 630 905 678 c 0,111,112
 905 718 905 718 875 718 c 0,98,99
EndSplineSet
EndChar

StartChar: A
Encoding: 65 65 36
Width: 1714
Flags: W
LayerCount: 2
Fore
SplineSet
499 273 m 2,0,-1
 496 265 l 2,1,2
 492 254 492 254 492 240 c 0,3,4
 492 220 492 220 511 211 c 0,5,6
 529 204 529 204 557.5 196.5 c 128,-1,7
 586 189 586 189 601 179 c 0,8,9
 628 161 628 161 628 111 c 0,10,11
 628 23 628 23 543 -3 c 128,-1,12
 458 -29 458 -29 313 -29 c 0,13,14
 218 -29 218 -29 147.5 -21 c 128,-1,15
 77 -13 77 -13 38.5 16 c 128,-1,16
 0 45 0 45 0 109 c 0,17,18
 0 141 0 141 11.5 159.5 c 128,-1,19
 23 178 23 178 39 188 c 0,20,21
 60 201 60 201 92.5 206 c 128,-1,22
 125 211 125 211 150 239 c 0,23,24
 178 269 178 269 210.5 324 c 128,-1,25
 243 379 243 379 284 472 c 2,26,-1
 467 886 l 2,27,28
 522 1017 522 1017 533.5 1095 c 128,-1,29
 545 1173 545 1173 545 1224 c 0,30,31
 545 1285 545 1285 571.5 1340 c 128,-1,32
 598 1395 598 1395 651 1430.5 c 128,-1,33
 704 1466 704 1466 781 1466 c 0,34,35
 878 1466 878 1466 966.5 1402.5 c 128,-1,36
 1055 1339 1055 1339 1115 1216 c 0,37,38
 1196 1050 1196 1050 1263 914.5 c 128,-1,39
 1330 779 1330 779 1393.5 646.5 c 128,-1,40
 1457 514 1457 514 1527 358 c 0,41,42
 1544 319 1544 319 1558 289 c 128,-1,43
 1572 259 1572 259 1589 244 c 0,44,45
 1613 223 1613 223 1637.5 221.5 c 128,-1,46
 1662 220 1662 220 1686 203 c 0,47,48
 1701 193 1701 193 1707.5 175.5 c 128,-1,49
 1714 158 1714 158 1714 121 c 0,50,51
 1714 92 1714 92 1696 56 c 128,-1,52
 1678 20 1678 20 1606 -2 c 0,53,54
 1559 -17 1559 -17 1481.5 -20 c 128,-1,55
 1404 -23 1404 -23 1290 -23 c 0,56,57
 1170 -23 1170 -23 1088.5 -19.5 c 128,-1,58
 1007 -16 1007 -16 958 2 c 0,59,60
 878 32 878 32 878 102 c 0,61,62
 878 140 878 140 887.5 162.5 c 128,-1,63
 897 185 897 185 910 193 c 0,64,65
 926 203 926 203 942 206 c 128,-1,66
 958 209 958 209 975 217 c 0,67,68
 991 225 991 225 996 235.5 c 128,-1,69
 1001 246 1001 246 1001 253 c 256,70,71
 1001 260 1001 260 1000 266 c 2,72,-1
 999 270 l 2,73,74
 997 278 997 278 988.5 290.5 c 128,-1,75
 980 303 980 303 953 310 c 0,76,77
 927 317 927 317 871.5 320 c 128,-1,78
 816 323 816 323 757 323 c 0,79,80
 705 323 705 323 668 320.5 c 128,-1,81
 631 318 631 318 593 318 c 0,82,83
 543 318 543 318 525 307 c 128,-1,84
 507 296 507 296 499 273 c 2,0,-1
749 614 m 256,85,86
 799 614 799 614 837.5 610 c 128,-1,87
 876 606 876 606 889 606 c 0,88,89
 898 606 898 606 898 616 c 0,90,91
 898 623 898 623 890.5 638.5 c 128,-1,92
 883 654 883 654 877 665 c 2,93,-1
 791 816 l 2,94,95
 764 865 764 865 743 865 c 0,96,97
 730 865 730 865 723 854 c 128,-1,98
 716 843 716 843 701 810 c 2,99,-1
 652 698 l 2,100,101
 644 679 644 679 636.5 660.5 c 128,-1,102
 629 642 629 642 629 631 c 0,103,104
 629 613 629 613 652 613 c 0,105,106
 661 613 661 613 680 613.5 c 128,-1,107
 699 614 699 614 749 614 c 256,85,86
EndSplineSet
EndChar

StartChar: B
Encoding: 66 66 37
Width: 1487
Flags: W
LayerCount: 2
Fore
SplineSet
517 -18 m 0,0,1
 474 -18 474 -18 413 -21 c 128,-1,2
 352 -24 352 -24 289.5 -27 c 128,-1,3
 227 -30 227 -30 179 -30 c 0,4,5
 109 -30 109 -30 74 -5 c 128,-1,6
 39 20 39 20 39 61 c 0,7,8
 39 108 39 108 55 130 c 128,-1,9
 71 152 71 152 108 173 c 0,10,11
 138 191 138 191 156 238.5 c 128,-1,12
 174 286 174 286 182 387.5 c 128,-1,13
 190 489 190 489 190 670 c 2,14,-1
 190 880 l 2,15,16
 190 974 190 974 187.5 1027.5 c 128,-1,17
 185 1081 185 1081 180 1134 c 0,18,19
 177 1165 177 1165 165 1183 c 128,-1,20
 153 1201 153 1201 133 1211 c 0,21,22
 118 1219 118 1219 99 1224.5 c 128,-1,23
 80 1230 80 1230 67 1239 c 0,24,25
 50 1250 50 1250 38.5 1266 c 128,-1,26
 27 1282 27 1282 27 1322 c 0,27,28
 27 1378 27 1378 67 1409 c 128,-1,29
 107 1440 107 1440 187 1440 c 0,30,31
 238 1440 238 1440 281.5 1435.5 c 128,-1,32
 325 1431 325 1431 401 1431 c 0,33,34
 515 1431 515 1431 619 1435.5 c 128,-1,35
 723 1440 723 1440 842 1440 c 0,36,37
 991 1440 991 1440 1103.5 1414 c 128,-1,38
 1216 1388 1216 1388 1279.5 1310.5 c 128,-1,39
 1343 1233 1343 1233 1343 1078 c 0,40,41
 1343 1006 1343 1006 1315.5 947 c 128,-1,42
 1288 888 1288 888 1238 843 c 0,43,44
 1213 821 1213 821 1204 808 c 128,-1,45
 1195 795 1195 795 1195 786 c 0,46,47
 1195 776 1195 776 1212.5 765 c 128,-1,48
 1230 754 1230 754 1257 741 c 0,49,50
 1367 690 1367 690 1413.5 611 c 128,-1,51
 1460 532 1460 532 1460 428 c 0,52,53
 1460 294 1460 294 1397 191 c 128,-1,54
 1334 88 1334 88 1216 30.5 c 128,-1,55
 1098 -27 1098 -27 932 -27 c 0,56,57
 873 -27 873 -27 797.5 -24.5 c 128,-1,58
 722 -22 722 -22 648 -20 c 128,-1,59
 574 -18 574 -18 517 -18 c 0,0,1
710 819 m 0,60,61
 805 819 805 819 833 880.5 c 128,-1,62
 861 942 861 942 861 1032 c 0,63,64
 861 1137 861 1137 818 1176.5 c 128,-1,65
 775 1216 775 1216 713 1216 c 0,66,67
 675 1216 675 1216 670 1198.5 c 128,-1,68
 665 1181 665 1181 663 1139 c 0,69,70
 662 1106 662 1106 662 1079.5 c 128,-1,71
 662 1053 662 1053 662 1024 c 0,72,73
 662 1003 662 1003 662 968.5 c 128,-1,74
 662 934 662 934 662.5 903 c 128,-1,75
 663 872 663 872 664 860 c 0,76,77
 666 835 666 835 677 827 c 128,-1,78
 688 819 688 819 710 819 c 0,60,61
759 198 m 0,79,80
 837 198 837 198 875 251.5 c 128,-1,81
 913 305 913 305 913 387 c 0,82,83
 913 477 913 477 880.5 534.5 c 128,-1,84
 848 592 848 592 780 598 c 0,85,86
 756 600 756 600 733 600 c 0,87,88
 701 600 701 600 687 590 c 128,-1,89
 673 580 673 580 673 549 c 2,90,-1
 673 405 l 2,91,92
 673 365 673 365 674 322.5 c 128,-1,93
 675 280 675 280 680 258 c 0,94,95
 686 230 686 230 701 214 c 128,-1,96
 716 198 716 198 759 198 c 0,79,80
EndSplineSet
EndChar

StartChar: C
Encoding: 67 67 38
Width: 1476
Flags: W
LayerCount: 2
Fore
SplineSet
789 -30 m 0,0,1
 566 -30 566 -30 399.5 64 c 128,-1,2
 233 158 233 158 141.5 320.5 c 128,-1,3
 50 483 50 483 50 688 c 0,4,5
 50 829 50 829 98.5 961.5 c 128,-1,6
 147 1094 147 1094 242.5 1199.5 c 128,-1,7
 338 1305 338 1305 477.5 1367 c 128,-1,8
 617 1429 617 1429 799 1429 c 0,9,10
 897 1429 897 1429 956.5 1418 c 128,-1,11
 1016 1407 1016 1407 1052 1392.5 c 128,-1,12
 1088 1378 1088 1378 1112.5 1367 c 128,-1,13
 1137 1356 1137 1356 1163 1356 c 0,14,15
 1190 1356 1190 1356 1204.5 1366.5 c 128,-1,16
 1219 1377 1219 1377 1262 1377 c 0,17,18
 1317 1377 1317 1377 1359 1318.5 c 128,-1,19
 1401 1260 1401 1260 1425 1174 c 128,-1,20
 1449 1088 1449 1088 1449 1005 c 0,21,22
 1449 924 1449 924 1419.5 877 c 128,-1,23
 1390 830 1390 830 1344.5 809.5 c 128,-1,24
 1299 789 1299 789 1251 789 c 0,25,26
 1180 789 1180 789 1147 824.5 c 128,-1,27
 1114 860 1114 860 1078 936 c 0,28,29
 1054 986 1054 986 1004.5 1028.5 c 128,-1,30
 955 1071 955 1071 894 1096.5 c 128,-1,31
 833 1122 833 1122 774 1122 c 0,32,33
 665 1122 665 1122 612 1052 c 128,-1,34
 559 982 559 982 559 878 c 0,35,36
 559 713 559 713 619 596.5 c 128,-1,37
 679 480 679 480 774 418 c 128,-1,38
 869 356 869 356 972 356 c 0,39,40
 1047 356 1047 356 1097.5 371.5 c 128,-1,41
 1148 387 1148 387 1186.5 412.5 c 128,-1,42
 1225 438 1225 438 1263 468 c 0,43,44
 1282 483 1282 483 1301 492.5 c 128,-1,45
 1320 502 1320 502 1347 502 c 0,46,47
 1377 502 1377 502 1407 466.5 c 128,-1,48
 1437 431 1437 431 1437 377 c 0,49,50
 1437 298 1437 298 1402 231.5 c 128,-1,51
 1367 165 1367 165 1337 132 c 0,52,53
 1329 123 1329 123 1317.5 113.5 c 128,-1,54
 1306 104 1306 104 1289 97 c 0,55,56
 1275 92 1275 92 1257.5 87 c 128,-1,57
 1240 82 1240 82 1219 81 c 0,58,59
 1188 80 1188 80 1138 52.5 c 128,-1,60
 1088 25 1088 25 1004.5 -2.5 c 128,-1,61
 921 -30 921 -30 789 -30 c 0,0,1
EndSplineSet
EndChar

StartChar: D
Encoding: 68 68 39
Width: 1691
Flags: W
LayerCount: 2
Fore
SplineSet
693 -28 m 0,0,1
 619 -28 619 -28 570 -26.5 c 128,-1,2
 521 -25 521 -25 480.5 -24 c 128,-1,3
 440 -23 440 -23 389 -23 c 0,4,5
 340 -23 340 -23 297.5 -28.5 c 128,-1,6
 255 -34 255 -34 184 -34 c 0,7,8
 114 -34 114 -34 70.5 4 c 128,-1,9
 27 42 27 42 27 92 c 0,10,11
 27 139 27 139 54 164 c 0,12,13
 72 180 72 180 101.5 185 c 128,-1,14
 131 190 131 190 148 204 c 256,15,16
 165 218 165 218 171 236 c 128,-1,17
 177 254 177 254 179 272 c 0,18,19
 185 318 185 318 192.5 415.5 c 128,-1,20
 200 513 200 513 200 660 c 2,21,-1
 200 900 l 2,22,23
 200 1026 200 1026 193 1095 c 128,-1,24
 186 1164 186 1164 161 1194 c 0,25,26
 143 1216 143 1216 118 1221 c 128,-1,27
 93 1226 93 1226 78 1241 c 0,28,29
 66 1254 66 1254 57.5 1273 c 128,-1,30
 49 1292 49 1292 49 1327 c 0,31,32
 49 1383 49 1383 93.5 1416 c 128,-1,33
 138 1449 138 1449 218 1449 c 0,34,35
 269 1449 269 1449 348.5 1448 c 128,-1,36
 428 1447 428 1447 504 1447 c 0,37,38
 568 1447 568 1447 628.5 1450 c 128,-1,39
 689 1453 689 1453 762.5 1456 c 128,-1,40
 836 1459 836 1459 937 1459 c 0,41,42
 1161 1459 1161 1459 1318 1364 c 128,-1,43
 1475 1269 1475 1269 1558 1105.5 c 128,-1,44
 1641 942 1641 942 1641 737 c 0,45,46
 1641 604 1641 604 1603 471 c 128,-1,47
 1565 338 1565 338 1480 226.5 c 128,-1,48
 1395 115 1395 115 1253 46 c 0,49,50
 1146 -6 1146 -6 998.5 -17 c 128,-1,51
 851 -28 851 -28 693 -28 c 0,0,1
823 219 m 0,52,53
 873 219 873 219 912 236.5 c 128,-1,54
 951 254 951 254 980 284 c 0,55,56
 1025 328 1025 328 1050.5 390.5 c 128,-1,57
 1076 453 1076 453 1086.5 516.5 c 128,-1,58
 1097 580 1097 580 1097 627 c 0,59,60
 1097 920 1097 920 1022.5 1059.5 c 128,-1,61
 948 1199 948 1199 783 1199 c 0,62,63
 726 1199 726 1199 711 1188 c 0,64,65
 698 1178 698 1178 697 1152 c 128,-1,66
 696 1126 696 1126 695 1098 c 0,67,68
 694 1025 694 1025 693.5 943 c 128,-1,69
 693 861 693 861 693 778 c 0,70,71
 693 702 693 702 694 650 c 128,-1,72
 695 598 695 598 696.5 553 c 128,-1,73
 698 508 698 508 700 455 c 128,-1,74
 702 402 702 402 705 325 c 0,75,76
 707 285 707 285 711 269 c 128,-1,77
 715 253 715 253 725 239 c 0,78,79
 735 226 735 226 762.5 222.5 c 128,-1,80
 790 219 790 219 823 219 c 0,52,53
EndSplineSet
EndChar

StartChar: E
Encoding: 69 69 40
Width: 1406
Flags: W
LayerCount: 2
Fore
SplineSet
364 -23 m 2,0,1
 300 -23 300 -23 237.5 -25.5 c 128,-1,2
 175 -28 175 -28 111 -28 c 0,3,4
 65 -28 65 -28 48 1.5 c 128,-1,5
 31 31 31 31 31 64 c 0,6,7
 31 101 31 101 43.5 121.5 c 128,-1,8
 56 142 56 142 90 149 c 0,9,10
 134 159 134 159 153 200 c 0,11,12
 162 220 162 220 174 264 c 128,-1,13
 186 308 186 308 190 378 c 0,14,15
 194 460 194 460 197 517.5 c 128,-1,16
 200 575 200 575 201 638 c 128,-1,17
 202 701 202 701 202 800 c 0,18,19
 202 896 202 896 199 954 c 128,-1,20
 196 1012 196 1012 191 1049.5 c 128,-1,21
 186 1087 186 1087 180 1120 c 0,22,23
 174 1156 174 1156 160.5 1177.5 c 128,-1,24
 147 1199 147 1199 130 1211 c 0,25,26
 112 1223 112 1223 91 1228 c 128,-1,27
 70 1233 70 1233 55 1244 c 0,28,29
 42 1253 42 1253 34.5 1267.5 c 128,-1,30
 27 1282 27 1282 27 1307 c 0,31,32
 27 1378 27 1378 74 1406 c 128,-1,33
 121 1434 121 1434 239 1434 c 0,34,35
 290 1434 290 1434 346.5 1432 c 128,-1,36
 403 1430 403 1430 449 1430 c 2,37,-1
 964 1430 l 2,38,39
 1018 1430 1018 1430 1045.5 1434 c 128,-1,40
 1073 1438 1073 1438 1088.5 1443 c 128,-1,41
 1104 1448 1104 1448 1119 1452 c 128,-1,42
 1134 1456 1134 1456 1163 1456 c 0,43,44
 1210 1456 1210 1456 1245 1411 c 128,-1,45
 1280 1366 1280 1366 1300 1289.5 c 128,-1,46
 1320 1213 1320 1213 1320 1118 c 0,47,48
 1320 1063 1320 1063 1287.5 1031.5 c 128,-1,49
 1255 1000 1255 1000 1204 1000 c 0,50,51
 1167 1000 1167 1000 1150.5 1017.5 c 128,-1,52
 1134 1035 1134 1035 1104 1087 c 0,53,54
 1082 1127 1082 1127 1050.5 1149.5 c 128,-1,55
 1019 1172 1019 1172 964 1186 c 0,56,57
 926 1195 926 1195 891 1197.5 c 128,-1,58
 856 1200 856 1200 809 1200 c 0,59,60
 715 1200 715 1200 685.5 1182 c 128,-1,61
 656 1164 656 1164 649 1143 c 256,62,63
 642 1122 642 1122 640.5 1056 c 128,-1,64
 639 990 639 990 639 898 c 0,65,66
 639 863 639 863 642.5 847 c 128,-1,67
 646 831 646 831 667 825 c 0,68,69
 689 819 689 819 710.5 818 c 128,-1,70
 732 817 732 817 758 817 c 0,71,72
 791 817 791 817 810 837 c 128,-1,73
 829 857 829 857 831 885 c 0,74,75
 833 915 833 915 835.5 933.5 c 128,-1,76
 838 952 838 952 842 971 c 0,77,78
 847 996 847 996 865 1017.5 c 128,-1,79
 883 1039 883 1039 926 1039 c 0,80,81
 991 1039 991 1039 1021.5 961.5 c 128,-1,82
 1052 884 1052 884 1052 716 c 0,83,84
 1052 532 1052 532 1011.5 462 c 128,-1,85
 971 392 971 392 908 392 c 0,86,87
 841 392 841 392 841 497 c 0,88,89
 841 532 841 532 823.5 566.5 c 128,-1,90
 806 601 806 601 739 601 c 0,91,92
 698 601 698 601 682 594.5 c 128,-1,93
 666 588 666 588 659 570 c 0,94,95
 651 550 651 550 651 511 c 128,-1,96
 651 472 651 472 651 446 c 0,97,98
 651 400 651 400 655.5 358 c 128,-1,99
 660 316 660 316 673 244 c 0,100,101
 676 228 676 228 682 220.5 c 128,-1,102
 688 213 688 213 708 209 c 0,103,104
 737 203 737 203 772 201.5 c 128,-1,105
 807 200 807 200 849 200 c 0,106,107
 913 200 913 200 947.5 204.5 c 128,-1,108
 982 209 982 209 1014 216 c 0,109,110
 1043 223 1043 223 1082 254 c 128,-1,111
 1121 285 1121 285 1148 323 c 0,112,113
 1174 360 1174 360 1187 394.5 c 128,-1,114
 1200 429 1200 429 1220.5 451.5 c 128,-1,115
 1241 474 1241 474 1286 474 c 0,116,117
 1352 474 1352 474 1371.5 431 c 128,-1,118
 1391 388 1391 388 1391 329 c 0,119,120
 1391 279 1391 279 1373.5 215 c 128,-1,121
 1356 151 1356 151 1328.5 91.5 c 128,-1,122
 1301 32 1301 32 1271 -7 c 128,-1,123
 1241 -46 1241 -46 1216 -46 c 0,124,125
 1183 -46 1183 -46 1110.5 -33.5 c 128,-1,126
 1038 -21 1038 -21 934 -21 c 0,127,128
 846 -21 846 -21 765.5 -22 c 128,-1,129
 685 -23 685 -23 621 -23 c 2,130,-1
 364 -23 l 2,0,1
EndSplineSet
EndChar

StartChar: F
Encoding: 70 70 41
Width: 1311
Flags: W
LayerCount: 2
Fore
SplineSet
420 -40 m 0,0,1
 366 -40 366 -40 301 -37 c 128,-1,2
 236 -34 236 -34 177.5 -24.5 c 128,-1,3
 119 -15 119 -15 81 6 c 0,4,5
 27 35 27 35 27 99 c 0,6,7
 27 133 27 133 38.5 147.5 c 128,-1,8
 50 162 50 162 62 172 c 0,9,10
 77 183 77 183 97.5 189 c 128,-1,11
 118 195 118 195 136 208 c 0,12,13
 150 219 150 219 156.5 232.5 c 128,-1,14
 163 246 163 246 168 268 c 0,15,16
 175 301 175 301 179.5 393.5 c 128,-1,17
 184 486 184 486 184 590 c 2,18,-1
 184 870 l 2,19,20
 184 1001 184 1001 177.5 1067.5 c 128,-1,21
 171 1134 171 1134 160.5 1160.5 c 128,-1,22
 150 1187 150 1187 136 1196 c 0,23,24
 124 1205 124 1205 99 1212 c 128,-1,25
 74 1219 74 1219 63 1229 c 0,26,27
 54 1238 54 1238 44.5 1253.5 c 128,-1,28
 35 1269 35 1269 35 1303 c 0,29,30
 35 1359 35 1359 79 1389 c 128,-1,31
 123 1419 123 1419 181 1419 c 0,32,33
 232 1419 232 1419 321 1416 c 128,-1,34
 410 1413 410 1413 486 1413 c 0,35,36
 547 1413 547 1413 637 1413.5 c 128,-1,37
 727 1414 727 1414 817 1414.5 c 128,-1,38
 907 1415 907 1415 966 1415 c 0,39,40
 1036 1415 1036 1415 1079.5 1424.5 c 128,-1,41
 1123 1434 1123 1434 1158 1434 c 0,42,43
 1199 1434 1199 1434 1236 1383 c 128,-1,44
 1273 1332 1273 1332 1297 1255.5 c 128,-1,45
 1321 1179 1321 1179 1321 1104 c 0,46,47
 1321 1041 1321 1041 1294.5 1004.5 c 128,-1,48
 1268 968 1268 968 1218 968 c 0,49,50
 1173 968 1173 968 1149 994 c 128,-1,51
 1125 1020 1125 1020 1099 1053 c 0,52,53
 1071 1089 1071 1089 1036.5 1115.5 c 128,-1,54
 1002 1142 1002 1142 952 1154 c 0,55,56
 906 1165 906 1165 854.5 1170.5 c 128,-1,57
 803 1176 803 1176 756 1176 c 0,58,59
 707 1176 707 1176 686 1162 c 128,-1,60
 665 1148 665 1148 660 1104 c 0,61,62
 656 1063 656 1063 653.5 1041 c 128,-1,63
 651 1019 651 1019 650 998 c 0,64,65
 649 983 649 983 647.5 957 c 128,-1,66
 646 931 646 931 646 908 c 0,67,68
 646 873 646 873 650.5 860 c 128,-1,69
 655 847 655 847 684 842 c 0,70,71
 703 839 703 839 716.5 837.5 c 128,-1,72
 730 836 730 836 746 836 c 0,73,74
 775 836 775 836 796.5 854.5 c 128,-1,75
 818 873 818 873 824 898 c 0,76,77
 829 917 829 917 829.5 937.5 c 128,-1,78
 830 958 830 958 835 970 c 0,79,80
 842 987 842 987 860.5 1005 c 128,-1,81
 879 1023 879 1023 920 1023 c 0,82,83
 962 1023 962 1023 989.5 978 c 128,-1,84
 1017 933 1017 933 1031 860.5 c 128,-1,85
 1045 788 1045 788 1045 706 c 0,86,87
 1045 618 1045 618 1034.5 538.5 c 128,-1,88
 1024 459 1024 459 996 409 c 128,-1,89
 968 359 968 359 916 359 c 0,90,91
 837 359 837 359 822 429 c 0,92,93
 818 447 818 447 820 479.5 c 128,-1,94
 822 512 822 512 816 531 c 0,95,96
 807 560 807 560 782 575 c 0,97,98
 768 583 768 583 743 586 c 0,99,100
 716 589 716 589 690 589 c 0,101,102
 668 589 668 589 660 578 c 128,-1,103
 652 567 652 567 652 549 c 0,104,105
 652 519 652 519 651 494.5 c 128,-1,106
 650 470 650 470 650 436 c 2,107,-1
 650 328 l 2,108,109
 650 276 650 276 663 248.5 c 128,-1,110
 676 221 676 221 696 207 c 0,111,112
 716 192 716 192 742.5 190 c 128,-1,113
 769 188 769 188 789 176 c 0,114,115
 807 166 807 166 819.5 146.5 c 128,-1,116
 832 127 832 127 832 95 c 0,117,118
 832 15 832 15 753 -14 c 0,119,120
 710 -30 710 -30 618.5 -35 c 128,-1,121
 527 -40 527 -40 420 -40 c 0,0,1
EndSplineSet
EndChar

StartChar: G
Encoding: 71 71 42
Width: 1642
Flags: W
LayerCount: 2
Fore
SplineSet
818 -39 m 0,0,1
 590 -39 590 -39 417 48 c 128,-1,2
 244 135 244 135 147 299 c 128,-1,3
 50 463 50 463 50 693 c 0,4,5
 50 834 50 834 98.5 967.5 c 128,-1,6
 147 1101 147 1101 242 1207.5 c 128,-1,7
 337 1314 337 1314 476.5 1376.5 c 128,-1,8
 616 1439 616 1439 798 1439 c 0,9,10
 908 1439 908 1439 969 1425.5 c 128,-1,11
 1030 1412 1030 1412 1063 1398 c 128,-1,12
 1096 1384 1096 1384 1121 1384 c 0,13,14
 1144 1384 1144 1384 1158 1390 c 128,-1,15
 1172 1396 1172 1396 1190 1401.5 c 128,-1,16
 1208 1407 1208 1407 1242 1407 c 0,17,18
 1282 1407 1282 1407 1331 1365 c 128,-1,19
 1380 1323 1380 1323 1416 1252 c 128,-1,20
 1452 1181 1452 1181 1452 1093 c 0,21,22
 1452 972 1452 972 1397.5 926.5 c 128,-1,23
 1343 881 1343 881 1272 881 c 256,24,25
 1201 881 1201 881 1161.5 918 c 128,-1,26
 1122 955 1122 955 1100 989 c 0,27,28
 1045 1073 1045 1073 975 1117.5 c 128,-1,29
 905 1162 905 1162 817 1162 c 0,30,31
 716 1162 716 1162 644 1072 c 128,-1,32
 572 982 572 982 572 818 c 0,33,34
 572 638 572 638 626.5 512 c 128,-1,35
 681 386 681 386 764 320.5 c 128,-1,36
 847 255 847 255 930 255 c 0,37,38
 980 255 980 255 1006.5 288 c 128,-1,39
 1033 321 1033 321 1033 359 c 0,40,41
 1033 398 1033 398 1022 416 c 128,-1,42
 1011 434 1011 434 991 442 c 0,43,44
 969 451 969 451 931 448.5 c 128,-1,45
 893 446 893 446 866 460 c 0,46,47
 847 470 847 470 834 491.5 c 128,-1,48
 821 513 821 513 821 549 c 0,49,50
 821 591 821 591 836 615 c 128,-1,51
 851 639 851 639 880 657 c 0,52,53
 940 696 940 696 1045.5 711.5 c 128,-1,54
 1151 727 1151 727 1267 727 c 0,55,56
 1456 727 1456 727 1545 678 c 0,57,58
 1622 636 1622 636 1622 558 c 0,59,60
 1622 523 1622 523 1607 500 c 128,-1,61
 1592 477 1592 477 1577 468 c 0,62,63
 1555 455 1555 455 1530.5 454 c 128,-1,64
 1506 453 1506 453 1485 439 c 0,65,66
 1471 429 1471 429 1465 409 c 128,-1,67
 1459 389 1459 389 1454 357 c 0,68,69
 1447 315 1447 315 1431 279.5 c 128,-1,70
 1415 244 1415 244 1396 213 c 0,71,72
 1356 148 1356 148 1291.5 90.5 c 128,-1,73
 1227 33 1227 33 1114.5 -3 c 128,-1,74
 1002 -39 1002 -39 818 -39 c 0,0,1
EndSplineSet
EndChar

StartChar: H
Encoding: 72 72 43
Width: 1598
Flags: W
LayerCount: 2
Fore
SplineSet
171 591 m 2,0,-1
 171 841 l 2,1,2
 171 996 171 996 165.5 1078 c 128,-1,3
 160 1160 160 1160 129 1171 c 0,4,5
 107 1179 107 1179 89.5 1183.5 c 128,-1,6
 72 1188 72 1188 57 1199 c 0,7,8
 43 1210 43 1210 36.5 1230.5 c 128,-1,9
 30 1251 30 1251 30 1265 c 0,10,11
 30 1328 30 1328 76 1365 c 0,12,13
 116 1397 116 1397 196.5 1412.5 c 128,-1,14
 277 1428 277 1428 409 1428 c 0,15,16
 519 1428 519 1428 589 1420 c 128,-1,17
 659 1412 659 1412 699 1391 c 0,18,19
 734 1373 734 1373 748.5 1344 c 128,-1,20
 763 1315 763 1315 763 1271 c 0,21,22
 763 1246 763 1246 751.5 1228 c 128,-1,23
 740 1210 740 1210 725 1198 c 0,24,25
 709 1185 709 1185 695 1182.5 c 128,-1,26
 681 1180 681 1180 667 1167 c 0,27,28
 649 1151 649 1151 641 1108 c 128,-1,29
 633 1065 633 1065 633 974 c 0,30,31
 633 919 633 919 638.5 897 c 128,-1,32
 644 875 644 875 677 873 c 0,33,34
 706 872 706 872 738.5 870.5 c 128,-1,35
 771 869 771 869 787 869 c 0,36,37
 823 869 823 869 852 870 c 128,-1,38
 881 871 881 871 913 875 c 0,39,40
 948 879 948 879 961.5 888.5 c 128,-1,41
 975 898 975 898 975 943 c 0,42,43
 975 1042 975 1042 951 1136 c 0,44,45
 945 1158 945 1158 938.5 1166.5 c 128,-1,46
 932 1175 932 1175 915 1183 c 0,47,48
 903 1189 903 1189 889.5 1196.5 c 128,-1,49
 876 1204 876 1204 865 1216 c 0,50,51
 858 1224 858 1224 852 1240.5 c 128,-1,52
 846 1257 846 1257 846 1279 c 0,53,54
 846 1342 846 1342 880.5 1369 c 128,-1,55
 915 1396 915 1396 965 1410 c 0,56,57
 1009 1423 1009 1423 1069.5 1427.5 c 128,-1,58
 1130 1432 1130 1432 1198 1432 c 0,59,60
 1315 1432 1315 1432 1385.5 1422 c 128,-1,61
 1456 1412 1456 1412 1489 1397 c 0,62,63
 1528 1380 1528 1380 1549.5 1354 c 128,-1,64
 1571 1328 1571 1328 1571 1287 c 0,65,66
 1571 1269 1571 1269 1566 1247.5 c 128,-1,67
 1561 1226 1561 1226 1547 1212 c 0,68,69
 1531 1196 1531 1196 1506.5 1187.5 c 128,-1,70
 1482 1179 1482 1179 1465 1168 c 0,71,72
 1450 1158 1450 1158 1442 1124.5 c 128,-1,73
 1434 1091 1434 1091 1431 1018 c 128,-1,74
 1428 945 1428 945 1428 814 c 2,75,-1
 1428 614 l 2,76,77
 1428 429 1428 429 1437.5 346 c 128,-1,78
 1447 263 1447 263 1463 243 c 0,79,80
 1474 228 1474 228 1492.5 223.5 c 128,-1,81
 1511 219 1511 219 1528 204 c 0,82,83
 1541 192 1541 192 1550 173 c 128,-1,84
 1559 154 1559 154 1559 129 c 0,85,86
 1559 68 1559 68 1507 34 c 0,87,88
 1473 11 1473 11 1412 -2 c 128,-1,89
 1351 -15 1351 -15 1251 -15 c 0,90,91
 1103 -15 1103 -15 1026 -8 c 128,-1,92
 949 -1 949 -1 901 23 c 0,93,94
 873 37 873 37 858.5 58.5 c 128,-1,95
 844 80 844 80 844 121 c 0,96,97
 844 147 844 147 850.5 165 c 128,-1,98
 857 183 857 183 865 194 c 0,99,100
 878 209 878 209 892.5 216 c 128,-1,101
 907 223 907 223 923 235 c 0,102,103
 934 242 934 242 944 253 c 128,-1,104
 954 264 954 264 957 282 c 0,105,106
 962 305 962 305 964.5 327.5 c 128,-1,107
 967 350 967 350 967 397 c 0,108,109
 967 428 967 428 967.5 466.5 c 128,-1,110
 968 505 968 505 968 541 c 0,111,112
 968 573 968 573 958.5 582 c 128,-1,113
 949 591 949 591 918 593 c 0,114,115
 885 595 885 595 856.5 595.5 c 128,-1,116
 828 596 828 596 784 596 c 0,117,118
 733 596 733 596 672 588 c 0,119,120
 642 584 642 584 635 567 c 128,-1,121
 628 550 628 550 628 524 c 0,122,123
 628 480 628 480 629 457 c 128,-1,124
 630 434 630 434 631 402 c 0,125,126
 632 357 632 357 636 329.5 c 128,-1,127
 640 302 640 302 642 278 c 0,128,129
 645 248 645 248 661 238 c 0,130,131
 674 230 674 230 692.5 224 c 128,-1,132
 711 218 711 218 723 207 c 0,133,134
 734 197 734 197 742 179 c 128,-1,135
 750 161 750 161 750 129 c 0,136,137
 750 53 750 53 653 14 c 0,138,139
 606 -5 606 -5 540.5 -12.5 c 128,-1,140
 475 -20 475 -20 401 -20 c 0,141,142
 325 -20 325 -20 243 -15.5 c 128,-1,143
 161 -11 161 -11 104 13 c 0,144,145
 69 28 69 28 48 52.5 c 128,-1,146
 27 77 27 77 27 115 c 0,147,148
 27 167 27 167 52 193 c 0,149,150
 70 212 70 212 87 215.5 c 128,-1,151
 104 219 104 219 127 231 c 0,152,153
 149 243 149 243 160 338 c 128,-1,154
 171 433 171 433 171 591 c 2,0,-1
EndSplineSet
EndChar

StartChar: I
Encoding: 73 73 44
Width: 836
Flags: W
LayerCount: 2
Fore
SplineSet
178 611 m 2,0,-1
 178 871 l 2,1,2
 178 1019 178 1019 171.5 1094.5 c 128,-1,3
 165 1170 165 1170 142 1192 c 0,4,5
 123 1211 123 1211 101.5 1221 c 128,-1,6
 80 1231 80 1231 68 1243 c 0,7,8
 55 1256 55 1256 50.5 1274.5 c 128,-1,9
 46 1293 46 1293 46 1308 c 0,10,11
 46 1348 46 1348 67.5 1370.5 c 128,-1,12
 89 1393 89 1393 123 1408 c 0,13,14
 167 1427 167 1427 234.5 1437.5 c 128,-1,15
 302 1448 302 1448 408 1448 c 0,16,17
 503 1448 503 1448 581.5 1439 c 128,-1,18
 660 1430 660 1430 698 1415 c 0,19,20
 744 1397 744 1397 775 1373 c 128,-1,21
 806 1349 806 1349 806 1296 c 0,22,23
 806 1276 806 1276 799.5 1253 c 128,-1,24
 793 1230 793 1230 772 1219 c 0,25,26
 747 1206 747 1206 732.5 1201 c 128,-1,27
 718 1196 718 1196 696 1179 c 0,28,29
 666 1157 666 1157 654 1082.5 c 128,-1,30
 642 1008 642 1008 642 865 c 2,31,-1
 642 624 l 2,32,33
 642 571 642 571 644 499.5 c 128,-1,34
 646 428 646 428 651.5 365 c 128,-1,35
 657 302 657 302 668 273 c 0,36,37
 675 254 675 254 682 242 c 128,-1,38
 689 230 689 230 702 224 c 0,39,40
 718 216 718 216 730.5 213 c 128,-1,41
 743 210 743 210 757 203 c 0,42,43
 809 178 809 178 809 111 c 0,44,45
 809 58 809 58 771.5 36.5 c 128,-1,46
 734 15 734 15 699 6 c 0,47,48
 650 -6 650 -6 572.5 -17 c 128,-1,49
 495 -28 495 -28 404 -28 c 0,50,51
 317 -28 317 -28 243 -17 c 128,-1,52
 169 -6 169 -6 111 13 c 0,53,54
 73 26 73 26 50 51.5 c 128,-1,55
 27 77 27 77 27 109 c 0,56,57
 27 160 27 160 50 185 c 0,58,59
 65 202 65 202 82.5 209 c 128,-1,60
 100 216 100 216 109 223 c 0,61,62
 120 232 120 232 132 242.5 c 128,-1,63
 144 253 144 253 152 272 c 0,64,65
 170 316 170 316 174 391 c 128,-1,66
 178 466 178 466 178 611 c 2,0,-1
EndSplineSet
EndChar

StartChar: J
Encoding: 74 74 45
Width: 1264
Flags: W
LayerCount: 2
Fore
SplineSet
641 511 m 2,0,-1
 641 891 l 2,1,2
 641 1019 641 1019 624 1079.5 c 128,-1,3
 607 1140 607 1140 581 1163 c 0,4,5
 565 1177 565 1177 542 1184.5 c 128,-1,6
 519 1192 519 1192 505 1203 c 256,7,8
 491 1214 491 1214 482.5 1227 c 128,-1,9
 474 1240 474 1240 474 1278 c 0,10,11
 474 1333 474 1333 538 1365 c 0,12,13
 583 1387 583 1387 661 1401 c 128,-1,14
 739 1415 739 1415 853 1415 c 0,15,16
 946 1415 946 1415 1029 1405 c 128,-1,17
 1112 1395 1112 1395 1166 1372 c 0,18,19
 1249 1336 1249 1336 1249 1270 c 0,20,21
 1249 1244 1249 1244 1241.5 1229.5 c 128,-1,22
 1234 1215 1234 1215 1219 1205 c 0,23,24
 1199 1191 1199 1191 1172.5 1179.5 c 128,-1,25
 1146 1168 1146 1168 1129 1139 c 0,26,27
 1109 1106 1109 1106 1105 1028 c 128,-1,28
 1101 950 1101 950 1101 814 c 2,29,-1
 1101 554 l 2,30,31
 1101 333 1101 333 1039 200.5 c 128,-1,32
 977 68 977 68 847 9.5 c 128,-1,33
 717 -49 717 -49 513 -49 c 0,34,35
 326 -49 326 -49 209.5 6 c 128,-1,36
 93 61 93 61 39 149 c 128,-1,37
 -15 237 -15 237 -15 334 c 0,38,39
 -15 422 -15 422 46 489.5 c 128,-1,40
 107 557 107 557 210 557 c 0,41,42
 297 557 297 557 349 519 c 128,-1,43
 401 481 401 481 420 428 c 0,44,45
 435 386 435 386 431.5 342 c 128,-1,46
 428 298 428 298 424 260 c 128,-1,47
 420 222 420 222 430 198.5 c 128,-1,48
 440 175 440 175 481 175 c 0,49,50
 515 175 515 175 548.5 185.5 c 128,-1,51
 582 196 582 196 604 229 c 0,52,53
 629 265 629 265 635 335.5 c 128,-1,54
 641 406 641 406 641 511 c 2,0,-1
EndSplineSet
EndChar

StartChar: K
Encoding: 75 75 46
Width: 1720
Flags: W
LayerCount: 2
Fore
SplineSet
179 591 m 2,0,-1
 179 811 l 2,1,2
 179 962 179 962 166.5 1040.5 c 128,-1,3
 154 1119 154 1119 134 1152 c 0,4,5
 117 1181 117 1181 98.5 1187 c 128,-1,6
 80 1193 80 1193 64 1212 c 0,7,8
 54 1224 54 1224 45.5 1241 c 128,-1,9
 37 1258 37 1258 37 1290 c 0,10,11
 37 1332 37 1332 58.5 1355.5 c 128,-1,12
 80 1379 80 1379 106 1391 c 0,13,14
 153 1412 153 1412 245.5 1426 c 128,-1,15
 338 1440 338 1440 436 1440 c 0,16,17
 515 1440 515 1440 565.5 1436.5 c 128,-1,18
 616 1433 616 1433 652 1422 c 0,19,20
 709 1406 709 1406 736.5 1376 c 128,-1,21
 764 1346 764 1346 764 1296 c 0,22,23
 764 1265 764 1265 757.5 1248.5 c 128,-1,24
 751 1232 751 1232 740 1223 c 0,25,26
 730 1215 730 1215 715 1209 c 128,-1,27
 700 1203 700 1203 686 1190 c 0,28,29
 667 1171 667 1171 656 1138 c 0,30,31
 648 1113 648 1113 643 1087.5 c 128,-1,32
 638 1062 638 1062 638 1030 c 0,33,34
 638 993 638 993 640 969.5 c 128,-1,35
 642 946 642 946 655 940 c 0,36,37
 674 931 674 931 697 942 c 0,38,39
 708 947 708 947 721 957.5 c 128,-1,40
 734 968 734 968 749 990 c 2,41,-1
 855 1141 l 2,42,43
 866 1156 866 1156 876.5 1170 c 128,-1,44
 887 1184 887 1184 887 1196 c 256,45,46
 887 1208 887 1208 879 1220 c 0,47,48
 875 1225 875 1225 867 1233.5 c 128,-1,49
 859 1242 859 1242 853 1251 c 0,50,51
 848 1258 848 1258 844 1267 c 128,-1,52
 840 1276 840 1276 840 1293 c 0,53,54
 840 1354 840 1354 890.5 1385.5 c 128,-1,55
 941 1417 941 1417 1026 1428 c 128,-1,56
 1111 1439 1111 1439 1216 1439 c 0,57,58
 1305 1439 1305 1439 1380.5 1429 c 128,-1,59
 1456 1419 1456 1419 1502 1389.5 c 128,-1,60
 1548 1360 1548 1360 1548 1301 c 0,61,62
 1548 1243 1548 1243 1500.5 1215.5 c 128,-1,63
 1453 1188 1453 1188 1364 1188 c 0,64,65
 1311 1188 1311 1188 1282.5 1180.5 c 128,-1,66
 1254 1173 1254 1173 1233 1153 c 128,-1,67
 1212 1133 1212 1133 1178 1096 c 2,68,-1
 1054 959 l 2,69,70
 1037 941 1037 941 1043.5 907.5 c 128,-1,71
 1050 874 1050 874 1079 839 c 2,72,-1
 1510 318 l 2,73,74
 1538 284 1538 284 1556 268.5 c 128,-1,75
 1574 253 1574 253 1593 239 c 0,76,77
 1614 225 1614 225 1643 212 c 128,-1,78
 1672 199 1672 199 1685 187 c 0,79,80
 1704 170 1704 170 1712 152.5 c 128,-1,81
 1720 135 1720 135 1720 102 c 0,82,83
 1720 29 1720 29 1670 4.5 c 128,-1,84
 1620 -20 1620 -20 1537 -20 c 0,85,86
 1530 -20 1530 -20 1491.5 -20.5 c 128,-1,87
 1453 -21 1453 -21 1399.5 -22 c 128,-1,88
 1346 -23 1346 -23 1292.5 -23.5 c 128,-1,89
 1239 -24 1239 -24 1199 -24.5 c 128,-1,90
 1159 -25 1159 -25 1150 -25 c 0,91,92
 1125 -24 1125 -24 1112.5 -14.5 c 128,-1,93
 1100 -5 1100 -5 1074 26 c 2,94,-1
 755 412 l 2,95,96
 734 438 734 438 711.5 445 c 128,-1,97
 689 452 689 452 674 440 c 0,98,99
 663 431 663 431 658 411 c 128,-1,100
 653 391 653 391 653 367 c 2,101,-1
 653 316 l 2,102,103
 653 281 653 281 663.5 257.5 c 128,-1,104
 674 234 674 234 687 220 c 0,105,106
 703 203 703 203 725 195 c 128,-1,107
 747 187 747 187 762 171 c 0,108,109
 772 160 772 160 777.5 145.5 c 128,-1,110
 783 131 783 131 783 107 c 0,111,112
 783 22 783 22 695.5 -3 c 128,-1,113
 608 -28 608 -28 402 -28 c 0,114,115
 304 -28 304 -28 247.5 -25 c 128,-1,116
 191 -22 191 -22 160 -15.5 c 128,-1,117
 129 -9 129 -9 105 0 c 0,118,119
 68 15 68 15 47.5 41.5 c 128,-1,120
 27 68 27 68 27 94 c 0,121,122
 27 121 27 121 34 135 c 128,-1,123
 41 149 41 149 52 161 c 0,124,125
 66 175 66 175 88.5 187 c 128,-1,126
 111 199 111 199 127 229 c 0,127,128
 150 269 150 269 164.5 352.5 c 128,-1,129
 179 436 179 436 179 591 c 2,0,-1
EndSplineSet
EndChar

StartChar: L
Encoding: 76 76 47
Width: 1256
Flags: W
LayerCount: 2
Fore
SplineSet
352 -13 m 0,0,1
 309 -13 309 -13 281.5 -15 c 128,-1,2
 254 -17 254 -17 226.5 -19 c 128,-1,3
 199 -21 199 -21 156 -21 c 0,4,5
 86 -21 86 -21 59 22.5 c 128,-1,6
 32 66 32 66 32 101 c 0,7,8
 32 121 32 121 39 137 c 128,-1,9
 46 153 46 153 55 162 c 0,10,11
 64 172 64 172 78.5 182 c 128,-1,12
 93 192 93 192 112 199 c 0,13,14
 154 214 154 214 168 262 c 256,15,16
 182 310 182 310 189 386 c 128,-1,17
 196 462 196 462 196 590 c 2,18,-1
 196 801 l 2,19,20
 196 971 196 971 187.5 1056.5 c 128,-1,21
 179 1142 179 1142 154 1161 c 0,22,23
 139 1173 139 1173 117.5 1178.5 c 128,-1,24
 96 1184 96 1184 75 1194 c 0,25,26
 53 1205 53 1205 40 1223 c 128,-1,27
 27 1241 27 1241 27 1270 c 0,28,29
 27 1311 27 1311 43.5 1334 c 128,-1,30
 60 1357 60 1357 107 1381 c 0,31,32
 158 1407 158 1407 253 1422 c 128,-1,33
 348 1437 348 1437 467 1437 c 0,34,35
 569 1437 569 1437 638.5 1427 c 128,-1,36
 708 1417 708 1417 751 1400 c 0,37,38
 830 1370 830 1370 830 1289 c 0,39,40
 830 1227 830 1227 766 1203 c 0,41,42
 750 1197 750 1197 736.5 1191 c 128,-1,43
 723 1185 723 1185 708 1171 c 256,44,45
 693 1157 693 1157 684 1129.5 c 128,-1,46
 675 1102 675 1102 671 1031 c 128,-1,47
 667 960 667 960 667 814 c 2,48,-1
 667 558 l 2,49,50
 667 431 667 431 671 371 c 128,-1,51
 675 311 675 311 683 285 c 0,52,53
 692 257 692 257 728.5 246.5 c 128,-1,54
 765 236 765 236 809 236 c 0,55,56
 873 236 873 236 904.5 244.5 c 128,-1,57
 936 253 936 253 967 274 c 0,58,59
 1008 301 1008 301 1027 344.5 c 128,-1,60
 1046 388 1046 388 1060 435 c 0,61,62
 1071 471 1071 471 1087.5 485 c 128,-1,63
 1104 499 1104 499 1135 499 c 0,64,65
 1199 499 1199 499 1232.5 449.5 c 128,-1,66
 1266 400 1266 400 1266 347 c 0,67,68
 1266 293 1266 293 1249 226 c 128,-1,69
 1232 159 1232 159 1203 97 c 128,-1,70
 1174 35 1174 35 1137.5 -5 c 128,-1,71
 1101 -45 1101 -45 1061 -45 c 0,72,73
 1013 -45 1013 -45 979 -27.5 c 128,-1,74
 945 -10 945 -10 894 -10 c 0,75,76
 806 -10 806 -10 744.5 -12.5 c 128,-1,77
 683 -15 683 -15 619 -15 c 0,78,79
 531 -15 531 -15 473 -14 c 128,-1,80
 415 -13 415 -13 352 -13 c 0,0,1
EndSplineSet
EndChar

StartChar: M
Encoding: 77 77 48
Width: 1847
Flags: W
LayerCount: 2
Fore
SplineSet
203 634 m 2,0,-1
 211 840 l 2,1,2
 215 994 215 994 206.5 1065.5 c 128,-1,3
 198 1137 198 1137 174 1168 c 0,4,5
 154 1194 154 1194 127.5 1199.5 c 128,-1,6
 101 1205 101 1205 84 1224 c 0,7,8
 74 1236 74 1236 66.5 1252.5 c 128,-1,9
 59 1269 59 1269 59 1302 c 0,10,11
 59 1328 59 1328 70 1351 c 128,-1,12
 81 1374 81 1374 119 1395 c 0,13,14
 157 1417 157 1417 233 1429.5 c 128,-1,15
 309 1442 309 1442 458 1442 c 0,16,17
 534 1442 534 1442 575 1434.5 c 128,-1,18
 616 1427 616 1427 631 1418 c 0,19,20
 658 1403 658 1403 683 1361 c 128,-1,21
 708 1319 708 1319 718 1300 c 2,22,-1
 904 948 l 2,23,24
 929 899 929 899 943 879 c 128,-1,25
 957 859 957 859 970 859 c 0,26,27
 981 859 981 859 996.5 878 c 128,-1,28
 1012 897 1012 897 1039 948 c 2,29,-1
 1223 1292 l 2,30,31
 1238 1321 1238 1321 1258 1351.5 c 128,-1,32
 1278 1382 1278 1382 1315 1403 c 0,33,34
 1348 1423 1348 1423 1400.5 1428.5 c 128,-1,35
 1453 1434 1453 1434 1534 1434 c 0,36,37
 1630 1434 1630 1434 1688.5 1423 c 128,-1,38
 1747 1412 1747 1412 1771 1394 c 0,39,40
 1793 1377 1793 1377 1806.5 1354.5 c 128,-1,41
 1820 1332 1820 1332 1820 1296 c 0,42,43
 1820 1265 1820 1265 1811.5 1249.5 c 128,-1,44
 1803 1234 1803 1234 1790 1224 c 0,45,46
 1775 1214 1775 1214 1753 1200.5 c 128,-1,47
 1731 1187 1731 1187 1711 1164 c 0,48,49
 1682 1131 1682 1131 1673.5 1049 c 128,-1,50
 1665 967 1665 967 1663 804 c 2,51,-1
 1660 514 l 2,52,53
 1659 388 1659 388 1667.5 320.5 c 128,-1,54
 1676 253 1676 253 1695 225 c 0,55,56
 1711 202 1711 202 1731.5 198.5 c 128,-1,57
 1752 195 1752 195 1769 181 c 0,58,59
 1780 172 1780 172 1785 157 c 128,-1,60
 1790 142 1790 142 1790 111 c 0,61,62
 1790 40 1790 40 1710 0 c 0,63,64
 1662 -24 1662 -24 1594 -34 c 128,-1,65
 1526 -44 1526 -44 1454 -44 c 0,66,67
 1360 -44 1360 -44 1271.5 -38 c 128,-1,68
 1183 -32 1183 -32 1126 -10 c 0,69,70
 1053 19 1053 19 1053 89 c 0,71,72
 1053 120 1053 120 1059 136 c 128,-1,73
 1065 152 1065 152 1075 162 c 0,74,75
 1090 179 1090 179 1107.5 186.5 c 128,-1,76
 1125 194 1125 194 1144 210 c 0,77,78
 1159 224 1159 224 1173 256 c 128,-1,79
 1187 288 1187 288 1187 361 c 2,80,-1
 1187 451 l 2,81,82
 1187 515 1187 515 1179 535.5 c 128,-1,83
 1171 556 1171 556 1149 556 c 0,84,85
 1131 556 1131 556 1113.5 527 c 128,-1,86
 1096 498 1096 498 1074 456 c 2,87,-1
 863 56 l 2,88,89
 842 16 842 16 829 3.5 c 128,-1,90
 816 -9 816 -9 807 -9 c 0,91,92
 797 -9 797 -9 787 3 c 128,-1,93
 777 15 777 15 759 55 c 2,94,-1
 583 453 l 2,95,96
 566 492 566 492 546 525 c 128,-1,97
 526 558 526 558 509 558 c 0,98,99
 491 558 491 558 479.5 536.5 c 128,-1,100
 468 515 468 515 464 428 c 2,101,-1
 461 333 l 2,102,103
 460 312 460 312 459.5 300.5 c 128,-1,104
 459 289 459 289 459 268 c 0,105,106
 459 226 459 226 476 205 c 0,107,108
 490 188 490 188 514 180.5 c 128,-1,109
 538 173 538 173 554 160 c 0,110,111
 582 137 582 137 582 97 c 0,112,113
 582 38 582 38 546.5 10 c 128,-1,114
 511 -18 511 -18 447.5 -26.5 c 128,-1,115
 384 -35 384 -35 301 -35 c 0,116,117
 171 -35 171 -35 99 -15 c 128,-1,118
 27 5 27 5 27 72 c 0,119,120
 27 121 27 121 52 149 c 0,121,122
 69 167 69 167 96.5 174.5 c 128,-1,123
 124 182 124 182 144 203 c 0,124,125
 160 219 160 219 165.5 244 c 128,-1,126
 171 269 171 269 176 297 c 0,127,128
 184 343 184 343 191 426.5 c 128,-1,129
 198 510 198 510 203 634 c 2,0,-1
EndSplineSet
EndChar

StartChar: N
Encoding: 78 78 49
Width: 1700
Flags: W
LayerCount: 2
Fore
SplineSet
215 551 m 2,0,-1
 215 688 l 2,1,2
 215 816 215 816 208 898.5 c 128,-1,3
 201 981 201 981 191 1032.5 c 128,-1,4
 181 1084 181 1084 172 1117 c 0,5,6
 167 1136 167 1136 161.5 1149 c 128,-1,7
 156 1162 156 1162 141 1176 c 0,8,9
 124 1192 124 1192 98 1201 c 128,-1,10
 72 1210 72 1210 55 1226 c 0,11,12
 41 1240 41 1240 34 1252 c 128,-1,13
 27 1264 27 1264 27 1288 c 0,14,15
 27 1321 27 1321 47.5 1351 c 128,-1,16
 68 1381 68 1381 95 1397 c 0,17,18
 127 1416 127 1416 216.5 1425 c 128,-1,19
 306 1434 306 1434 442 1434 c 0,20,21
 490 1434 490 1434 515.5 1424 c 128,-1,22
 541 1414 541 1414 558.5 1397 c 128,-1,23
 576 1380 576 1380 599 1359 c 2,24,-1
 1106 898 l 2,25,26
 1126 879 1126 879 1150 866 c 128,-1,27
 1174 853 1174 853 1197 853 c 0,28,29
 1244 853 1244 853 1244 1016 c 2,30,-1
 1244 1056 l 2,31,32
 1244 1109 1244 1109 1230 1144 c 128,-1,33
 1216 1179 1216 1179 1202 1196 c 0,34,35
 1182 1220 1182 1220 1160 1220 c 128,-1,36
 1138 1220 1138 1220 1120 1238 c 0,37,38
 1111 1247 1111 1247 1103.5 1264 c 128,-1,39
 1096 1281 1096 1281 1096 1304 c 0,40,41
 1096 1353 1096 1353 1116.5 1383.5 c 128,-1,42
 1137 1414 1137 1414 1195.5 1428 c 128,-1,43
 1254 1442 1254 1442 1367 1442 c 0,44,45
 1534 1442 1534 1442 1603.5 1413.5 c 128,-1,46
 1673 1385 1673 1385 1673 1318 c 0,47,48
 1673 1263 1673 1263 1642 1238 c 0,49,50
 1621 1221 1621 1221 1591 1210.5 c 128,-1,51
 1561 1200 1561 1200 1547 1170 c 0,52,53
 1532 1138 1532 1138 1521 1038.5 c 128,-1,54
 1510 939 1510 939 1510 819 c 2,55,-1
 1510 439 l 2,56,57
 1510 247 1510 247 1494 150 c 128,-1,58
 1478 53 1478 53 1450 19.5 c 128,-1,59
 1422 -14 1422 -14 1386 -14 c 0,60,61
 1359 -14 1359 -14 1326.5 4.5 c 128,-1,62
 1294 23 1294 23 1274 42 c 2,63,-1
 663 597 l 2,64,65
 598 657 598 657 561 657 c 0,66,67
 549 657 549 657 536 647 c 128,-1,68
 523 637 523 637 513.5 598 c 128,-1,69
 504 559 504 559 504 471 c 2,70,-1
 504 424 l 2,71,72
 504 389 504 389 513 334 c 128,-1,73
 522 279 522 279 533 256 c 0,74,75
 550 220 550 220 597 206 c 0,76,77
 652 189 652 189 652 125 c 0,78,79
 652 52 652 52 570 13.5 c 128,-1,80
 488 -25 488 -25 363 -25 c 0,81,82
 282 -25 282 -25 214 -14.5 c 128,-1,83
 146 -4 146 -4 105 24 c 128,-1,84
 64 52 64 52 64 104 c 0,85,86
 64 135 64 135 74.5 156 c 128,-1,87
 85 177 85 177 100 189 c 0,88,89
 119 203 119 203 141 215.5 c 128,-1,90
 163 228 163 228 180 264 c 0,91,92
 199 301 199 301 207 381 c 128,-1,93
 215 461 215 461 215 551 c 2,0,-1
EndSplineSet
EndChar

StartChar: O
Encoding: 79 79 50
Width: 1618
Flags: W
LayerCount: 2
Fore
SplineSet
59 671 m 0,0,1
 59 844 59 844 120 987 c 128,-1,2
 181 1130 181 1130 289.5 1233.5 c 128,-1,3
 398 1337 398 1337 540.5 1393.5 c 128,-1,4
 683 1450 683 1450 846 1450 c 0,5,6
 1006 1450 1006 1450 1137 1392 c 128,-1,7
 1268 1334 1268 1334 1362.5 1232.5 c 128,-1,8
 1457 1131 1457 1131 1508 999 c 128,-1,9
 1559 867 1559 867 1559 718 c 0,10,11
 1559 559 1559 559 1501 419.5 c 128,-1,12
 1443 280 1443 280 1339.5 173 c 128,-1,13
 1236 66 1236 66 1098 5.5 c 128,-1,14
 960 -55 960 -55 800 -55 c 0,15,16
 634 -55 634 -55 498 -0.5 c 128,-1,17
 362 54 362 54 263.5 152.5 c 128,-1,18
 165 251 165 251 112 383 c 128,-1,19
 59 515 59 515 59 671 c 0,0,1
894 254 m 0,20,21
 972 254 972 254 1018 311.5 c 128,-1,22
 1064 369 1064 369 1064 451 c 0,23,24
 1064 574 1064 574 1037.5 695 c 128,-1,25
 1011 816 1011 816 965 914.5 c 128,-1,26
 919 1013 919 1013 859 1072.5 c 128,-1,27
 799 1132 799 1132 731 1132 c 0,28,29
 667 1132 667 1132 618 1076.5 c 128,-1,30
 569 1021 569 1021 569 917 c 0,31,32
 569 803 569 803 594 686.5 c 128,-1,33
 619 570 619 570 663 472 c 128,-1,34
 707 374 707 374 766 314 c 128,-1,35
 825 254 825 254 894 254 c 0,20,21
EndSplineSet
EndChar

StartChar: P
Encoding: 80 80 51
Width: 1410
Flags: W
LayerCount: 2
Fore
SplineSet
683 476 m 2,0,-1
 683 393 l 2,1,2
 683 311 683 311 695.5 273.5 c 128,-1,3
 708 236 708 236 727 218 c 0,4,5
 745 201 745 201 768.5 194.5 c 128,-1,6
 792 188 792 188 809 176 c 0,7,8
 823 167 823 167 830.5 153 c 128,-1,9
 838 139 838 139 838 113 c 0,10,11
 838 79 838 79 821.5 49 c 128,-1,12
 805 19 805 19 763 -1 c 0,13,14
 675 -45 675 -45 434 -45 c 0,15,16
 358 -45 358 -45 281 -41 c 128,-1,17
 204 -37 204 -37 146 -18 c 0,18,19
 99 -2 99 -2 70 26.5 c 128,-1,20
 41 55 41 55 41 91 c 0,21,22
 41 145 41 145 76 168 c 0,23,24
 92 179 92 179 119 187 c 128,-1,25
 146 195 146 195 166 219 c 0,26,27
 206 266 206 266 206 591 c 2,28,-1
 206 898 l 2,29,30
 206 1041 206 1041 197 1106 c 128,-1,31
 188 1171 188 1171 164 1190 c 0,32,33
 138 1210 138 1210 104 1210.5 c 128,-1,34
 70 1211 70 1211 52 1228 c 0,35,36
 42 1238 42 1238 34.5 1250 c 128,-1,37
 27 1262 27 1262 27 1298 c 0,38,39
 27 1361 27 1361 73 1389 c 128,-1,40
 119 1417 119 1417 169 1417 c 0,41,42
 220 1417 220 1417 266 1414 c 128,-1,43
 312 1411 312 1411 388 1411 c 0,44,45
 510 1411 510 1411 639.5 1428.5 c 128,-1,46
 769 1446 769 1446 896 1446 c 0,47,48
 1035 1446 1035 1446 1145 1400 c 128,-1,49
 1255 1354 1255 1354 1319 1262.5 c 128,-1,50
 1383 1171 1383 1171 1383 1036 c 0,51,52
 1383 874 1383 874 1323 755.5 c 128,-1,53
 1263 637 1263 637 1153.5 572 c 128,-1,54
 1044 507 1044 507 897 507 c 0,55,56
 791 507 791 507 756.5 507.5 c 128,-1,57
 722 508 722 508 709 508 c 0,58,59
 702 508 702 508 692.5 501.5 c 128,-1,60
 683 495 683 495 683 476 c 2,0,-1
714 744 m 0,61,62
 809 744 809 744 855 806 c 128,-1,63
 901 868 901 868 901 973 c 0,64,65
 901 1071 901 1071 849.5 1135 c 128,-1,66
 798 1199 798 1199 736 1199 c 0,67,68
 723 1199 723 1199 710.5 1195.5 c 128,-1,69
 698 1192 698 1192 691 1184 c 0,70,71
 680 1170 680 1170 676.5 1128.5 c 128,-1,72
 673 1087 673 1087 673 1044 c 2,73,-1
 673 968 l 2,74,75
 673 942 673 942 673 906 c 128,-1,76
 673 870 673 870 674 838 c 128,-1,77
 675 806 675 806 676 794 c 0,78,79
 678 773 678 773 682 758.5 c 128,-1,80
 686 744 686 744 714 744 c 0,61,62
EndSplineSet
EndChar

StartChar: Q
Encoding: 81 81 52
Width: 1618
Flags: W
LayerCount: 2
Fore
SplineSet
1113 -81 m 0,0,1
 1232 -122 1232 -122 1351 -122 c 0,2,3
 1410 -122 1410 -122 1437.5 -114 c 128,-1,4
 1465 -106 1465 -106 1475 -102 c 0,5,6
 1481 -99 1481 -99 1487 -96 c 128,-1,7
 1493 -93 1493 -93 1503 -93 c 0,8,9
 1528 -93 1528 -93 1548 -123.5 c 128,-1,10
 1568 -154 1568 -154 1568 -192 c 0,11,12
 1568 -251 1568 -251 1505 -312 c 128,-1,13
 1442 -373 1442 -373 1339 -414 c 128,-1,14
 1236 -455 1236 -455 1117 -455 c 0,15,16
 1010 -455 1010 -455 902.5 -422 c 128,-1,17
 795 -389 795 -389 693 -340 c 128,-1,18
 591 -291 591 -291 499.5 -242.5 c 128,-1,19
 408 -194 408 -194 331.5 -161 c 128,-1,20
 255 -128 255 -128 199 -128 c 0,21,22
 183 -128 183 -128 158.5 -128.5 c 128,-1,23
 134 -129 134 -129 124 -129 c 0,24,25
 56 -129 56 -129 56 -72 c 0,26,27
 56 -46 56 -46 71 -8.5 c 128,-1,28
 86 29 86 29 119 58 c 128,-1,29
 152 87 152 87 206 87 c 0,30,31
 223 87 223 87 233.5 85.5 c 128,-1,32
 244 84 244 84 252 84 c 0,33,34
 277 83 277 83 284 96 c 0,35,36
 293 111 293 111 273 127 c 0,37,38
 185 199 185 199 117.5 338 c 128,-1,39
 50 477 50 477 50 672 c 0,40,41
 50 913 50 913 153.5 1086 c 128,-1,42
 257 1259 257 1259 435 1352 c 128,-1,43
 613 1445 613 1445 836 1445 c 0,44,45
 1008 1445 1008 1445 1143.5 1381.5 c 128,-1,46
 1279 1318 1279 1318 1373 1208 c 128,-1,47
 1467 1098 1467 1098 1516 956.5 c 128,-1,48
 1565 815 1565 815 1565 658 c 0,49,50
 1565 531 1565 531 1527.5 416.5 c 128,-1,51
 1490 302 1490 302 1425.5 209 c 128,-1,52
 1361 116 1361 116 1280.5 52 c 128,-1,53
 1200 -12 1200 -12 1114 -38 c 0,54,55
 1098 -43 1098 -43 1086.5 -43.5 c 128,-1,56
 1075 -44 1075 -44 1075 -53 c 0,57,58
 1075 -68 1075 -68 1113 -81 c 0,0,1
888 254 m 0,59,60
 966 254 966 254 1012 311.5 c 128,-1,61
 1058 369 1058 369 1058 451 c 0,62,63
 1058 574 1058 574 1031.5 695 c 128,-1,64
 1005 816 1005 816 959 914.5 c 128,-1,65
 913 1013 913 1013 853 1072.5 c 128,-1,66
 793 1132 793 1132 725 1132 c 0,67,68
 661 1132 661 1132 612 1076.5 c 128,-1,69
 563 1021 563 1021 563 917 c 0,70,71
 563 803 563 803 588 686.5 c 128,-1,72
 613 570 613 570 657 472 c 128,-1,73
 701 374 701 374 760 314 c 128,-1,74
 819 254 819 254 888 254 c 0,59,60
EndSplineSet
EndChar

StartChar: R
Encoding: 82 82 53
Width: 1615
Flags: W
LayerCount: 2
Fore
SplineSet
657 526 m 2,0,-1
 657 414 l 2,1,2
 657 350 657 350 663 296 c 128,-1,3
 669 242 669 242 684 217 c 0,4,5
 702 188 702 188 724 178 c 128,-1,6
 746 168 746 168 766 152 c 0,7,8
 780 141 780 141 789 128 c 128,-1,9
 798 115 798 115 798 83 c 0,10,11
 798 53 798 53 773.5 26 c 128,-1,12
 749 -1 749 -1 697 -15 c 0,13,14
 611 -37 611 -37 423 -37 c 0,15,16
 308 -37 308 -37 232.5 -33 c 128,-1,17
 157 -29 157 -29 113 -14 c 0,18,19
 70 1 70 1 52.5 27 c 128,-1,20
 35 53 35 53 35 87 c 256,21,22
 35 121 35 121 42.5 137.5 c 128,-1,23
 50 154 50 154 65 164 c 0,24,25
 80 175 80 175 104 181 c 128,-1,26
 128 187 128 187 144 225 c 0,27,28
 182 312 182 312 182 611 c 2,29,-1
 182 890 l 2,30,31
 182 1009 182 1009 175 1080 c 128,-1,32
 168 1151 168 1151 142 1185 c 0,33,34
 124 1209 124 1209 96 1215.5 c 128,-1,35
 68 1222 68 1222 51 1235 c 0,36,37
 27 1254 27 1254 27 1299 c 0,38,39
 27 1348 27 1348 72 1386.5 c 128,-1,40
 117 1425 117 1425 212 1425 c 0,41,42
 261 1425 261 1425 324.5 1423 c 128,-1,43
 388 1421 388 1421 452.5 1419 c 128,-1,44
 517 1417 517 1417 568 1417 c 0,45,46
 644 1417 644 1417 695 1419 c 128,-1,47
 746 1421 746 1421 797 1423.5 c 128,-1,48
 848 1426 848 1426 922 1426 c 0,49,50
 1051 1426 1051 1426 1151.5 1380 c 128,-1,51
 1252 1334 1252 1334 1310 1252.5 c 128,-1,52
 1368 1171 1368 1171 1368 1066 c 0,53,54
 1368 826 1368 826 1198 754 c 0,55,56
 1184 748 1184 748 1171 738 c 128,-1,57
 1158 728 1158 728 1158 714 c 0,58,59
 1158 701 1158 701 1171 691 c 128,-1,60
 1184 681 1184 681 1197 677 c 0,61,62
 1243 664 1243 664 1298.5 632 c 128,-1,63
 1354 600 1354 600 1388 525 c 0,64,65
 1426 443 1426 443 1436.5 374.5 c 128,-1,66
 1447 306 1447 306 1456 258.5 c 128,-1,67
 1465 211 1465 211 1496 192 c 0,68,69
 1521 177 1521 177 1538 173 c 128,-1,70
 1555 169 1555 169 1567 163 c 0,71,72
 1600 146 1600 146 1600 105 c 0,73,74
 1600 33 1600 33 1515.5 -14 c 128,-1,75
 1431 -61 1431 -61 1288 -61 c 0,76,77
 1183 -61 1183 -61 1105 -34.5 c 128,-1,78
 1027 -8 1027 -8 989 42 c 0,79,80
 945 100 945 100 922.5 180 c 128,-1,81
 900 260 900 260 881 344 c 128,-1,82
 862 428 862 428 827 497 c 0,83,84
 799 552 799 552 771 561.5 c 128,-1,85
 743 571 743 571 719 571 c 0,86,87
 686 571 686 571 673 565 c 0,88,89
 657 557 657 557 657 526 c 2,0,-1
721 800 m 0,90,91
 801 800 801 800 828 857.5 c 128,-1,92
 855 915 855 915 855 1012 c 0,93,94
 855 1095 855 1095 822.5 1146 c 128,-1,95
 790 1197 790 1197 721 1197 c 0,96,97
 702 1197 702 1197 685 1194 c 128,-1,98
 668 1191 668 1191 661 1171 c 0,99,100
 655 1154 655 1154 650.5 1111.5 c 128,-1,101
 646 1069 646 1069 646 1013 c 2,102,-1
 646 938 l 2,103,104
 646 866 646 866 649 828 c 0,105,106
 651 807 651 807 668 803.5 c 128,-1,107
 685 800 685 800 721 800 c 0,90,91
EndSplineSet
EndChar

StartChar: S
Encoding: 83 83 54
Width: 1273
Flags: W
LayerCount: 2
Fore
SplineSet
281 411 m 0,0,1
 326 329 326 329 405.5 293 c 128,-1,2
 485 257 485 257 552 257 c 0,3,4
 705 257 705 257 705 335 c 0,5,6
 705 363 705 363 690.5 382.5 c 128,-1,7
 676 402 676 402 632.5 420.5 c 128,-1,8
 589 439 589 439 503 464 c 0,9,10
 371 502 371 502 268.5 566.5 c 128,-1,11
 166 631 166 631 107.5 728.5 c 128,-1,12
 49 826 49 826 49 963 c 0,13,14
 49 1079 49 1079 96 1168 c 128,-1,15
 143 1257 143 1257 223 1317.5 c 128,-1,16
 303 1378 303 1378 404 1408.5 c 128,-1,17
 505 1439 505 1439 613 1439 c 0,18,19
 695 1439 695 1439 736 1431.5 c 128,-1,20
 777 1424 777 1424 797.5 1416.5 c 128,-1,21
 818 1409 818 1409 837 1409 c 0,22,23
 865 1409 865 1409 889.5 1424.5 c 128,-1,24
 914 1440 914 1440 947 1440 c 0,25,26
 986 1440 986 1440 1028 1407.5 c 128,-1,27
 1070 1375 1070 1375 1105.5 1323.5 c 128,-1,28
 1141 1272 1141 1272 1163 1213.5 c 128,-1,29
 1185 1155 1185 1155 1185 1104 c 0,30,31
 1185 1042 1185 1042 1144 1000.5 c 128,-1,32
 1103 959 1103 959 1054 959 c 0,33,34
 991 959 991 959 941 1003 c 0,35,36
 923 1018 923 1018 904 1036.5 c 128,-1,37
 885 1055 885 1055 866 1073 c 0,38,39
 831 1105 831 1105 786.5 1128 c 128,-1,40
 742 1151 742 1151 683 1151 c 0,41,42
 633 1151 633 1151 602 1129 c 128,-1,43
 571 1107 571 1107 571 1069 c 0,44,45
 571 1030 571 1030 602.5 1008 c 128,-1,46
 634 986 634 986 686 972 c 128,-1,47
 738 958 738 958 799 942 c 0,48,49
 917 911 917 911 1015.5 861 c 128,-1,50
 1114 811 1114 811 1173.5 727 c 128,-1,51
 1233 643 1233 643 1233 508 c 0,52,53
 1233 389 1233 389 1182.5 289.5 c 128,-1,54
 1132 190 1132 190 1043.5 117.5 c 128,-1,55
 955 45 955 45 839.5 5 c 128,-1,56
 724 -35 724 -35 593 -35 c 0,57,58
 436 -35 436 -35 313 3 c 128,-1,59
 190 41 190 41 130 101 c 0,60,61
 113 118 113 118 92 170 c 128,-1,62
 71 222 71 222 55.5 289.5 c 128,-1,63
 40 357 40 357 40 419 c 0,64,65
 40 535 40 535 130 535 c 0,66,67
 168 535 168 535 197.5 513 c 128,-1,68
 227 491 227 491 248 462 c 128,-1,69
 269 433 269 433 281 411 c 0,0,1
EndSplineSet
EndChar

StartChar: T
Encoding: 84 84 55
Width: 1385
Flags: W
LayerCount: 2
Fore
SplineSet
454 631 m 2,0,-1
 454 861 l 2,1,2
 454 957 454 957 450.5 1017 c 128,-1,3
 447 1077 447 1077 431 1096 c 0,4,5
 416 1114 416 1114 398 1112 c 128,-1,6
 380 1110 380 1110 365 1086 c 0,7,8
 337 1041 337 1041 310.5 1003.5 c 128,-1,9
 284 966 284 966 249 923 c 0,10,11
 223 892 223 892 194.5 882.5 c 128,-1,12
 166 873 166 873 129 873 c 0,13,14
 63 873 63 873 31.5 920.5 c 128,-1,15
 0 968 0 968 0 1032 c 0,16,17
 0 1103 0 1103 24 1175 c 128,-1,18
 48 1247 48 1247 85 1307 c 128,-1,19
 122 1367 122 1367 161.5 1403 c 128,-1,20
 201 1439 201 1439 232 1439 c 0,21,22
 261 1439 261 1439 278 1434.5 c 128,-1,23
 295 1430 295 1430 321.5 1425 c 128,-1,24
 348 1420 348 1420 404 1420 c 2,25,-1
 946 1420 l 2,26,27
 1008 1420 1008 1420 1039 1427.5 c 128,-1,28
 1070 1435 1070 1435 1092 1442.5 c 128,-1,29
 1114 1450 1114 1450 1147 1450 c 0,30,31
 1178 1450 1178 1450 1218.5 1421 c 128,-1,32
 1259 1392 1259 1392 1297 1340.5 c 128,-1,33
 1335 1289 1335 1289 1360 1222.5 c 128,-1,34
 1385 1156 1385 1156 1385 1081 c 0,35,36
 1385 1003 1385 1003 1361 963 c 128,-1,37
 1337 923 1337 923 1300 909 c 128,-1,38
 1263 895 1263 895 1224 895 c 0,39,40
 1187 895 1187 895 1156.5 907.5 c 128,-1,41
 1126 920 1126 920 1102 951 c 0,42,43
 1070 992 1070 992 1055.5 1029 c 128,-1,44
 1041 1066 1041 1066 1004 1103 c 0,45,46
 976 1132 976 1132 951 1114 c 0,47,48
 937 1104 937 1104 929.5 1041.5 c 128,-1,49
 922 979 922 979 922 874 c 2,50,-1
 922 614 l 2,51,52
 922 497 922 497 926.5 443.5 c 128,-1,53
 931 390 931 390 935 350 c 0,54,55
 939 308 939 308 949.5 288 c 128,-1,56
 960 268 960 268 977 256 c 0,57,58
 998 242 998 242 1023.5 235.5 c 128,-1,59
 1049 229 1049 229 1068 216 c 0,60,61
 1084 206 1084 206 1094 187.5 c 128,-1,62
 1104 169 1104 169 1104 127 c 0,63,64
 1104 83 1104 83 1076 53 c 128,-1,65
 1048 23 1048 23 1001 4 c 0,66,67
 955 -14 955 -14 877 -24.5 c 128,-1,68
 799 -35 799 -35 680 -35 c 0,69,70
 541 -35 541 -35 464.5 -24 c 128,-1,71
 388 -13 388 -13 338 17 c 0,72,73
 291 45 291 45 279.5 73.5 c 128,-1,74
 268 102 268 102 268 124 c 0,75,76
 268 148 268 148 276.5 164.5 c 128,-1,77
 285 181 285 181 298 195 c 0,78,79
 318 216 318 216 349.5 223 c 128,-1,80
 381 230 381 230 403 250 c 0,81,82
 416 262 416 262 421.5 281.5 c 128,-1,83
 427 301 427 301 432 321 c 0,84,85
 443 367 443 367 448.5 434 c 128,-1,86
 454 501 454 501 454 631 c 2,0,-1
EndSplineSet
EndChar

StartChar: U
Encoding: 85 85 56
Width: 1672
Flags: W
LayerCount: 2
Fore
SplineSet
1494 884 m 2,0,-1
 1486 534 l 2,1,2
 1479 249 1479 249 1310.5 102 c 128,-1,3
 1142 -45 1142 -45 799 -45 c 0,4,5
 501 -45 501 -45 332.5 100 c 128,-1,6
 164 245 164 245 164 528 c 2,7,-1
 164 891 l 2,8,9
 164 975 164 975 159 1020.5 c 128,-1,10
 154 1066 154 1066 145 1088.5 c 128,-1,11
 136 1111 136 1111 124 1125 c 0,12,13
 109 1143 109 1143 89.5 1150.5 c 128,-1,14
 70 1158 70 1158 55 1171 c 0,15,16
 43 1182 43 1182 35 1200 c 128,-1,17
 27 1218 27 1218 27 1258 c 0,18,19
 27 1287 27 1287 40 1314 c 128,-1,20
 53 1341 53 1341 85 1363 c 0,21,22
 135 1398 135 1398 217.5 1421.5 c 128,-1,23
 300 1445 300 1445 428 1445 c 0,24,25
 529 1445 529 1445 603 1438.5 c 128,-1,26
 677 1432 677 1432 726 1412 c 0,27,28
 776 1392 776 1392 800.5 1358 c 128,-1,29
 825 1324 825 1324 825 1287 c 0,30,31
 825 1251 825 1251 815.5 1232 c 128,-1,32
 806 1213 806 1213 795 1204 c 0,33,34
 780 1192 780 1192 761.5 1184 c 128,-1,35
 743 1176 743 1176 726 1164 c 256,36,37
 709 1152 709 1152 697.5 1125.5 c 128,-1,38
 686 1099 686 1099 680 1038.5 c 128,-1,39
 674 978 674 978 674 867 c 2,40,-1
 674 648 l 2,41,42
 674 518 674 518 708.5 448 c 128,-1,43
 743 378 743 378 807 351.5 c 128,-1,44
 871 325 871 325 959 325 c 0,45,46
 1092 325 1092 325 1145 398 c 128,-1,47
 1198 471 1198 471 1198 658 c 2,48,-1
 1198 947 l 2,49,50
 1198 1032 1198 1032 1189.5 1097.5 c 128,-1,51
 1181 1163 1181 1163 1161 1187 c 0,52,53
 1140 1212 1140 1212 1111.5 1215.5 c 128,-1,54
 1083 1219 1083 1219 1065 1235 c 0,55,56
 1052 1247 1052 1247 1044 1259.5 c 128,-1,57
 1036 1272 1036 1272 1036 1304 c 0,58,59
 1036 1375 1036 1375 1113 1415 c 128,-1,60
 1190 1455 1190 1455 1344 1455 c 0,61,62
 1489 1455 1489 1455 1567 1414.5 c 128,-1,63
 1645 1374 1645 1374 1645 1310 c 0,64,65
 1645 1273 1645 1273 1636.5 1255 c 128,-1,66
 1628 1237 1628 1237 1615 1226 c 0,67,68
 1599 1212 1599 1212 1568.5 1202.5 c 128,-1,69
 1538 1193 1538 1193 1519 1158 c 0,70,71
 1502 1125 1502 1125 1499 1059 c 128,-1,72
 1496 993 1496 993 1494 884 c 2,0,-1
EndSplineSet
EndChar

StartChar: V
Encoding: 86 86 57
Width: 1626
Flags: W
LayerCount: 2
Fore
SplineSet
1095 1058 m 0,0,1
 1104 1079 1104 1079 1111.5 1105 c 128,-1,2
 1119 1131 1119 1131 1119 1154 c 0,3,4
 1119 1189 1119 1189 1097 1203 c 0,5,6
 1082 1212 1082 1212 1067.5 1217 c 128,-1,7
 1053 1222 1053 1222 1042 1235 c 0,8,9
 1036 1241 1036 1241 1029 1254.5 c 128,-1,10
 1022 1268 1022 1268 1022 1292 c 0,11,12
 1022 1349 1022 1349 1070 1380 c 128,-1,13
 1118 1411 1118 1411 1195.5 1423 c 128,-1,14
 1273 1435 1273 1435 1359 1435 c 0,15,16
 1502 1435 1502 1435 1569 1393.5 c 128,-1,17
 1636 1352 1636 1352 1636 1301 c 0,18,19
 1636 1270 1636 1270 1624.5 1249.5 c 128,-1,20
 1613 1229 1613 1229 1595 1218 c 0,21,22
 1570 1202 1570 1202 1539 1203 c 128,-1,23
 1508 1204 1508 1204 1482 1187 c 0,24,25
 1449 1165 1449 1165 1426.5 1118.5 c 128,-1,26
 1404 1072 1404 1072 1373 998 c 2,27,-1
 1169 514 l 2,28,29
 1103 358 1103 358 1057 244.5 c 128,-1,30
 1011 131 1011 131 988 85 c 0,31,32
 957 21 957 21 916 -23 c 128,-1,33
 875 -67 875 -67 804 -67 c 0,34,35
 715 -67 715 -67 666.5 -2 c 128,-1,36
 618 63 618 63 575 164 c 0,37,38
 522 287 522 287 475.5 388 c 128,-1,39
 429 489 429 489 384.5 583 c 128,-1,40
 340 677 340 677 295.5 777.5 c 128,-1,41
 251 878 251 878 201 1000 c 0,42,43
 180 1051 180 1051 159.5 1084.5 c 128,-1,44
 139 1118 139 1118 111 1134 c 0,45,46
 85 1148 85 1148 62.5 1148.5 c 128,-1,47
 40 1149 40 1149 19 1163 c 0,48,49
 -10 1183 -10 1183 -10 1234 c 0,50,51
 -10 1282 -10 1282 16.5 1315 c 128,-1,52
 43 1348 43 1348 94 1372 c 0,53,54
 165 1405 165 1405 265.5 1415 c 128,-1,55
 366 1425 366 1425 456 1425 c 256,56,57
 546 1425 546 1425 625.5 1413 c 128,-1,58
 705 1401 705 1401 753 1370 c 0,59,60
 784 1350 784 1350 797.5 1320 c 128,-1,61
 811 1290 811 1290 811 1257 c 0,62,63
 811 1230 811 1230 798.5 1214 c 128,-1,64
 786 1198 786 1198 772 1192 c 0,65,66
 761 1188 761 1188 752 1187.5 c 128,-1,67
 743 1187 743 1187 732 1181 c 0,68,69
 717 1173 717 1173 717 1140 c 0,70,71
 717 1116 717 1116 730 1086.5 c 128,-1,72
 743 1057 743 1057 751 1035 c 0,73,74
 765 999 765 999 782.5 963.5 c 128,-1,75
 800 928 800 928 822 882 c 0,76,77
 833 860 833 860 849.5 824.5 c 128,-1,78
 866 789 866 789 885.5 761 c 128,-1,79
 905 733 905 733 926 733 c 0,80,81
 954 733 954 733 970.5 773.5 c 128,-1,82
 987 814 987 814 1005 854 c 0,83,84
 1021 889 1021 889 1033 916 c 128,-1,85
 1045 943 1045 943 1059 975 c 128,-1,86
 1073 1007 1073 1007 1095 1058 c 0,0,1
EndSplineSet
EndChar

StartChar: W
Encoding: 87 87 58
Width: 2364
Flags: W
LayerCount: 2
Fore
SplineSet
1842 1055 m 0,0,1
 1854 1091 1854 1091 1863.5 1116.5 c 128,-1,2
 1873 1142 1873 1142 1873 1165 c 0,3,4
 1873 1202 1873 1202 1839 1220 c 0,5,6
 1824 1228 1824 1228 1810 1234 c 128,-1,7
 1796 1240 1796 1240 1784 1248 c 0,8,9
 1776 1254 1776 1254 1767 1268 c 128,-1,10
 1758 1282 1758 1282 1758 1310 c 0,11,12
 1758 1396 1758 1396 1847 1418.5 c 128,-1,13
 1936 1441 1936 1441 2096 1441 c 0,14,15
 2212 1441 2212 1441 2271.5 1424 c 128,-1,16
 2331 1407 2331 1407 2352.5 1378.5 c 128,-1,17
 2374 1350 2374 1350 2374 1316 c 0,18,19
 2374 1287 2374 1287 2364.5 1269.5 c 128,-1,20
 2355 1252 2355 1252 2335 1240 c 0,21,22
 2310 1225 2310 1225 2275.5 1220 c 128,-1,23
 2241 1215 2241 1215 2211 1191 c 0,24,25
 2177 1165 2177 1165 2145.5 1099.5 c 128,-1,26
 2114 1034 2114 1034 2088 973 c 0,27,28
 1955 664 1955 664 1870 437.5 c 128,-1,29
 1785 211 1785 211 1720 60 c 0,30,31
 1692 -4 1692 -4 1662 -37.5 c 128,-1,32
 1632 -71 1632 -71 1568 -71 c 0,33,34
 1509 -71 1509 -71 1477.5 -16 c 128,-1,35
 1446 39 1446 39 1402 139 c 0,36,37
 1350 259 1350 259 1309.5 355.5 c 128,-1,38
 1269 452 1269 452 1223 573 c 0,39,40
 1211 605 1211 605 1201.5 614 c 128,-1,41
 1192 623 1192 623 1178 623 c 0,42,43
 1153 623 1153 623 1130 557 c 0,44,45
 1089 439 1089 439 1058.5 353.5 c 128,-1,46
 1028 268 1028 268 1002 198.5 c 128,-1,47
 976 129 976 129 946 60 c 0,48,49
 918 -4 918 -4 888 -37.5 c 128,-1,50
 858 -71 858 -71 794 -71 c 0,51,52
 760 -71 760 -71 732 -64 c 128,-1,53
 704 -57 704 -57 678 -27.5 c 128,-1,54
 652 2 652 2 623 69 c 0,55,56
 517 315 517 315 414 554.5 c 128,-1,57
 311 794 311 794 196 1028 c 0,58,59
 179 1062 179 1062 155.5 1106.5 c 128,-1,60
 132 1151 132 1151 107 1161 c 0,61,62
 85 1169 85 1169 67 1169 c 128,-1,63
 49 1169 49 1169 28 1178 c 0,64,65
 -10 1194 -10 1194 -10 1249 c 0,66,67
 -10 1275 -10 1275 2 1304 c 128,-1,68
 14 1333 14 1333 49 1356 c 0,69,70
 160 1430 160 1430 444 1430 c 0,71,72
 533 1430 533 1430 608.5 1419.5 c 128,-1,73
 684 1409 684 1409 732 1384 c 0,74,75
 795 1352 795 1352 795 1296 c 0,76,77
 795 1263 795 1263 782 1249 c 0,78,79
 775 1241 775 1241 766 1233.5 c 128,-1,80
 757 1226 757 1226 749 1217 c 0,81,82
 734 1200 734 1200 734 1164 c 0,83,84
 734 1140 734 1140 747 1110.5 c 128,-1,85
 760 1081 760 1081 768 1059 c 0,86,87
 785 1010 785 1010 800.5 975 c 128,-1,88
 816 940 816 940 849 869 c 0,89,90
 864 836 864 836 883 801 c 128,-1,91
 902 766 902 766 921 766 c 0,92,93
 937 766 937 766 946.5 784 c 128,-1,94
 956 802 956 802 976 841 c 0,95,96
 984 856 984 856 992 874 c 128,-1,97
 1000 892 1000 892 1012 920 c 0,98,99
 1021 942 1021 942 1027.5 959.5 c 128,-1,100
 1034 977 1034 977 1034 988 c 0,101,102
 1034 1007 1034 1007 1011 1056 c 0,103,104
 1006 1067 1006 1067 1000 1083.5 c 128,-1,105
 994 1100 994 1100 986 1119 c 0,106,107
 970 1158 970 1158 963 1174.5 c 128,-1,108
 956 1191 956 1191 943 1199 c 0,109,110
 929 1207 929 1207 916.5 1214.5 c 128,-1,111
 904 1222 904 1222 889 1235 c 0,112,113
 877 1246 877 1246 871 1259.5 c 128,-1,114
 865 1273 865 1273 865 1298 c 0,115,116
 865 1343 865 1343 888 1366 c 128,-1,117
 911 1389 911 1389 958 1403 c 0,118,119
 1018 1422 1018 1422 1109.5 1426 c 128,-1,120
 1201 1430 1201 1430 1304 1430 c 0,121,122
 1376 1430 1376 1430 1448 1424.5 c 128,-1,123
 1520 1419 1520 1419 1569 1401 c 0,124,125
 1606 1388 1606 1388 1624 1366 c 128,-1,126
 1642 1344 1642 1344 1642 1322 c 0,127,128
 1642 1273 1642 1273 1620 1257 c 0,129,130
 1608 1248 1608 1248 1591.5 1241.5 c 128,-1,131
 1575 1235 1575 1235 1561 1228 c 0,132,133
 1546 1221 1546 1221 1536.5 1208 c 128,-1,134
 1527 1195 1527 1195 1527 1175 c 0,135,136
 1527 1151 1527 1151 1533 1134.5 c 128,-1,137
 1539 1118 1539 1118 1547 1096 c 0,138,139
 1563 1051 1563 1051 1581 1009.5 c 128,-1,140
 1599 968 1599 968 1633 881 c 0,141,142
 1646 847 1646 847 1664 812.5 c 128,-1,143
 1682 778 1682 778 1705 778 c 0,144,145
 1725 778 1725 778 1739 800.5 c 128,-1,146
 1753 823 1753 823 1772 863 c 0,147,148
 1783 886 1783 886 1801 936.5 c 128,-1,149
 1819 987 1819 987 1842 1055 c 0,0,1
EndSplineSet
EndChar

StartChar: X
Encoding: 88 88 59
Width: 1596
Flags: W
LayerCount: 2
Fore
SplineSet
919 1088 m 2,0,-1
 950 1145 l 2,1,2
 962 1166 962 1166 968 1181 c 128,-1,3
 974 1196 974 1196 974 1212 c 0,4,5
 974 1227 974 1227 957 1238 c 0,6,7
 945 1245 945 1245 934 1248 c 128,-1,8
 923 1251 923 1251 910 1257 c 0,9,10
 902 1261 902 1261 892 1274 c 128,-1,11
 882 1287 882 1287 882 1305 c 0,12,13
 882 1357 882 1357 911.5 1387 c 128,-1,14
 941 1417 941 1417 1015 1429.5 c 128,-1,15
 1089 1442 1089 1442 1220 1442 c 0,16,17
 1314 1442 1314 1442 1368 1428 c 128,-1,18
 1422 1414 1422 1414 1447 1393 c 128,-1,19
 1472 1372 1472 1372 1479 1351 c 128,-1,20
 1486 1330 1486 1330 1486 1316 c 0,21,22
 1486 1245 1486 1245 1427 1221 c 0,23,24
 1398 1210 1398 1210 1369.5 1209 c 128,-1,25
 1341 1208 1341 1208 1314 1202 c 256,26,27
 1287 1196 1287 1196 1254.5 1173.5 c 128,-1,28
 1222 1151 1222 1151 1169 1076 c 2,29,-1
 1024 871 l 2,30,31
 1017 860 1017 860 1010.5 852 c 128,-1,32
 1004 844 1004 844 1004 838 c 256,33,34
 1004 832 1004 832 1010 824 c 128,-1,35
 1016 816 1016 816 1022 808 c 2,36,-1
 1386 319 l 1,37,38
 1423 262 1423 262 1460 243 c 0,39,40
 1487 228 1487 228 1514 221 c 128,-1,41
 1541 214 1541 214 1560 202 c 0,42,43
 1596 178 1596 178 1596 131 c 0,44,45
 1596 88 1596 88 1574.5 56.5 c 128,-1,46
 1553 25 1553 25 1502 4 c 0,47,48
 1450 -18 1450 -18 1368.5 -26.5 c 128,-1,49
 1287 -35 1287 -35 1188 -35 c 0,50,51
 1065 -35 1065 -35 986.5 -32 c 128,-1,52
 908 -29 908 -29 862 -17 c 0,53,54
 808 -4 808 -4 788 24.5 c 128,-1,55
 768 53 768 53 768 81 c 0,56,57
 768 107 768 107 774.5 125.5 c 128,-1,58
 781 144 781 144 789 155 c 0,59,60
 802 171 802 171 817.5 175.5 c 128,-1,61
 833 180 833 180 840 183 c 0,62,63
 849 188 849 188 849 203 c 0,64,65
 849 220 849 220 842 232.5 c 128,-1,66
 835 245 835 245 826 260 c 2,67,-1
 731 406 l 2,68,69
 720 424 720 424 712.5 429 c 128,-1,70
 705 434 705 434 696 434 c 0,71,72
 682 434 682 434 656 393 c 2,73,-1
 586 284 l 2,74,75
 555 236 555 236 555 214 c 0,76,77
 555 199 555 199 559 189.5 c 128,-1,78
 563 180 563 180 570 171 c 0,79,80
 578 160 578 160 592.5 152 c 128,-1,81
 607 144 607 144 617 134 c 0,82,83
 628 124 628 124 635 110 c 128,-1,84
 642 96 642 96 642 74 c 0,85,86
 642 11 642 11 569.5 -17 c 128,-1,87
 497 -45 497 -45 300 -45 c 0,88,89
 175 -45 175 -45 110 -32.5 c 128,-1,90
 45 -20 45 -20 22.5 5.5 c 128,-1,91
 0 31 0 31 0 70 c 0,92,93
 0 120 0 120 21.5 144.5 c 128,-1,94
 43 169 43 169 66 177 c 0,95,96
 87 184 87 184 112 182.5 c 128,-1,97
 137 181 137 181 167 187 c 0,98,99
 202 194 202 194 239.5 231 c 128,-1,100
 277 268 277 268 316 325 c 2,101,-1
 508 606 l 2,102,103
 516 618 516 618 526 635 c 128,-1,104
 536 652 536 652 536 662 c 256,105,106
 536 672 536 672 523 689 c 2,107,-1
 235 1073 l 2,108,109
 217 1097 217 1097 195 1117 c 128,-1,110
 173 1137 173 1137 152 1153 c 0,111,112
 130 1168 130 1168 103 1171 c 128,-1,113
 76 1174 76 1174 54 1190 c 0,114,115
 37 1203 37 1203 27 1220.5 c 128,-1,116
 17 1238 17 1238 17 1264 c 0,117,118
 17 1336 17 1336 76 1372 c 0,119,120
 140 1412 140 1412 261 1425 c 128,-1,121
 382 1438 382 1438 535 1438 c 0,122,123
 612 1438 612 1438 666.5 1431.5 c 128,-1,124
 721 1425 721 1425 756 1410 c 0,125,126
 799 1391 799 1391 816 1359.5 c 128,-1,127
 833 1328 833 1328 833 1289 c 0,128,129
 833 1260 833 1260 827.5 1246 c 128,-1,130
 822 1232 822 1232 813 1224 c 0,131,132
 800 1212 800 1212 783 1203 c 0,133,134
 767 1195 767 1195 767 1181 c 0,135,136
 767 1164 767 1164 784 1145 c 2,137,-1
 838 1085 l 2,138,139
 849 1074 849 1074 859.5 1063 c 128,-1,140
 870 1052 870 1052 879 1052 c 0,141,142
 889 1052 889 1052 900.5 1064.5 c 128,-1,143
 912 1077 912 1077 919 1088 c 2,0,-1
EndSplineSet
EndChar

StartChar: Y
Encoding: 89 89 60
Width: 1527
Flags: W
LayerCount: 2
Fore
SplineSet
925 1093 m 2,0,-1
 971 1164 l 2,1,2
 988 1190 988 1190 988 1203 c 0,3,4
 988 1215 988 1215 984 1220.5 c 128,-1,5
 980 1226 980 1226 973 1231 c 0,6,7
 965 1237 965 1237 954.5 1240.5 c 128,-1,8
 944 1244 944 1244 934 1256 c 0,9,10
 928 1263 928 1263 923.5 1273 c 128,-1,11
 919 1283 919 1283 919 1306 c 0,12,13
 919 1349 919 1349 945 1379.5 c 128,-1,14
 971 1410 971 1410 1046.5 1426.5 c 128,-1,15
 1122 1443 1122 1443 1270 1443 c 0,16,17
 1376 1443 1376 1443 1431 1432.5 c 128,-1,18
 1486 1422 1486 1422 1506.5 1395.5 c 128,-1,19
 1527 1369 1527 1369 1527 1321 c 0,20,21
 1527 1287 1527 1287 1516 1266.5 c 128,-1,22
 1505 1246 1505 1246 1487 1235 c 0,23,24
 1462 1218 1462 1218 1430.5 1216 c 128,-1,25
 1399 1214 1399 1214 1364 1198 c 0,26,27
 1344 1189 1344 1189 1325 1172 c 128,-1,28
 1306 1155 1306 1155 1288 1132 c 2,29,-1
 1028 803 l 2,30,31
 1010 780 1010 780 1006.5 763 c 128,-1,32
 1003 746 1003 746 1003 718 c 0,33,34
 1003 526 1003 526 1005.5 429.5 c 128,-1,35
 1008 333 1008 333 1021 288 c 0,36,37
 1032 252 1032 252 1050 237 c 0,38,39
 1065 225 1065 225 1087 218.5 c 128,-1,40
 1109 212 1109 212 1123 200 c 0,41,42
 1151 177 1151 177 1151 123 c 0,43,44
 1151 95 1151 95 1138 66.5 c 128,-1,45
 1125 38 1125 38 1089 18 c 0,46,47
 1048 -5 1048 -5 969.5 -19 c 128,-1,48
 891 -33 891 -33 757 -33 c 0,49,50
 680 -33 680 -33 594.5 -28.5 c 128,-1,51
 509 -24 509 -24 445 -4 c 0,52,53
 400 11 400 11 372.5 36 c 128,-1,54
 345 61 345 61 345 95 c 0,55,56
 345 125 345 125 354 144.5 c 128,-1,57
 363 164 363 164 379 178 c 0,58,59
 397 195 397 195 423.5 204.5 c 128,-1,60
 450 214 450 214 468 232 c 0,61,62
 481 245 481 245 484.5 262 c 128,-1,63
 488 279 488 279 491 298 c 0,64,65
 495 329 495 329 495.5 370.5 c 128,-1,66
 496 412 496 412 495.5 484 c 128,-1,67
 495 556 495 556 495 678 c 0,68,69
 495 715 495 715 487 733.5 c 128,-1,70
 479 752 479 752 465 770 c 2,71,-1
 185 1116 l 2,72,73
 175 1128 175 1128 161 1143 c 128,-1,74
 147 1158 147 1158 126 1169 c 0,75,76
 105 1181 105 1181 78.5 1188.5 c 128,-1,77
 52 1196 52 1196 33 1214 c 0,78,79
 0 1244 0 1244 0 1296 c 0,80,81
 0 1330 0 1330 25 1356.5 c 128,-1,82
 50 1383 50 1383 90 1398 c 0,83,84
 162 1424 162 1424 263 1429.5 c 128,-1,85
 364 1435 364 1435 443 1435 c 0,86,87
 520 1435 520 1435 594 1431 c 128,-1,88
 668 1427 668 1427 718 1414 c 0,89,90
 767 1401 767 1401 793 1373 c 128,-1,91
 819 1345 819 1345 819 1311 c 0,92,93
 819 1283 819 1283 810.5 1269.5 c 128,-1,94
 802 1256 802 1256 792 1247 c 0,95,96
 786 1241 786 1241 778.5 1234.5 c 128,-1,97
 771 1228 771 1228 766 1222 c 0,98,99
 761 1217 761 1217 757.5 1211.5 c 128,-1,100
 754 1206 754 1206 754 1195 c 0,101,102
 754 1186 754 1186 763.5 1168.5 c 128,-1,103
 773 1151 773 1151 781 1140 c 2,104,-1
 839 1059 l 2,105,106
 849 1045 849 1045 870 1045 c 0,107,108
 887 1045 887 1045 898 1057 c 128,-1,109
 909 1069 909 1069 925 1093 c 2,0,-1
EndSplineSet
EndChar

StartChar: Z
Encoding: 90 90 61
Width: 1390
Flags: W
LayerCount: 2
Fore
SplineSet
455 -17 m 0,0,1
 412 -17 412 -17 350 -19 c 128,-1,2
 288 -21 288 -21 226 -23.5 c 128,-1,3
 164 -26 164 -26 122 -26 c 0,4,5
 82 -26 82 -26 55 -6 c 128,-1,6
 28 14 28 14 28 45 c 0,7,8
 28 77 28 77 45 104.5 c 128,-1,9
 62 132 62 132 85 174 c 2,10,-1
 577 1059 l 2,11,12
 586 1076 586 1076 595.5 1093 c 128,-1,13
 605 1110 605 1110 605 1125 c 0,14,15
 605 1154 605 1154 570.5 1169.5 c 128,-1,16
 536 1185 536 1185 488 1185 c 0,17,18
 457 1185 457 1185 426.5 1180 c 128,-1,19
 396 1175 396 1175 362 1165 c 0,20,21
 319 1153 319 1153 287 1106 c 0,22,23
 267 1078 267 1078 254 1044 c 128,-1,24
 241 1010 241 1010 229 983 c 0,25,26
 198 915 198 915 145 915 c 0,27,28
 81 915 81 915 48 963 c 128,-1,29
 15 1011 15 1011 15 1069 c 0,30,31
 15 1115 15 1115 32 1178.5 c 128,-1,32
 49 1242 49 1242 76.5 1303.5 c 128,-1,33
 104 1365 104 1365 135.5 1405.5 c 128,-1,34
 167 1446 167 1446 195 1446 c 0,35,36
 236 1446 236 1446 259.5 1436.5 c 128,-1,37
 283 1427 283 1427 319 1427 c 2,38,-1
 791 1427 l 2,39,40
 834 1427 834 1427 905 1429.5 c 128,-1,41
 976 1432 976 1432 1047 1434.5 c 128,-1,42
 1118 1437 1118 1437 1160 1437 c 0,43,44
 1207 1437 1207 1437 1236.5 1416.5 c 128,-1,45
 1266 1396 1266 1396 1266 1363 c 256,46,47
 1266 1330 1266 1330 1253.5 1305.5 c 128,-1,48
 1241 1281 1241 1281 1228 1256 c 2,49,-1
 751 344 l 2,50,51
 745 332 745 332 735 312.5 c 128,-1,52
 725 293 725 293 725 277 c 0,53,54
 725 251 725 251 756 237 c 128,-1,55
 787 223 787 223 857 223 c 0,56,57
 919 223 919 223 943 226.5 c 128,-1,58
 967 230 967 230 998 235 c 0,59,60
 1039 242 1039 242 1060.5 262 c 128,-1,61
 1082 282 1082 282 1098 306 c 0,62,63
 1124 344 1124 344 1141 386.5 c 128,-1,64
 1158 429 1158 429 1174 458 c 0,65,66
 1194 493 1194 493 1232 493 c 0,67,68
 1296 493 1296 493 1335.5 452 c 128,-1,69
 1375 411 1375 411 1375 352 c 0,70,71
 1375 250 1375 250 1342 160.5 c 128,-1,72
 1309 71 1309 71 1265 15.5 c 128,-1,73
 1221 -40 1221 -40 1188 -40 c 0,74,75
 1148 -40 1148 -40 1110.5 -29.5 c 128,-1,76
 1073 -19 1073 -19 1037 -19 c 0,77,78
 964 -19 964 -19 886 -18.5 c 128,-1,79
 808 -18 808 -18 705.5 -17.5 c 128,-1,80
 603 -17 603 -17 455 -17 c 0,0,1
EndSplineSet
EndChar

StartChar: bracketleft
Encoding: 91 91 62
Width: 930
Flags: W
LayerCount: 2
Fore
SplineSet
139 837 m 2,0,1
 139 876 139 876 138.5 943 c 128,-1,2
 138 1010 138 1010 137 1087.5 c 128,-1,3
 136 1165 136 1165 135 1237 c 128,-1,4
 134 1309 134 1309 133.5 1359.5 c 128,-1,5
 133 1410 133 1410 133 1422 c 0,6,7
 133 1478 133 1478 205 1491 c 0,8,9
 241 1498 241 1498 338 1511 c 128,-1,10
 435 1524 435 1524 575 1524 c 0,11,12
 693 1524 693 1524 754.5 1516 c 128,-1,13
 816 1508 816 1508 841 1496 c 0,14,15
 861 1487 861 1487 870.5 1465 c 128,-1,16
 880 1443 880 1443 880 1387 c 0,17,18
 880 1317 880 1317 856 1295 c 128,-1,19
 832 1273 832 1273 787 1273 c 0,20,21
 729 1273 729 1273 664.5 1271.5 c 128,-1,22
 600 1270 600 1270 572 1260 c 0,23,24
 553 1253 553 1253 544.5 1236.5 c 128,-1,25
 536 1220 536 1220 529 1177 c 256,26,27
 522 1134 522 1134 511.5 1032.5 c 128,-1,28
 501 931 501 931 501 725 c 2,29,-1
 501 463 l 2,30,31
 501 258 501 258 511.5 156 c 128,-1,32
 522 54 522 54 529 11 c 256,33,34
 536 -32 536 -32 544.5 -48.5 c 128,-1,35
 553 -65 553 -65 572 -72 c 0,36,37
 600 -82 600 -82 664.5 -83.5 c 128,-1,38
 729 -85 729 -85 787 -85 c 0,39,40
 832 -85 832 -85 856 -107 c 128,-1,41
 880 -129 880 -129 880 -199 c 0,42,43
 880 -254 880 -254 870.5 -276.5 c 128,-1,44
 861 -299 861 -299 841 -308 c 0,45,46
 816 -320 816 -320 754.5 -328 c 128,-1,47
 693 -336 693 -336 575 -336 c 0,48,49
 435 -336 435 -336 338 -323 c 128,-1,50
 241 -310 241 -310 205 -303 c 0,51,52
 133 -289 133 -289 133 -234 c 0,53,54
 133 -222 133 -222 133.5 -171.5 c 128,-1,55
 134 -121 134 -121 135 -49 c 128,-1,56
 136 23 136 23 137 100.5 c 128,-1,57
 138 178 138 178 138.5 245 c 128,-1,58
 139 312 139 312 139 351 c 2,59,-1
 139 837 l 2,0,1
EndSplineSet
EndChar

StartChar: backslash
Encoding: 92 92 63
Width: 884
Flags: W
LayerCount: 2
Fore
SplineSet
547 -112 m 0,0,1
 432 233 432 233 310 571.5 c 128,-1,2
 188 910 188 910 60 1244 c 0,3,4
 32 1320 32 1320 19 1357 c 128,-1,5
 6 1394 6 1394 13 1419 c 0,6,7
 18 1438 18 1438 59 1451.5 c 128,-1,8
 100 1465 100 1465 148.5 1472.5 c 128,-1,9
 197 1480 197 1480 223 1480 c 0,10,11
 262 1480 262 1480 284 1456 c 128,-1,12
 306 1432 306 1432 319 1396 c 0,13,14
 435 1051 435 1051 557 712.5 c 128,-1,15
 679 374 679 374 806 40 c 0,16,17
 835 -36 835 -36 857.5 -72.5 c 128,-1,18
 880 -109 880 -109 873 -135 c 0,19,20
 868 -153 868 -153 827 -167 c 128,-1,21
 786 -181 786 -181 738 -188.5 c 128,-1,22
 690 -196 690 -196 663 -196 c 0,23,24
 624 -196 624 -196 592 -172 c 128,-1,25
 560 -148 560 -148 547 -112 c 0,0,1
EndSplineSet
EndChar

StartChar: bracketright
Encoding: 93 93 64
Width: 930
Flags: W
LayerCount: 2
Fore
SplineSet
791 351 m 2,0,1
 791 312 791 312 791.5 245 c 128,-1,2
 792 178 792 178 793 100.5 c 128,-1,3
 794 23 794 23 795 -49 c 128,-1,4
 796 -121 796 -121 796.5 -171.5 c 128,-1,5
 797 -222 797 -222 797 -234 c 0,6,7
 797 -289 797 -289 725 -303 c 0,8,9
 689 -310 689 -310 592 -323 c 128,-1,10
 495 -336 495 -336 355 -336 c 0,11,12
 237 -336 237 -336 176 -328 c 128,-1,13
 115 -320 115 -320 89 -308 c 0,14,15
 70 -299 70 -299 60 -276.5 c 128,-1,16
 50 -254 50 -254 50 -199 c 0,17,18
 50 -129 50 -129 74 -107 c 128,-1,19
 98 -85 98 -85 143 -85 c 0,20,21
 202 -85 202 -85 266 -83.5 c 128,-1,22
 330 -82 330 -82 358 -72 c 0,23,24
 378 -65 378 -65 386 -48.5 c 128,-1,25
 394 -32 394 -32 401 11 c 256,26,27
 408 54 408 54 418.5 156 c 128,-1,28
 429 258 429 258 429 463 c 2,29,-1
 429 725 l 2,30,31
 429 931 429 931 418.5 1032.5 c 128,-1,32
 408 1134 408 1134 401 1177 c 256,33,34
 394 1220 394 1220 386 1236.5 c 128,-1,35
 378 1253 378 1253 358 1260 c 0,36,37
 330 1270 330 1270 266 1271.5 c 128,-1,38
 202 1273 202 1273 143 1273 c 0,39,40
 98 1273 98 1273 74 1295 c 128,-1,41
 50 1317 50 1317 50 1387 c 0,42,43
 50 1443 50 1443 60 1465 c 128,-1,44
 70 1487 70 1487 89 1496 c 0,45,46
 115 1508 115 1508 176 1516 c 128,-1,47
 237 1524 237 1524 355 1524 c 0,48,49
 495 1524 495 1524 592 1511 c 128,-1,50
 689 1498 689 1498 725 1491 c 0,51,52
 797 1478 797 1478 797 1422 c 0,53,54
 797 1410 797 1410 796.5 1359.5 c 128,-1,55
 796 1309 796 1309 795 1237 c 128,-1,56
 794 1165 794 1165 793 1087.5 c 128,-1,57
 792 1010 792 1010 791.5 943 c 128,-1,58
 791 876 791 876 791 837 c 2,59,-1
 791 351 l 2,0,1
EndSplineSet
EndChar

StartChar: asciicircum
Encoding: 94 94 65
Width: 1226
Flags: W
LayerCount: 2
Fore
SplineSet
1019 976 m 2,0,1
 1074 853 1074 853 1114 784 c 128,-1,2
 1154 715 1154 715 1177 663 c 0,3,4
 1186 641 1186 641 1186 625 c 256,5,6
 1186 609 1186 609 1149.5 588 c 128,-1,7
 1113 567 1113 567 1062 546.5 c 128,-1,8
 1011 526 1011 526 966.5 512.5 c 128,-1,9
 922 499 922 499 907 499 c 0,10,11
 884 499 884 499 875.5 507 c 128,-1,12
 867 515 867 515 861 529 c 0,13,14
 838 581 838 581 810.5 654.5 c 128,-1,15
 783 728 783 728 741 838 c 2,16,-1
 730 867 l 2,17,18
 688 978 688 978 661.5 1041.5 c 128,-1,19
 635 1105 635 1105 613 1154 c 1,20,21
 591 1105 591 1105 562.5 1041.5 c 128,-1,22
 534 978 534 978 496 867 c 2,23,-1
 486 838 l 2,24,25
 449 731 449 731 428.5 656 c 128,-1,26
 408 581 408 581 385 529 c 0,27,28
 379 515 379 515 370.5 507 c 128,-1,29
 362 499 362 499 339 499 c 0,30,31
 324 499 324 499 276.5 512.5 c 128,-1,32
 229 526 229 526 174 546.5 c 128,-1,33
 119 567 119 567 79.5 588 c 128,-1,34
 40 609 40 609 40 625 c 256,35,36
 40 641 40 641 49 663 c 0,37,38
 72 715 72 715 112 784 c 128,-1,39
 152 853 152 853 207 976 c 2,40,-1
 220 1005 l 2,41,42
 266 1108 266 1108 296.5 1174.5 c 128,-1,43
 327 1241 327 1241 347 1285 c 128,-1,44
 367 1329 367 1329 382 1363 c 0,45,46
 390 1382 390 1382 401.5 1396 c 128,-1,47
 413 1410 413 1410 450 1410 c 2,48,-1
 776 1410 l 2,49,50
 814 1410 814 1410 825 1396 c 128,-1,51
 836 1382 836 1382 844 1363 c 0,52,53
 860 1329 860 1329 879.5 1285 c 128,-1,54
 899 1241 899 1241 929.5 1174.5 c 128,-1,55
 960 1108 960 1108 1006 1005 c 2,56,-1
 1019 976 l 2,0,1
EndSplineSet
EndChar

StartChar: underscore
Encoding: 95 95 66
Width: 1024
Flags: W
LayerCount: 2
Fore
SplineSet
486 -652 m 2,0,1
 364 -652 364 -652 286 -653 c 128,-1,2
 208 -654 208 -654 159.5 -655.5 c 128,-1,3
 111 -657 111 -657 80 -658 c 128,-1,4
 49 -659 49 -659 20 -659 c 0,5,6
 0 -659 0 -659 -10 -655 c 128,-1,7
 -20 -651 -20 -651 -20 -635 c 2,8,-1
 -20 -375 l 2,9,10
 -20 -359 -20 -359 -10 -355 c 128,-1,11
 0 -351 0 -351 20 -351 c 0,12,13
 49 -351 49 -351 80 -352 c 128,-1,14
 111 -353 111 -353 159.5 -354.5 c 128,-1,15
 208 -356 208 -356 286 -357 c 128,-1,16
 364 -358 364 -358 486 -358 c 2,17,-1
 507 -358 l 2,18,19
 670 -358 670 -358 765 -356 c 128,-1,20
 860 -354 860 -354 913 -352.5 c 128,-1,21
 966 -351 966 -351 1004 -351 c 0,22,23
 1024 -351 1024 -351 1034 -355 c 128,-1,24
 1044 -359 1044 -359 1044 -375 c 2,25,-1
 1044 -635 l 2,26,27
 1044 -651 1044 -651 1034 -655 c 128,-1,28
 1024 -659 1024 -659 1004 -659 c 0,29,30
 966 -659 966 -659 913 -657 c 128,-1,31
 860 -655 860 -655 765 -653.5 c 128,-1,32
 670 -652 670 -652 507 -652 c 2,33,-1
 486 -652 l 2,0,1
EndSplineSet
EndChar

StartChar: grave
Encoding: 96 96 67
Width: 557
Flags: W
LayerCount: 2
Fore
SplineSet
216 1118 m 0,0,1
 118 1180 118 1180 80 1227 c 0,2,3
 50 1264 50 1264 50 1309 c 0,4,5
 50 1357 50 1357 93.5 1390.5 c 128,-1,6
 137 1424 137 1424 208 1424 c 0,7,8
 273 1424 273 1424 310.5 1405.5 c 128,-1,9
 348 1387 348 1387 370 1356 c 0,10,11
 390 1328 390 1328 398.5 1290 c 128,-1,12
 407 1252 407 1252 440 1222 c 0,13,14
 470 1195 470 1195 488.5 1171 c 128,-1,15
 507 1147 507 1147 507 1115 c 0,16,17
 507 1086 507 1086 482 1065.5 c 128,-1,18
 457 1045 457 1045 425 1045 c 0,19,20
 389 1045 389 1045 334.5 1061 c 128,-1,21
 280 1077 280 1077 216 1118 c 0,0,1
EndSplineSet
EndChar

StartChar: a
Encoding: 97 97 68
Width: 1186
Flags: W
LayerCount: 2
Fore
SplineSet
96 757 m 0,0,1
 96 844 96 844 162 902 c 0,2,3
 219 952 219 952 298.5 984.5 c 128,-1,4
 378 1017 378 1017 461.5 1033.5 c 128,-1,5
 545 1050 545 1050 611 1050 c 0,6,7
 722 1050 722 1050 820.5 1016 c 128,-1,8
 919 982 919 982 980.5 909 c 128,-1,9
 1042 836 1042 836 1042 719 c 2,10,-1
 1042 514 l 2,11,12
 1042 415 1042 415 1049.5 361.5 c 128,-1,13
 1057 308 1057 308 1071 286.5 c 128,-1,14
 1085 265 1085 265 1104 261 c 0,15,16
 1114 259 1114 259 1123.5 258.5 c 128,-1,17
 1133 258 1133 258 1140 257 c 0,18,19
 1159 255 1159 255 1159 228 c 0,20,21
 1159 170 1159 170 1114.5 114 c 128,-1,22
 1070 58 1070 58 996.5 21 c 128,-1,23
 923 -16 923 -16 834 -16 c 0,24,25
 777 -16 777 -16 742 -5 c 128,-1,26
 707 6 707 6 666 62 c 0,27,28
 654 79 654 79 636 79 c 0,29,30
 620 79 620 79 579 43 c 0,31,32
 524 -6 524 -6 460 -15.5 c 128,-1,33
 396 -25 396 -25 349 -25 c 0,34,35
 211 -25 211 -25 119 48.5 c 128,-1,36
 27 122 27 122 27 260 c 0,37,38
 27 362 27 362 87.5 437.5 c 128,-1,39
 148 513 148 513 251.5 554.5 c 128,-1,40
 355 596 355 596 483 596 c 0,41,42
 513 596 513 596 541.5 593.5 c 128,-1,43
 570 591 570 591 584 591 c 256,44,45
 598 591 598 591 601 598 c 128,-1,46
 604 605 604 605 604 627 c 2,47,-1
 604 641 l 2,48,49
 604 869 604 869 516 869 c 0,50,51
 491 869 491 869 473.5 858 c 128,-1,52
 456 847 456 847 438 828 c 0,53,54
 428 818 428 818 412.5 793.5 c 128,-1,55
 397 769 397 769 380 744.5 c 128,-1,56
 363 720 363 720 350 708 c 0,57,58
 322 683 322 683 287.5 664.5 c 128,-1,59
 253 646 253 646 212 646 c 0,60,61
 166 646 166 646 131 674.5 c 128,-1,62
 96 703 96 703 96 757 c 0,0,1
604 346 m 2,63,-1
 604 379 l 2,64,65
 604 391 604 391 602 403 c 128,-1,66
 600 415 600 415 594 424 c 0,67,68
 583 440 583 440 559 440 c 0,69,70
 516 440 516 440 481.5 409 c 128,-1,71
 447 378 447 378 447 322 c 0,72,73
 447 271 447 271 467.5 237.5 c 128,-1,74
 488 204 488 204 535 204 c 0,75,76
 564 204 564 204 584 228 c 128,-1,77
 604 252 604 252 604 346 c 2,63,-1
EndSplineSet
EndChar

StartChar: b
Encoding: 98 98 69
Width: 1334
Flags: W
LayerCount: 2
Fore
SplineSet
164 618 m 2,0,-1
 165 724 l 2,1,2
 165 817 165 817 164 869.5 c 128,-1,3
 163 922 163 922 159.5 950.5 c 128,-1,4
 156 979 156 979 150 1000 c 0,5,6
 146 1013 146 1013 139.5 1028 c 128,-1,7
 133 1043 133 1043 118 1051 c 0,8,9
 98 1063 98 1063 72 1067 c 128,-1,10
 46 1071 46 1071 29 1084 c 0,11,12
 0 1105 0 1105 0 1149 c 0,13,14
 0 1187 0 1187 23 1221 c 128,-1,15
 46 1255 46 1255 83 1271 c 0,16,17
 222 1332 222 1332 341.5 1360.5 c 128,-1,18
 461 1389 461 1389 552 1389 c 0,19,20
 577 1389 577 1389 594.5 1372.5 c 128,-1,21
 612 1356 612 1356 612 1336 c 0,22,23
 612 1279 612 1279 603 1219 c 128,-1,24
 594 1159 594 1159 594 1049 c 2,25,-1
 594 993 l 2,26,27
 594 945 594 945 600 925.5 c 128,-1,28
 606 906 606 906 616 906 c 256,29,30
 626 906 626 906 640.5 920.5 c 128,-1,31
 655 935 655 935 683 961 c 0,32,33
 729 1002 729 1002 790.5 1024.5 c 128,-1,34
 852 1047 852 1047 910 1047 c 0,35,36
 1031 1047 1031 1047 1118 984 c 128,-1,37
 1205 921 1205 921 1252 817.5 c 128,-1,38
 1299 714 1299 714 1299 590 c 0,39,40
 1299 436 1299 436 1246 319 c 128,-1,41
 1193 202 1193 202 1103.5 123.5 c 128,-1,42
 1014 45 1014 45 905 5 c 128,-1,43
 796 -35 796 -35 683 -35 c 0,44,45
 551 -35 551 -35 473.5 4 c 128,-1,46
 396 43 396 43 342 79 c 0,47,48
 327 89 327 89 318.5 96 c 128,-1,49
 310 103 310 103 303 103 c 256,50,51
 296 103 296 103 285.5 98 c 128,-1,52
 275 93 275 93 258 85 c 0,53,54
 242 78 242 78 220 72 c 128,-1,55
 198 66 198 66 175 66 c 0,56,57
 150 66 150 66 138.5 81.5 c 128,-1,58
 127 97 127 97 127 117 c 0,59,60
 127 150 127 150 142 196 c 128,-1,61
 157 242 157 242 157 322 c 0,62,63
 157 363 157 363 160.5 424 c 128,-1,64
 164 485 164 485 164 618 c 2,0,-1
717 173 m 0,65,66
 784 173 784 173 811 244 c 128,-1,67
 838 315 838 315 838 439 c 0,68,69
 838 537 838 537 812 594 c 128,-1,70
 786 651 786 651 750.5 676 c 128,-1,71
 715 701 715 701 684 701 c 0,72,73
 650 701 650 701 626 676.5 c 128,-1,74
 602 652 602 652 602 573 c 2,75,-1
 602 303 l 2,76,77
 602 260 602 260 623 216.5 c 128,-1,78
 644 173 644 173 717 173 c 0,65,66
EndSplineSet
EndChar

StartChar: c
Encoding: 99 99 70
Width: 1087
Flags: W
LayerCount: 2
Fore
SplineSet
638 1055 m 0,0,1
 771 1055 771 1055 865.5 1008 c 128,-1,2
 960 961 960 961 1010 887 c 128,-1,3
 1060 813 1060 813 1060 730 c 0,4,5
 1060 687 1060 687 1038 642.5 c 128,-1,6
 1016 598 1016 598 974.5 567.5 c 128,-1,7
 933 537 933 537 874 537 c 0,8,9
 804 537 804 537 755 563 c 128,-1,10
 706 589 706 589 692 640 c 0,11,12
 679 688 679 688 662.5 727.5 c 128,-1,13
 646 767 646 767 592 767 c 0,14,15
 466 767 466 767 466 598 c 0,16,17
 466 529 466 529 503.5 470.5 c 128,-1,18
 541 412 541 412 603.5 376 c 128,-1,19
 666 340 666 340 740 340 c 0,20,21
 785 340 785 340 810.5 352.5 c 128,-1,22
 836 365 836 365 862.5 377 c 128,-1,23
 889 389 889 389 936 389 c 0,24,25
 973 389 973 389 1000.5 365 c 128,-1,26
 1028 341 1028 341 1028 288 c 0,27,28
 1028 218 1028 218 965 145.5 c 128,-1,29
 902 73 902 73 793.5 24 c 128,-1,30
 685 -25 685 -25 550 -25 c 0,31,32
 440 -25 440 -25 346 17 c 128,-1,33
 252 59 252 59 182 131.5 c 128,-1,34
 112 204 112 204 73.5 295.5 c 128,-1,35
 35 387 35 387 35 486 c 0,36,37
 35 634 35 634 86.5 741.5 c 128,-1,38
 138 849 138 849 225 918.5 c 128,-1,39
 312 988 312 988 419.5 1021.5 c 128,-1,40
 527 1055 527 1055 638 1055 c 0,0,1
EndSplineSet
EndChar

StartChar: d
Encoding: 100 100 71
Width: 1346
Flags: W
LayerCount: 2
Fore
SplineSet
35 496 m 0,0,1
 35 668 35 668 103.5 791 c 128,-1,2
 172 914 172 914 288.5 979.5 c 128,-1,3
 405 1045 405 1045 548 1045 c 0,4,5
 592 1045 592 1045 621.5 1037 c 128,-1,6
 651 1029 651 1029 667 1022 c 0,7,8
 687 1014 687 1014 701 1005 c 128,-1,9
 715 996 715 996 730 996 c 0,10,11
 742 996 742 996 744 1009 c 128,-1,12
 746 1022 746 1022 746 1035 c 2,13,-1
 746 1041 l 2,14,15
 746 1061 746 1061 744.5 1080.5 c 128,-1,16
 743 1100 743 1100 735 1118 c 256,17,18
 727 1136 727 1136 701 1147 c 0,19,20
 688 1152 688 1152 675 1152.5 c 128,-1,21
 662 1153 662 1153 643 1159 c 0,22,23
 630 1163 630 1163 619.5 1177 c 128,-1,24
 609 1191 609 1191 609 1221 c 0,25,26
 609 1290 609 1290 681 1319 c 0,27,28
 757 1349 757 1349 843 1370.5 c 128,-1,29
 929 1392 929 1392 1006.5 1403.5 c 128,-1,30
 1084 1415 1084 1415 1134 1415 c 0,31,32
 1190 1415 1190 1415 1190 1372 c 0,33,34
 1190 1334 1190 1334 1188.5 1285.5 c 128,-1,35
 1187 1237 1187 1237 1185.5 1147 c 128,-1,36
 1184 1057 1184 1057 1184 894 c 2,37,-1
 1184 604 l 2,38,39
 1184 517 1184 517 1186 453.5 c 128,-1,40
 1188 390 1188 390 1188 355 c 0,41,42
 1188 325 1188 325 1195.5 299.5 c 128,-1,43
 1203 274 1203 274 1222 262 c 0,44,45
 1245 248 1245 248 1256 246.5 c 128,-1,46
 1267 245 1267 245 1287 235 c 0,47,48
 1313 222 1313 222 1319.5 205.5 c 128,-1,49
 1326 189 1326 189 1326 162 c 0,50,51
 1326 140 1326 140 1304.5 114 c 128,-1,52
 1283 88 1283 88 1234 59 c 0,53,54
 1159 15 1159 15 1061 -9 c 128,-1,55
 963 -33 963 -33 868 -33 c 0,56,57
 816 -33 816 -33 799.5 -26.5 c 128,-1,58
 783 -20 783 -20 781 8 c 0,59,60
 780 18 780 18 779.5 31 c 128,-1,61
 779 44 779 44 779 57 c 0,62,63
 779 92 779 92 750 92 c 0,64,65
 740 92 740 92 732 84 c 128,-1,66
 724 76 724 76 706 60 c 0,67,68
 654 14 654 14 608 -5.5 c 128,-1,69
 562 -25 562 -25 479 -25 c 0,70,71
 352 -25 352 -25 251.5 48 c 128,-1,72
 151 121 151 121 93 240 c 128,-1,73
 35 359 35 359 35 496 c 0,0,1
627 253 m 256,74,75
 679 253 679 253 710.5 297 c 128,-1,76
 742 341 742 341 746 465 c 2,77,-1
 754 735 l 2,78,79
 755 769 755 769 724.5 790 c 128,-1,80
 694 811 694 811 655 811 c 0,81,82
 593 811 593 811 552 732.5 c 128,-1,83
 511 654 511 654 511 508 c 0,84,85
 511 390 511 390 543 321.5 c 128,-1,86
 575 253 575 253 627 253 c 256,74,75
EndSplineSet
EndChar

StartChar: e
Encoding: 101 101 72
Width: 1090
Flags: W
LayerCount: 2
Fore
SplineSet
613 1055 m 0,0,1
 709 1055 709 1055 790.5 1018.5 c 128,-1,2
 872 982 872 982 932.5 921 c 128,-1,3
 993 860 993 860 1026.5 785 c 128,-1,4
 1060 710 1060 710 1060 633 c 0,5,6
 1060 583 1060 583 1045.5 545.5 c 128,-1,7
 1031 508 1031 508 1023 499 c 0,8,9
 1010 485 1010 485 991 479 c 128,-1,10
 972 473 972 473 909 473 c 2,11,-1
 515 475 l 2,12,13
 455 475 455 475 455 438 c 0,14,15
 455 420 455 420 465 397 c 0,16,17
 488 345 488 345 544.5 295 c 128,-1,18
 601 245 601 245 685 245 c 0,19,20
 755 245 755 245 808 268 c 128,-1,21
 861 291 861 291 897.5 313.5 c 128,-1,22
 934 336 934 336 951 336 c 0,23,24
 978 336 978 336 1003.5 307 c 128,-1,25
 1029 278 1029 278 1029 232 c 0,26,27
 1029 194 1029 194 990.5 148 c 128,-1,28
 952 102 952 102 886.5 60 c 128,-1,29
 821 18 821 18 739.5 -9 c 128,-1,30
 658 -36 658 -36 572 -36 c 0,31,32
 415 -36 415 -36 294 30.5 c 128,-1,33
 173 97 173 97 104 219.5 c 128,-1,34
 35 342 35 342 35 509 c 0,35,36
 35 646 35 646 85.5 748 c 128,-1,37
 136 850 136 850 220 918.5 c 128,-1,38
 304 987 304 987 406.5 1021 c 128,-1,39
 509 1055 509 1055 613 1055 c 0,0,1
613 662 m 2,40,41
 648 662 648 662 669.5 672 c 128,-1,42
 691 682 691 682 691 707 c 0,43,44
 691 778 691 778 660.5 819 c 128,-1,45
 630 860 630 860 577 860 c 0,46,47
 530 860 530 860 503 833.5 c 128,-1,48
 476 807 476 807 465 774 c 0,49,50
 456 749 456 749 455 727.5 c 128,-1,51
 454 706 454 706 454 692 c 0,52,53
 454 675 454 675 471.5 669.5 c 128,-1,54
 489 664 489 664 520 664 c 2,55,-1
 613 662 l 2,40,41
EndSplineSet
EndChar

StartChar: f
Encoding: 102 102 73
Width: 853
Flags: W
LayerCount: 2
Fore
SplineSet
136 600 m 2,0,-1
 75 600 l 2,1,2
 15 600 15 600 15 655 c 0,3,4
 15 729 15 729 35 797 c 0,5,6
 42 820 42 820 67 820 c 2,7,-1
 92 820 l 2,8,9
 121 820 121 820 121 848 c 2,10,-1
 121 851 l 2,11,12
 121 880 121 880 103.5 901 c 128,-1,13
 86 922 86 922 68 958.5 c 128,-1,14
 50 995 50 995 50 1069 c 0,15,16
 50 1168 50 1168 91 1234.5 c 128,-1,17
 132 1301 132 1301 197 1340 c 128,-1,18
 262 1379 262 1379 336 1395.5 c 128,-1,19
 410 1412 410 1412 476 1412 c 0,20,21
 600 1412 600 1412 683.5 1373.5 c 128,-1,22
 767 1335 767 1335 810 1276.5 c 128,-1,23
 853 1218 853 1218 853 1157 c 0,24,25
 853 1087 853 1087 807.5 1039.5 c 128,-1,26
 762 992 762 992 701 992 c 0,27,28
 636 992 636 992 598 1018.5 c 128,-1,29
 560 1045 560 1045 534 1080 c 128,-1,30
 508 1115 508 1115 482.5 1141.5 c 128,-1,31
 457 1168 457 1168 416 1168 c 0,32,33
 391 1168 391 1168 373 1147.5 c 128,-1,34
 355 1127 355 1127 355 1092 c 0,35,36
 355 1049 355 1049 386.5 1015 c 128,-1,37
 418 981 418 981 459.5 955 c 128,-1,38
 501 929 501 929 535 907 c 128,-1,39
 569 885 569 885 574 865 c 2,40,-1
 575 861 l 2,41,42
 580 841 580 841 596.5 836.5 c 128,-1,43
 613 832 613 832 632 832 c 2,44,-1
 724 832 l 2,45,46
 758 832 758 832 775 826.5 c 128,-1,47
 792 821 792 821 792 795 c 0,48,49
 792 783 792 783 790 756 c 128,-1,50
 788 729 788 729 785 702 c 128,-1,51
 782 675 782 675 781 663 c 0,52,53
 777 628 777 628 771 615.5 c 128,-1,54
 765 603 765 603 735 603 c 2,55,-1
 674 603 l 2,56,57
 631 603 631 603 616.5 582.5 c 128,-1,58
 602 562 602 562 602 519 c 2,59,-1
 602 512 l 2,60,61
 602 442 602 442 606.5 399 c 128,-1,62
 611 356 611 356 615 328 c 0,63,64
 620 295 620 295 630.5 275 c 128,-1,65
 641 255 641 255 657 243 c 0,66,67
 679 226 679 226 703 221 c 128,-1,68
 727 216 727 216 747 202 c 0,69,70
 782 177 782 177 782 126 c 0,71,72
 782 68 782 68 727 37 c 128,-1,73
 672 6 672 6 579.5 -6 c 128,-1,74
 487 -18 487 -18 372 -18 c 0,75,76
 222 -18 222 -18 126.5 11 c 128,-1,77
 31 40 31 40 31 117 c 0,78,79
 31 144 31 144 44.5 163.5 c 128,-1,80
 58 183 58 183 72 193 c 0,81,82
 88 204 88 204 104 209.5 c 128,-1,83
 120 215 120 215 137 229 c 0,84,85
 161 248 161 248 167 304 c 0,86,87
 172 349 172 349 176.5 414 c 128,-1,88
 181 479 181 479 181 512 c 2,89,-1
 181 536 l 2,90,91
 181 565 181 565 173 582.5 c 128,-1,92
 165 600 165 600 136 600 c 2,0,-1
EndSplineSet
EndChar

StartChar: g
Encoding: 103 103 74
Width: 1154
Flags: W
LayerCount: 2
Fore
SplineSet
43 656 m 0,0,1
 43 748 43 748 84.5 819 c 128,-1,2
 126 890 126 890 195.5 938.5 c 128,-1,3
 265 987 265 987 349 1012.5 c 128,-1,4
 433 1038 433 1038 518 1038 c 0,5,6
 607 1038 607 1038 647.5 1029.5 c 128,-1,7
 688 1021 688 1021 725 1005 c 0,8,9
 740 999 740 999 759 993 c 128,-1,10
 778 987 778 987 805 987 c 0,11,12
 819 987 819 987 833.5 992.5 c 128,-1,13
 848 998 848 998 861 1003 c 0,14,15
 901 1020 901 1020 932.5 1044.5 c 128,-1,16
 964 1069 964 1069 990.5 1088 c 128,-1,17
 1017 1107 1017 1107 1042 1107 c 0,18,19
 1068 1107 1068 1107 1094.5 1074.5 c 128,-1,20
 1121 1042 1121 1042 1121 988 c 0,21,22
 1121 930 1121 930 1104.5 889.5 c 128,-1,23
 1088 849 1088 849 1055 814 c 0,24,25
 1041 799 1041 799 1031 792 c 128,-1,26
 1021 785 1021 785 1021 777 c 0,27,28
 1021 767 1021 767 1022.5 740 c 128,-1,29
 1024 713 1024 713 1024 693 c 0,30,31
 1024 599 1024 599 979.5 529.5 c 128,-1,32
 935 460 935 460 862 414.5 c 128,-1,33
 789 369 789 369 701 347 c 128,-1,34
 613 325 613 325 527 325 c 0,35,36
 489 325 489 325 464.5 331 c 128,-1,37
 440 337 440 337 429 337 c 256,38,39
 418 337 418 337 407 331 c 0,40,41
 396 324 396 324 396 313 c 0,42,43
 396 279 396 279 436 261 c 128,-1,44
 476 243 476 243 519 243 c 0,45,46
 563 243 563 243 606 253.5 c 128,-1,47
 649 264 649 264 708.5 274 c 128,-1,48
 768 284 768 284 861 284 c 0,49,50
 977 284 977 284 1058 217.5 c 128,-1,51
 1139 151 1139 151 1139 17 c 0,52,53
 1139 -83 1139 -83 1086.5 -163 c 128,-1,54
 1034 -243 1034 -243 946 -299 c 128,-1,55
 858 -355 858 -355 749.5 -384.5 c 128,-1,56
 641 -414 641 -414 529 -414 c 0,57,58
 359 -414 359 -414 247.5 -375 c 128,-1,59
 136 -336 136 -336 81.5 -272.5 c 128,-1,60
 27 -209 27 -209 27 -137 c 0,61,62
 27 -87 27 -87 51.5 -49 c 128,-1,63
 76 -11 76 -11 113 8 c 0,64,65
 122 13 122 13 122 17 c 256,66,67
 122 21 122 21 113 28 c 0,68,69
 94 43 94 43 60.5 79.5 c 128,-1,70
 27 116 27 116 27 182 c 0,71,72
 27 271 27 271 73.5 316.5 c 128,-1,73
 120 362 120 362 165 385 c 0,74,75
 187 396 187 396 187 399 c 0,76,77
 187 401 187 401 165 415 c 0,78,79
 114 447 114 447 78.5 515 c 128,-1,80
 43 583 43 583 43 656 c 0,0,1
552 521 m 0,81,82
 581 521 581 521 598 548.5 c 128,-1,83
 615 576 615 576 615 625 c 0,84,85
 615 832 615 832 527 832 c 0,86,87
 457 832 457 832 457 723 c 0,88,89
 457 612 457 612 485 566.5 c 128,-1,90
 513 521 513 521 552 521 c 0,81,82
330 -96 m 0,91,92
 330 -132 330 -132 385 -167.5 c 128,-1,93
 440 -203 440 -203 559 -203 c 0,94,95
 629 -203 629 -203 668 -176.5 c 128,-1,96
 707 -150 707 -150 707 -122 c 0,97,98
 707 -102 707 -102 693.5 -93 c 128,-1,99
 680 -84 680 -84 645 -84 c 0,100,101
 611 -84 611 -84 571 -90 c 128,-1,102
 531 -96 531 -96 463 -96 c 0,103,104
 415 -96 415 -96 389.5 -92 c 128,-1,105
 364 -88 364 -88 352 -84 c 0,106,107
 342 -80 342 -80 338 -80 c 256,108,109
 334 -80 334 -80 332 -83 c 0,110,111
 330 -87 330 -87 330 -96 c 0,91,92
EndSplineSet
EndChar

StartChar: h
Encoding: 104 104 75
Width: 1372
Flags: W
LayerCount: 2
Fore
SplineSet
156 506 m 2,0,-1
 156 674 l 2,1,2
 156 852 156 852 149 958 c 128,-1,3
 142 1064 142 1064 125 1086 c 0,4,5
 109 1107 109 1107 88 1114 c 128,-1,6
 67 1121 67 1121 50 1135 c 0,7,8
 38 1145 38 1145 29 1159.5 c 128,-1,9
 20 1174 20 1174 20 1193 c 0,10,11
 20 1222 20 1222 32 1246 c 128,-1,12
 44 1270 44 1270 91 1295 c 0,13,14
 135 1319 135 1319 208 1344.5 c 128,-1,15
 281 1370 281 1370 366 1387.5 c 128,-1,16
 451 1405 451 1405 531 1405 c 0,17,18
 562 1405 562 1405 580 1399 c 128,-1,19
 598 1393 598 1393 598 1364 c 0,20,21
 598 1327 598 1327 593.5 1200 c 128,-1,22
 589 1073 589 1073 589 902 c 0,23,24
 589 852 589 852 619 852 c 0,25,26
 629 852 629 852 638 860.5 c 128,-1,27
 647 869 647 869 662 892 c 0,28,29
 710 967 710 967 775.5 995 c 128,-1,30
 841 1023 841 1023 920 1023 c 0,31,32
 1012 1023 1012 1023 1081.5 991 c 128,-1,33
 1151 959 1151 959 1184 914 c 0,34,35
 1205 885 1205 885 1219.5 855 c 128,-1,36
 1234 825 1234 825 1242 777.5 c 128,-1,37
 1250 730 1250 730 1253.5 649.5 c 128,-1,38
 1257 569 1257 569 1257 439 c 0,39,40
 1257 397 1257 397 1259 340.5 c 128,-1,41
 1261 284 1261 284 1264 257 c 0,42,43
 1269 211 1269 211 1283 190 c 0,44,45
 1293 176 1293 176 1306.5 169 c 128,-1,46
 1320 162 1320 162 1329 153 c 0,47,48
 1340 143 1340 143 1346 130 c 128,-1,49
 1352 117 1352 117 1352 94 c 0,50,51
 1352 66 1352 66 1326.5 39.5 c 128,-1,52
 1301 13 1301 13 1237.5 -4 c 128,-1,53
 1174 -21 1174 -21 1059 -21 c 0,54,55
 909 -21 909 -21 825.5 -2 c 128,-1,56
 742 17 742 17 742 88 c 0,57,58
 742 112 742 112 746.5 124.5 c 128,-1,59
 751 137 751 137 759 146 c 0,60,61
 765 153 765 153 775 160.5 c 128,-1,62
 785 168 785 168 794 182 c 0,63,64
 800 192 800 192 804 208.5 c 128,-1,65
 808 225 808 225 812 251 c 0,66,67
 818 287 818 287 820 341.5 c 128,-1,68
 822 396 822 396 822 466 c 0,69,70
 822 612 822 612 787.5 661.5 c 128,-1,71
 753 711 753 711 692 711 c 0,72,73
 613 711 613 711 598.5 655.5 c 128,-1,74
 584 600 584 600 584 469 c 0,75,76
 584 296 584 296 587 242 c 0,77,78
 588 222 588 222 594.5 211.5 c 128,-1,79
 601 201 601 201 608 193 c 0,80,81
 621 180 621 180 630 170.5 c 128,-1,82
 639 161 639 161 646 150 c 0,83,84
 651 142 651 142 656 129.5 c 128,-1,85
 661 117 661 117 661 103 c 0,86,87
 661 27 661 27 573.5 3.5 c 128,-1,88
 486 -20 486 -20 337 -20 c 0,89,90
 202 -20 202 -20 113.5 13.5 c 128,-1,91
 25 47 25 47 25 105 c 0,92,93
 25 125 25 125 29.5 136.5 c 128,-1,94
 34 148 34 148 41 157 c 0,95,96
 52 169 52 169 66 176 c 128,-1,97
 80 183 80 183 95 196 c 0,98,99
 108 208 108 208 119 226 c 128,-1,100
 130 244 130 244 137 277 c 0,101,102
 146 324 146 324 151 388 c 128,-1,103
 156 452 156 452 156 506 c 2,0,-1
EndSplineSet
EndChar

StartChar: i
Encoding: 105 105 76
Width: 727
Flags: W
LayerCount: 2
Fore
SplineSet
38 1243 m 0,0,1
 38 1312 38 1312 95.5 1355 c 128,-1,2
 153 1398 153 1398 237 1418 c 128,-1,3
 321 1438 321 1438 399 1438 c 0,4,5
 494 1438 494 1438 546 1399.5 c 128,-1,6
 598 1361 598 1361 598 1303 c 0,7,8
 598 1240 598 1240 545.5 1193 c 128,-1,9
 493 1146 493 1146 409.5 1120 c 128,-1,10
 326 1094 326 1094 232 1094 c 0,11,12
 152 1094 152 1094 95 1132.5 c 128,-1,13
 38 1171 38 1171 38 1243 c 0,0,1
150 421 m 2,14,-1
 150 479 l 2,15,16
 150 523 150 523 148 572.5 c 128,-1,17
 146 622 146 622 139.5 663 c 128,-1,18
 133 704 133 704 121 720 c 0,19,20
 106 740 106 740 82.5 746 c 128,-1,21
 59 752 59 752 47 763 c 0,22,23
 20 787 20 787 20 820 c 0,24,25
 20 868 20 868 46.5 893.5 c 128,-1,26
 73 919 73 919 155 954 c 0,27,28
 209 977 209 977 284 997.5 c 128,-1,29
 359 1018 359 1018 430.5 1031 c 128,-1,30
 502 1044 502 1044 548 1044 c 0,31,32
 579 1044 579 1044 591 1033.5 c 128,-1,33
 603 1023 603 1023 603 995 c 0,34,35
 603 957 603 957 602 911 c 128,-1,36
 601 865 601 865 599.5 792.5 c 128,-1,37
 598 720 598 720 598 602 c 2,38,-1
 598 424 l 2,39,40
 598 367 598 367 599 330.5 c 128,-1,41
 600 294 600 294 604 269 c 0,42,43
 607 247 607 247 616 231 c 128,-1,44
 625 215 625 215 634 206 c 0,45,46
 646 194 646 194 659.5 188.5 c 128,-1,47
 673 183 673 183 684 171 c 0,48,49
 696 159 696 159 701.5 143.5 c 128,-1,50
 707 128 707 128 707 97 c 0,51,52
 707 25 707 25 614.5 -2.5 c 128,-1,53
 522 -30 522 -30 373 -30 c 0,54,55
 216 -30 216 -30 119.5 -3.5 c 128,-1,56
 23 23 23 23 23 96 c 0,57,58
 23 137 23 137 46 162 c 0,59,60
 58 176 58 176 73.5 184 c 128,-1,61
 89 192 89 192 103 203 c 0,62,63
 129 224 129 224 136 251 c 0,64,65
 145 287 145 287 147.5 322.5 c 128,-1,66
 150 358 150 358 150 421 c 2,14,-1
EndSplineSet
EndChar

StartChar: j
Encoding: 106 106 77
Width: 787
Flags: W
LayerCount: 2
Fore
SplineSet
37 1247 m 0,0,1
 37 1316 37 1316 94.5 1359 c 128,-1,2
 152 1402 152 1402 236 1422 c 128,-1,3
 320 1442 320 1442 398 1442 c 0,4,5
 493 1442 493 1442 545 1403.5 c 128,-1,6
 597 1365 597 1365 597 1307 c 0,7,8
 597 1244 597 1244 544.5 1197 c 128,-1,9
 492 1150 492 1150 408.5 1124 c 128,-1,10
 325 1098 325 1098 231 1098 c 0,11,12
 151 1098 151 1098 94 1136.5 c 128,-1,13
 37 1175 37 1175 37 1247 c 0,0,1
162 519 m 2,14,15
 162 599 162 599 160 637 c 128,-1,16
 158 675 158 675 144 692 c 0,17,18
 128 713 128 713 101 719 c 128,-1,19
 74 725 74 725 52 741 c 0,20,21
 40 750 40 750 29.5 767.5 c 128,-1,22
 19 785 19 785 19 811 c 0,23,24
 19 882 19 882 101 920 c 0,25,26
 238 984 238 984 357.5 1011 c 128,-1,27
 477 1038 477 1038 583 1038 c 0,28,29
 614 1038 614 1038 636.5 1023 c 128,-1,30
 659 1008 659 1008 659 973 c 2,31,-1
 659 204 l 2,32,33
 659 94 659 94 658 18 c 128,-1,34
 657 -58 657 -58 650 -117 c 0,35,36
 634 -248 634 -248 551.5 -317 c 128,-1,37
 469 -386 469 -386 284 -386 c 0,38,39
 211 -386 211 -386 146 -367 c 128,-1,40
 81 -348 81 -348 41 -312 c 128,-1,41
 1 -276 1 -276 1 -226 c 0,42,43
 1 -194 1 -194 22 -167 c 128,-1,44
 43 -140 43 -140 81 -140 c 0,45,46
 94 -140 94 -140 103.5 -140.5 c 128,-1,47
 113 -141 113 -141 121 -142 c 0,48,49
 130 -143 130 -143 137 -144 c 128,-1,50
 144 -145 144 -145 150 -145 c 0,51,52
 196 -145 196 -145 196 -112 c 0,53,54
 196 -99 196 -99 188 -85.5 c 128,-1,55
 180 -72 180 -72 171.5 -39.5 c 128,-1,56
 163 -7 163 -7 163 61 c 2,57,-1
 162 519 l 2,14,15
EndSplineSet
EndChar

StartChar: k
Encoding: 107 107 78
Width: 1555
Flags: W
LayerCount: 2
Fore
SplineSet
189 591 m 2,0,-1
 189 901 l 2,1,2
 189 965 189 965 185 1012 c 128,-1,3
 181 1059 181 1059 162 1080 c 0,4,5
 138 1106 138 1106 102 1105 c 128,-1,6
 66 1104 66 1104 46 1117 c 0,7,8
 20 1134 20 1134 20 1176 c 0,9,10
 20 1226 20 1226 86 1261 c 0,11,12
 167 1304 167 1304 252.5 1338 c 128,-1,13
 338 1372 338 1372 415 1391.5 c 128,-1,14
 492 1411 492 1411 547 1411 c 0,15,16
 593 1411 593 1411 619.5 1392.5 c 128,-1,17
 646 1374 646 1374 646 1331 c 0,18,19
 646 1303 646 1303 642 1279.5 c 128,-1,20
 638 1256 638 1256 634 1219 c 128,-1,21
 630 1182 630 1182 630 1114 c 2,22,-1
 630 796 l 2,23,24
 630 780 630 780 637.5 760.5 c 128,-1,25
 645 741 645 741 667 741 c 0,26,27
 678 741 678 741 687 743 c 128,-1,28
 696 745 696 745 714 754 c 2,29,-1
 795 795 l 2,30,31
 844 820 844 820 844 834 c 0,32,33
 844 847 844 847 836 856 c 0,34,35
 833 861 833 861 826.5 866 c 128,-1,36
 820 871 820 871 816 877 c 0,37,38
 802 896 802 896 802 924 c 0,39,40
 802 971 802 971 864.5 1003 c 128,-1,41
 927 1035 927 1035 1084 1035 c 0,42,43
 1247 1035 1247 1035 1317.5 1005.5 c 128,-1,44
 1388 976 1388 976 1388 894 c 0,45,46
 1388 871 1388 871 1377.5 858.5 c 128,-1,47
 1367 846 1367 846 1350 840 c 0,48,49
 1329 833 1329 833 1302.5 833 c 128,-1,50
 1276 833 1276 833 1250 829 c 0,51,52
 1220 824 1220 824 1196 807 c 2,53,-1
 1078 720 l 2,54,55
 1059 703 1059 703 1059.5 691.5 c 128,-1,56
 1060 680 1060 680 1080 653 c 2,57,-1
 1377 272 l 2,58,59
 1394 250 1394 250 1412.5 236.5 c 128,-1,60
 1431 223 1431 223 1447 213 c 0,61,62
 1464 203 1464 203 1482 197 c 128,-1,63
 1500 191 1500 191 1513 183 c 0,64,65
 1532 171 1532 171 1543.5 151.5 c 128,-1,66
 1555 132 1555 132 1555 91 c 0,67,68
 1555 51 1555 51 1527 21 c 128,-1,69
 1499 -9 1499 -9 1431 -9 c 2,70,-1
 1181 -9 l 2,71,72
 1096 -9 1096 -9 1048 -11.5 c 128,-1,73
 1000 -14 1000 -14 979 2 c 0,74,75
 966 12 966 12 948.5 35 c 128,-1,76
 931 58 931 58 884 122 c 2,77,-1
 726 340 l 2,78,79
 712 359 712 359 702 368.5 c 128,-1,80
 692 378 692 378 679 378 c 0,81,82
 669 378 669 378 658 367 c 128,-1,83
 647 356 647 356 647 330 c 0,84,85
 647 307 647 307 647.5 282 c 128,-1,86
 648 257 648 257 651 237 c 0,87,88
 655 209 655 209 674 191 c 0,89,90
 684 182 684 182 696 175.5 c 128,-1,91
 708 169 708 169 718 161 c 0,92,93
 731 151 731 151 738.5 136 c 128,-1,94
 746 121 746 121 746 97 c 0,95,96
 746 40 746 40 697 14.5 c 128,-1,97
 648 -11 648 -11 566 -18 c 128,-1,98
 484 -25 484 -25 384 -25 c 0,99,100
 294 -25 294 -25 220 -15 c 128,-1,101
 146 -5 146 -5 102 20 c 128,-1,102
 58 45 58 45 58 88 c 0,103,104
 58 120 58 120 73 137 c 0,105,106
 84 150 84 150 103.5 159.5 c 128,-1,107
 123 169 123 169 138 182 c 0,108,109
 170 212 170 212 180 269 c 0,110,111
 185 296 185 296 187 389.5 c 128,-1,112
 189 483 189 483 189 591 c 2,0,-1
EndSplineSet
EndChar

StartChar: l
Encoding: 108 108 79
Width: 760
Flags: W
LayerCount: 2
Fore
SplineSet
204 591 m 2,0,-1
 204 813 l 2,1,2
 204 923 204 923 188.5 991 c 128,-1,3
 173 1059 173 1059 134 1082 c 0,4,5
 111 1095 111 1095 96 1098 c 128,-1,6
 81 1101 81 1101 67 1106 c 0,7,8
 20 1122 20 1122 20 1172 c 0,9,10
 20 1211 20 1211 35 1235 c 128,-1,11
 50 1259 50 1259 82 1279 c 0,12,13
 148 1321 148 1321 236.5 1350.5 c 128,-1,14
 325 1380 325 1380 413.5 1395.5 c 128,-1,15
 502 1411 502 1411 567 1411 c 0,16,17
 598 1411 598 1411 615.5 1402.5 c 128,-1,18
 633 1394 633 1394 633 1361 c 0,19,20
 633 1298 633 1298 628.5 1211 c 128,-1,21
 624 1124 624 1124 619 1026.5 c 128,-1,22
 614 929 614 929 614 836 c 2,23,-1
 614 604 l 2,24,25
 614 476 614 476 617.5 405.5 c 128,-1,26
 621 335 621 335 627.5 299 c 128,-1,27
 634 263 634 263 642 240 c 0,28,29
 648 222 648 222 657 211 c 128,-1,30
 666 200 666 200 675 193 c 0,31,32
 687 184 687 184 699.5 178 c 128,-1,33
 712 172 712 172 722 163 c 0,34,35
 730 155 730 155 735 143.5 c 128,-1,36
 740 132 740 132 740 110 c 0,37,38
 740 53 740 53 668 19 c 128,-1,39
 596 -15 596 -15 417 -15 c 0,40,41
 230 -15 230 -15 135 7 c 128,-1,42
 40 29 40 29 40 94 c 0,43,44
 40 123 40 123 52 139 c 128,-1,45
 64 155 64 155 78 163 c 0,46,47
 90 170 90 170 105 176 c 128,-1,48
 120 182 120 182 131 188 c 0,49,50
 144 195 144 195 155 207 c 128,-1,51
 166 219 166 219 171 240 c 0,52,53
 182 283 182 283 193 375.5 c 128,-1,54
 204 468 204 468 204 591 c 2,0,-1
EndSplineSet
EndChar

StartChar: m
Encoding: 109 109 80
Width: 2042
Flags: W
LayerCount: 2
Fore
SplineSet
156 481 m 2,0,-1
 156 559 l 2,1,2
 156 609 156 609 149 644 c 128,-1,3
 142 679 142 679 125 701 c 0,4,5
 109 722 109 722 88 729 c 128,-1,6
 67 736 67 736 50 750 c 0,7,8
 38 760 38 760 29 774.5 c 128,-1,9
 20 789 20 789 20 808 c 0,10,11
 20 837 20 837 32 861 c 128,-1,12
 44 885 44 885 91 910 c 0,13,14
 135 934 135 934 207 965 c 128,-1,15
 279 996 279 996 363.5 1019.5 c 128,-1,16
 448 1043 448 1043 528 1043 c 0,17,18
 559 1043 559 1043 577 1036.5 c 128,-1,19
 595 1030 595 1030 595 1001 c 0,20,21
 595 979 595 979 592 953.5 c 128,-1,22
 589 928 589 928 589 907 c 0,23,24
 589 857 589 857 619 857 c 0,25,26
 629 857 629 857 638 865.5 c 128,-1,27
 647 874 647 874 662 897 c 0,28,29
 710 972 710 972 778 1000 c 128,-1,30
 846 1028 846 1028 940 1028 c 0,31,32
 1062 1028 1062 1028 1114 995.5 c 128,-1,33
 1166 963 1166 963 1194 919 c 0,34,35
 1210 893 1210 893 1224.5 875 c 128,-1,36
 1239 857 1239 857 1259 857 c 0,37,38
 1270 857 1270 857 1278.5 865.5 c 128,-1,39
 1287 874 1287 874 1302 897 c 0,40,41
 1350 972 1350 972 1430.5 1000 c 128,-1,42
 1511 1028 1511 1028 1590 1028 c 0,43,44
 1682 1028 1682 1028 1751.5 996 c 128,-1,45
 1821 964 1821 964 1854 919 c 0,46,47
 1875 890 1875 890 1889.5 860 c 128,-1,48
 1904 830 1904 830 1912 782.5 c 128,-1,49
 1920 735 1920 735 1923.5 654.5 c 128,-1,50
 1927 574 1927 574 1927 444 c 0,51,52
 1927 402 1927 402 1929 345.5 c 128,-1,53
 1931 289 1931 289 1934 262 c 0,54,55
 1939 216 1939 216 1953 195 c 0,56,57
 1963 181 1963 181 1976.5 174 c 128,-1,58
 1990 167 1990 167 1999 158 c 0,59,60
 2010 148 2010 148 2016 135 c 128,-1,61
 2022 122 2022 122 2022 99 c 0,62,63
 2022 71 2022 71 1996.5 44.5 c 128,-1,64
 1971 18 1971 18 1907.5 1 c 128,-1,65
 1844 -16 1844 -16 1729 -16 c 0,66,67
 1579 -16 1579 -16 1495.5 3 c 128,-1,68
 1412 22 1412 22 1412 93 c 0,69,70
 1412 117 1412 117 1416.5 129.5 c 128,-1,71
 1421 142 1421 142 1429 151 c 0,72,73
 1435 158 1435 158 1445 165.5 c 128,-1,74
 1455 173 1455 173 1464 187 c 0,75,76
 1470 197 1470 197 1474 213.5 c 128,-1,77
 1478 230 1478 230 1482 256 c 0,78,79
 1488 292 1488 292 1490 346.5 c 128,-1,80
 1492 401 1492 401 1492 471 c 0,81,82
 1492 617 1492 617 1457.5 666.5 c 128,-1,83
 1423 716 1423 716 1362 716 c 0,84,85
 1315 716 1315 716 1292.5 676.5 c 128,-1,86
 1270 637 1270 637 1263.5 575 c 128,-1,87
 1257 513 1257 513 1257 444 c 0,88,89
 1257 402 1257 402 1259 345.5 c 128,-1,90
 1261 289 1261 289 1264 262 c 0,91,92
 1269 216 1269 216 1283 195 c 0,93,94
 1293 181 1293 181 1306.5 174 c 128,-1,95
 1320 167 1320 167 1329 158 c 0,96,97
 1340 148 1340 148 1346 135 c 128,-1,98
 1352 122 1352 122 1352 99 c 0,99,100
 1352 71 1352 71 1326.5 44.5 c 128,-1,101
 1301 18 1301 18 1237.5 1 c 128,-1,102
 1174 -16 1174 -16 1059 -16 c 0,103,104
 909 -16 909 -16 825.5 3 c 128,-1,105
 742 22 742 22 742 93 c 0,106,107
 742 117 742 117 746.5 129.5 c 128,-1,108
 751 142 751 142 759 151 c 0,109,110
 765 158 765 158 775 165.5 c 128,-1,111
 785 173 785 173 794 187 c 0,112,113
 800 197 800 197 804 213.5 c 128,-1,114
 808 230 808 230 812 256 c 0,115,116
 818 292 818 292 820 346.5 c 128,-1,117
 822 401 822 401 822 471 c 0,118,119
 822 617 822 617 787.5 666.5 c 128,-1,120
 753 716 753 716 692 716 c 0,121,122
 613 716 613 716 598.5 660.5 c 128,-1,123
 584 605 584 605 584 474 c 0,124,125
 584 301 584 301 587 247 c 0,126,127
 588 227 588 227 594.5 216.5 c 128,-1,128
 601 206 601 206 608 198 c 0,129,130
 621 185 621 185 630 175.5 c 128,-1,131
 639 166 639 166 646 155 c 0,132,133
 651 147 651 147 656 134.5 c 128,-1,134
 661 122 661 122 661 108 c 0,135,136
 661 32 661 32 573.5 8.5 c 128,-1,137
 486 -15 486 -15 337 -15 c 0,138,139
 202 -15 202 -15 113.5 18.5 c 128,-1,140
 25 52 25 52 25 110 c 0,141,142
 25 130 25 130 29.5 141.5 c 128,-1,143
 34 153 34 153 41 162 c 0,144,145
 52 174 52 174 66 181 c 128,-1,146
 80 188 80 188 95 201 c 0,147,148
 108 213 108 213 119 231 c 128,-1,149
 130 249 130 249 137 282 c 0,150,151
 156 375 156 375 156 481 c 2,0,-1
EndSplineSet
EndChar

StartChar: n
Encoding: 110 110 81
Width: 1372
Flags: W
LayerCount: 2
Fore
SplineSet
156 481 m 2,0,-1
 156 559 l 2,1,2
 156 609 156 609 149 644 c 128,-1,3
 142 679 142 679 125 701 c 0,4,5
 109 722 109 722 88 729 c 128,-1,6
 67 736 67 736 50 750 c 0,7,8
 38 760 38 760 29 774.5 c 128,-1,9
 20 789 20 789 20 808 c 0,10,11
 20 837 20 837 32 861 c 128,-1,12
 44 885 44 885 91 910 c 0,13,14
 135 934 135 934 207 965 c 128,-1,15
 279 996 279 996 363.5 1019.5 c 128,-1,16
 448 1043 448 1043 528 1043 c 0,17,18
 559 1043 559 1043 577 1036.5 c 128,-1,19
 595 1030 595 1030 595 1001 c 0,20,21
 595 979 595 979 592 953.5 c 128,-1,22
 589 928 589 928 589 907 c 0,23,24
 589 857 589 857 619 857 c 0,25,26
 629 857 629 857 638 865.5 c 128,-1,27
 647 874 647 874 662 897 c 0,28,29
 710 972 710 972 775.5 1000 c 128,-1,30
 841 1028 841 1028 920 1028 c 0,31,32
 1012 1028 1012 1028 1081.5 996 c 128,-1,33
 1151 964 1151 964 1184 919 c 0,34,35
 1205 890 1205 890 1219.5 860 c 128,-1,36
 1234 830 1234 830 1242 782.5 c 128,-1,37
 1250 735 1250 735 1253.5 654.5 c 128,-1,38
 1257 574 1257 574 1257 444 c 0,39,40
 1257 402 1257 402 1259 345.5 c 128,-1,41
 1261 289 1261 289 1264 262 c 0,42,43
 1269 216 1269 216 1283 195 c 0,44,45
 1293 181 1293 181 1306.5 174 c 128,-1,46
 1320 167 1320 167 1329 158 c 0,47,48
 1340 148 1340 148 1346 135 c 128,-1,49
 1352 122 1352 122 1352 99 c 0,50,51
 1352 71 1352 71 1326.5 44.5 c 128,-1,52
 1301 18 1301 18 1237.5 1 c 128,-1,53
 1174 -16 1174 -16 1059 -16 c 0,54,55
 909 -16 909 -16 825.5 3 c 128,-1,56
 742 22 742 22 742 93 c 0,57,58
 742 117 742 117 746.5 129.5 c 128,-1,59
 751 142 751 142 759 151 c 0,60,61
 765 158 765 158 775 165.5 c 128,-1,62
 785 173 785 173 794 187 c 0,63,64
 800 197 800 197 804 213.5 c 128,-1,65
 808 230 808 230 812 256 c 0,66,67
 818 292 818 292 820 346.5 c 128,-1,68
 822 401 822 401 822 471 c 0,69,70
 822 617 822 617 787.5 666.5 c 128,-1,71
 753 716 753 716 692 716 c 0,72,73
 613 716 613 716 598.5 660.5 c 128,-1,74
 584 605 584 605 584 474 c 0,75,76
 584 301 584 301 587 247 c 0,77,78
 588 227 588 227 594.5 216.5 c 128,-1,79
 601 206 601 206 608 198 c 0,80,81
 621 185 621 185 630 175.5 c 128,-1,82
 639 166 639 166 646 155 c 0,83,84
 651 147 651 147 656 134.5 c 128,-1,85
 661 122 661 122 661 108 c 0,86,87
 661 32 661 32 573.5 8.5 c 128,-1,88
 486 -15 486 -15 337 -15 c 0,89,90
 202 -15 202 -15 113.5 18.5 c 128,-1,91
 25 52 25 52 25 110 c 0,92,93
 25 130 25 130 29.5 141.5 c 128,-1,94
 34 153 34 153 41 162 c 0,95,96
 52 174 52 174 66 181 c 128,-1,97
 80 188 80 188 95 201 c 0,98,99
 108 213 108 213 119 231 c 128,-1,100
 130 249 130 249 137 282 c 0,101,102
 156 375 156 375 156 481 c 2,0,-1
EndSplineSet
EndChar

StartChar: o
Encoding: 111 111 82
Width: 1205
Flags: W
LayerCount: 2
Fore
SplineSet
35 496 m 0,0,1
 35 606 35 606 79.5 705 c 128,-1,2
 124 804 124 804 205.5 880.5 c 128,-1,3
 287 957 287 957 398.5 1001 c 128,-1,4
 510 1045 510 1045 644 1045 c 0,5,6
 790 1045 790 1045 909.5 982.5 c 128,-1,7
 1029 920 1029 920 1099.5 805 c 128,-1,8
 1170 690 1170 690 1170 531 c 0,9,10
 1170 414 1170 414 1124 312.5 c 128,-1,11
 1078 211 1078 211 996 134.5 c 128,-1,12
 914 58 914 58 806 15 c 128,-1,13
 698 -28 698 -28 574 -28 c 0,14,15
 422 -28 422 -28 300 37.5 c 128,-1,16
 178 103 178 103 106.5 221 c 128,-1,17
 35 339 35 339 35 496 c 0,0,1
640 200 m 256,18,19
 684 200 684 200 709 240 c 128,-1,20
 734 280 734 280 734 329 c 0,21,22
 734 387 734 387 724.5 465.5 c 128,-1,23
 715 544 715 544 695 619 c 128,-1,24
 675 694 675 694 643 743.5 c 128,-1,25
 611 793 611 793 566 793 c 0,26,27
 526 793 526 793 500 758 c 128,-1,28
 474 723 474 723 474 667 c 0,29,30
 474 600 474 600 483.5 520 c 128,-1,31
 493 440 493 440 513 367 c 128,-1,32
 533 294 533 294 564.5 247 c 128,-1,33
 596 200 596 200 640 200 c 256,18,19
EndSplineSet
EndChar

StartChar: p
Encoding: 112 112 83
Width: 1356
Flags: W
LayerCount: 2
Fore
SplineSet
178 254 m 2,0,-1
 178 344 l 2,1,2
 178 468 178 468 175 539 c 128,-1,3
 172 610 172 610 163 643 c 128,-1,4
 154 676 154 676 136 686 c 0,5,6
 113 699 113 699 98 699.5 c 128,-1,7
 83 700 83 700 60 711 c 0,8,9
 47 718 47 718 33.5 733.5 c 128,-1,10
 20 749 20 749 20 783 c 0,11,12
 20 835 20 835 60 869 c 0,13,14
 100 904 100 904 167 938 c 128,-1,15
 234 972 234 972 309.5 1000 c 128,-1,16
 385 1028 385 1028 452.5 1045 c 128,-1,17
 520 1062 520 1062 562 1062 c 0,18,19
 591 1062 591 1062 604 1048 c 128,-1,20
 617 1034 617 1034 617 1014 c 0,21,22
 617 1002 617 1002 616.5 992 c 128,-1,23
 616 982 616 982 616 968 c 0,24,25
 616 953 616 953 621 938 c 128,-1,26
 626 923 626 923 638 923 c 0,27,28
 649 923 649 923 658 935 c 128,-1,29
 667 947 667 947 685 965 c 0,30,31
 723 1003 723 1003 790.5 1029 c 128,-1,32
 858 1055 858 1055 928 1055 c 0,33,34
 1054 1055 1054 1055 1142 978 c 128,-1,35
 1230 901 1230 901 1275.5 776.5 c 128,-1,36
 1321 652 1321 652 1321 508 c 0,37,38
 1321 406 1321 406 1288 308 c 128,-1,39
 1255 210 1255 210 1196.5 130.5 c 128,-1,40
 1138 51 1138 51 1061.5 4 c 128,-1,41
 985 -43 985 -43 899 -43 c 0,42,43
 849 -43 849 -43 791.5 -33.5 c 128,-1,44
 734 -24 734 -24 687 7 c 0,45,46
 668 19 668 19 658.5 23 c 128,-1,47
 649 27 649 27 644 27 c 0,48,49
 635 27 635 27 633.5 9.5 c 128,-1,50
 632 -8 632 -8 632 -25 c 0,51,52
 632 -55 632 -55 634.5 -90 c 128,-1,53
 637 -125 637 -125 643 -140 c 0,54,55
 649 -156 649 -156 658 -165.5 c 128,-1,56
 667 -175 667 -175 679 -186 c 0,57,58
 687 -193 687 -193 702.5 -203.5 c 128,-1,59
 718 -214 718 -214 729 -222 c 0,60,61
 742 -231 742 -231 750.5 -243.5 c 128,-1,62
 759 -256 759 -256 759 -282 c 0,63,64
 759 -338 759 -338 701.5 -371 c 128,-1,65
 644 -404 644 -404 570 -404 c 0,66,67
 531 -404 531 -404 473 -399.5 c 128,-1,68
 415 -395 415 -395 352.5 -384.5 c 128,-1,69
 290 -374 290 -374 236 -355 c 0,70,71
 138 -321 138 -321 91.5 -283 c 128,-1,72
 45 -245 45 -245 45 -196 c 0,73,74
 45 -139 45 -139 76 -126 c 0,75,76
 90 -120 90 -120 102.5 -121 c 128,-1,77
 115 -122 115 -122 128 -115 c 0,78,79
 145 -105 145 -105 153.5 -82.5 c 128,-1,80
 162 -60 162 -60 165 -39 c 0,81,82
 169 -11 169 -11 172 21.5 c 128,-1,83
 175 54 175 54 176.5 108 c 128,-1,84
 178 162 178 162 178 254 c 2,0,-1
704 227 m 0,85,86
 786 227 786 227 821.5 283 c 128,-1,87
 857 339 857 339 857 455 c 0,88,89
 857 586 857 586 820.5 664 c 128,-1,90
 784 742 784 742 708 742 c 0,91,92
 668 742 668 742 647.5 717.5 c 128,-1,93
 627 693 627 693 626 638 c 2,94,-1
 619 348 l 2,95,96
 617 270 617 270 634.5 248.5 c 128,-1,97
 652 227 652 227 704 227 c 0,85,86
EndSplineSet
EndChar

StartChar: q
Encoding: 113 113 84
Width: 1336
Flags: W
LayerCount: 2
Fore
SplineSet
932 1013 m 0,0,1
 953 1013 953 1013 975 1018.5 c 128,-1,2
 997 1024 997 1024 1025 1034 c 0,3,4
 1043 1040 1043 1040 1056.5 1045.5 c 128,-1,5
 1070 1051 1070 1051 1079 1053 c 0,6,7
 1107 1058 1107 1058 1134 1058 c 0,8,9
 1172 1058 1172 1058 1197.5 1041 c 128,-1,10
 1223 1024 1223 1024 1223 991 c 0,11,12
 1223 967 1223 967 1218.5 919.5 c 128,-1,13
 1214 872 1214 872 1209 821.5 c 128,-1,14
 1204 771 1204 771 1201 737 c 0,15,16
 1192 634 1192 634 1192 472 c 2,17,-1
 1192 207 l 2,18,19
 1192 140 1192 140 1194 87.5 c 128,-1,20
 1196 35 1196 35 1197 9 c 0,21,22
 1198 -28 1198 -28 1205.5 -59 c 128,-1,23
 1213 -90 1213 -90 1227 -108 c 256,24,25
 1241 -126 1241 -126 1258.5 -135.5 c 128,-1,26
 1276 -145 1276 -145 1291 -162 c 0,27,28
 1316 -191 1316 -191 1316 -249 c 0,29,30
 1316 -300 1316 -300 1247.5 -335.5 c 128,-1,31
 1179 -371 1179 -371 1023 -371 c 0,32,33
 926 -371 926 -371 855.5 -364.5 c 128,-1,34
 785 -358 785 -358 729 -333 c 0,35,36
 658 -301 658 -301 634 -275.5 c 128,-1,37
 610 -250 610 -250 610 -216 c 0,38,39
 610 -195 610 -195 616.5 -177.5 c 128,-1,40
 623 -160 623 -160 631 -152 c 0,41,42
 643 -140 643 -140 657 -134.5 c 128,-1,43
 671 -129 671 -129 686 -121 c 256,44,45
 701 -113 701 -113 712 -100 c 128,-1,46
 723 -87 723 -87 731 -62 c 0,47,48
 737 -41 737 -41 739 -24.5 c 128,-1,49
 741 -8 741 -8 741 14 c 0,50,51
 741 31 741 31 735 43.5 c 128,-1,52
 729 56 729 56 715 56 c 0,53,54
 697 56 697 56 656 23 c 0,55,56
 626 -1 626 -1 578 -18 c 128,-1,57
 530 -35 530 -35 467 -35 c 0,58,59
 351 -35 351 -35 252.5 28.5 c 128,-1,60
 154 92 154 92 94.5 212 c 128,-1,61
 35 332 35 332 35 500 c 0,62,63
 35 661 35 661 110.5 783 c 128,-1,64
 186 905 186 905 321 974 c 128,-1,65
 456 1043 456 1043 636 1043 c 0,66,67
 692 1043 692 1043 729.5 1038 c 128,-1,68
 767 1033 767 1033 799 1028 c 0,69,70
 847 1022 847 1022 876 1017.5 c 128,-1,71
 905 1013 905 1013 932 1013 c 0,0,1
643 812 m 0,72,73
 619 812 619 812 589 792.5 c 128,-1,74
 559 773 559 773 537 731 c 128,-1,75
 515 689 515 689 515 621 c 0,76,77
 515 534 515 534 531.5 449.5 c 128,-1,78
 548 365 548 365 581.5 309.5 c 128,-1,79
 615 254 615 254 665 254 c 0,80,81
 711 254 711 254 730 287.5 c 128,-1,82
 749 321 749 321 749 403 c 2,83,-1
 745 614 l 2,84,85
 744 692 744 692 715.5 752 c 128,-1,86
 687 812 687 812 643 812 c 0,72,73
EndSplineSet
EndChar

StartChar: r
Encoding: 114 114 85
Width: 1133
Flags: W
LayerCount: 2
Fore
SplineSet
152 416 m 2,0,-1
 152 501 l 2,1,2
 152 617 152 617 148 667.5 c 128,-1,3
 144 718 144 718 125 737 c 0,4,5
 107 754 107 754 81 757.5 c 128,-1,6
 55 761 55 761 41 773 c 0,7,8
 32 780 32 780 26.5 792.5 c 128,-1,9
 21 805 21 805 21 834 c 0,10,11
 21 883 21 883 39.5 903 c 128,-1,12
 58 923 58 923 93 938 c 0,13,14
 203 985 203 985 302 1008.5 c 128,-1,15
 401 1032 401 1032 469 1040 c 128,-1,16
 537 1048 537 1048 552 1048 c 0,17,18
 575 1048 575 1048 584 1031.5 c 128,-1,19
 593 1015 593 1015 594 995 c 0,20,21
 595 980 595 980 595.5 963 c 128,-1,22
 596 946 596 946 596 927 c 0,23,24
 596 905 596 905 606 896.5 c 128,-1,25
 616 888 616 888 623 888 c 0,26,27
 637 888 637 888 652.5 907.5 c 128,-1,28
 668 927 668 927 678 943 c 0,29,30
 707 988 707 988 750.5 1026.5 c 128,-1,31
 794 1065 794 1065 873 1065 c 0,32,33
 987 1065 987 1065 1052.5 993 c 128,-1,34
 1118 921 1118 921 1118 812 c 0,35,36
 1118 744 1118 744 1089 686.5 c 128,-1,37
 1060 629 1060 629 1010 594.5 c 128,-1,38
 960 560 960 560 897 560 c 0,39,40
 812 560 812 560 771 583.5 c 128,-1,41
 730 607 730 607 714 638 c 128,-1,42
 698 669 698 669 691.5 692.5 c 128,-1,43
 685 716 685 716 669 716 c 0,44,45
 662 716 662 716 649.5 713.5 c 128,-1,46
 637 711 637 711 624 698 c 0,47,48
 614 687 614 687 606 665 c 128,-1,49
 598 643 598 643 598 606 c 0,50,51
 598 548 598 548 599.5 483.5 c 128,-1,52
 601 419 601 419 604.5 364 c 128,-1,53
 608 309 608 309 614 280 c 0,54,55
 619 254 619 254 629.5 240.5 c 128,-1,56
 640 227 640 227 655 219 c 0,57,58
 673 210 673 210 702 202.5 c 128,-1,59
 731 195 731 195 752 183 c 0,60,61
 766 174 766 174 775 156.5 c 128,-1,62
 784 139 784 139 784 107 c 0,63,64
 784 59 784 59 734.5 31 c 128,-1,65
 685 3 685 3 599 -9.5 c 128,-1,66
 513 -22 513 -22 403 -22 c 256,67,68
 293 -22 293 -22 206.5 -15 c 128,-1,69
 120 -8 120 -8 70 18.5 c 128,-1,70
 20 45 20 45 20 103 c 0,71,72
 20 135 20 135 27 153 c 128,-1,73
 34 171 34 171 45 182 c 0,74,75
 66 202 66 202 80.5 207 c 128,-1,76
 95 212 95 212 114 226 c 0,77,78
 135 241 135 241 139 290 c 0,79,80
 140 305 140 305 143.5 332.5 c 128,-1,81
 147 360 147 360 149.5 384.5 c 128,-1,82
 152 409 152 409 152 416 c 2,0,-1
EndSplineSet
EndChar

StartChar: s
Encoding: 115 115 86
Width: 964
Flags: W
LayerCount: 2
Fore
SplineSet
237 293 m 0,0,1
 284 234 284 234 324.5 210 c 128,-1,2
 365 186 365 186 398 186 c 0,3,4
 426 186 426 186 441 201 c 128,-1,5
 456 216 456 216 456 235 c 0,6,7
 456 273 456 273 431 293 c 128,-1,8
 406 313 406 313 321 349 c 0,9,10
 217 393 217 393 140 478.5 c 128,-1,11
 63 564 63 564 63 692 c 0,12,13
 63 784 63 784 111 865.5 c 128,-1,14
 159 947 159 947 244 998.5 c 128,-1,15
 329 1050 329 1050 439 1050 c 0,16,17
 500 1050 500 1050 541.5 1038.5 c 128,-1,18
 583 1027 583 1027 608 1027 c 0,19,20
 635 1027 635 1027 661 1044 c 128,-1,21
 687 1061 687 1061 720 1061 c 0,22,23
 750 1061 750 1061 780 1033.5 c 128,-1,24
 810 1006 810 1006 835 965 c 128,-1,25
 860 924 860 924 875.5 880 c 128,-1,26
 891 836 891 836 891 803 c 0,27,28
 891 744 891 744 861.5 718.5 c 128,-1,29
 832 693 832 693 801 693 c 0,30,31
 745 693 745 693 695 728 c 0,32,33
 678 740 678 740 655.5 763.5 c 128,-1,34
 633 787 633 787 618 800 c 0,35,36
 605 811 605 811 586.5 822.5 c 128,-1,37
 568 834 568 834 539 834 c 0,38,39
 513 834 513 834 499 818.5 c 128,-1,40
 485 803 485 803 485 780 c 0,41,42
 485 759 485 759 498 741 c 128,-1,43
 511 723 511 723 552 699 c 128,-1,44
 593 675 593 675 678 635 c 0,45,46
 790 583 790 583 852 504.5 c 128,-1,47
 914 426 914 426 914 313 c 0,48,49
 914 217 914 217 861.5 140 c 128,-1,50
 809 63 809 63 720 18 c 128,-1,51
 631 -27 631 -27 522 -27 c 0,52,53
 452 -27 452 -27 401.5 -17.5 c 128,-1,54
 351 -8 351 -8 323 -8 c 0,55,56
 274 -8 274 -8 237.5 -16 c 128,-1,57
 201 -24 201 -24 166 -4 c 0,58,59
 133 16 133 16 104 60 c 128,-1,60
 75 104 75 104 57.5 158.5 c 128,-1,61
 40 213 40 213 40 265 c 0,62,63
 40 302 40 302 58 333.5 c 128,-1,64
 76 365 76 365 110 365 c 0,65,66
 150 365 150 365 180 346 c 128,-1,67
 210 327 210 327 237 293 c 0,0,1
EndSplineSet
EndChar

StartChar: t
Encoding: 116 116 87
Width: 944
Flags: W
LayerCount: 2
Fore
SplineSet
624 455 m 2,0,1
 624 376 624 376 651.5 332.5 c 128,-1,2
 679 289 679 289 732 289 c 0,3,4
 759 289 759 289 782 300 c 128,-1,5
 805 311 805 311 820 322 c 0,6,7
 829 329 829 329 838 333.5 c 128,-1,8
 847 338 847 338 857 338 c 0,9,10
 880 338 880 338 904.5 302.5 c 128,-1,11
 929 267 929 267 929 226 c 0,12,13
 929 187 929 187 894 144.5 c 128,-1,14
 859 102 859 102 801 65.5 c 128,-1,15
 743 29 743 29 674.5 6 c 128,-1,16
 606 -17 606 -17 538 -17 c 0,17,18
 386 -17 386 -17 309.5 33 c 128,-1,19
 233 83 233 83 202 157 c 0,20,21
 181 207 181 207 175 263.5 c 128,-1,22
 169 320 169 320 169 375 c 2,23,-1
 169 806 l 2,24,25
 169 821 169 821 164.5 828 c 128,-1,26
 160 835 160 835 143 835 c 2,27,-1
 40 835 l 2,28,29
 15 835 15 835 7.5 842.5 c 128,-1,30
 0 850 0 850 0 866 c 0,31,32
 0 889 0 889 0.5 917.5 c 128,-1,33
 1 946 1 946 2 960 c 0,34,35
 3 971 3 971 5.5 979 c 128,-1,36
 8 987 8 987 23 997 c 2,37,-1
 443 1279 l 2,38,39
 461 1291 461 1291 483.5 1300 c 128,-1,40
 506 1309 506 1309 546 1309 c 0,41,42
 585 1309 585 1309 610.5 1289.5 c 128,-1,43
 636 1270 636 1270 636 1224 c 0,44,45
 636 1181 636 1181 634 1136.5 c 128,-1,46
 632 1092 632 1092 632 1076 c 256,47,48
 632 1060 632 1060 638 1056.5 c 128,-1,49
 644 1053 644 1053 660 1053 c 2,50,-1
 864 1053 l 2,51,52
 896 1053 896 1053 908.5 1046.5 c 128,-1,53
 921 1040 921 1040 921 1020 c 0,54,55
 921 1017 921 1017 920 997 c 2,56,-1
 914 879 l 2,57,58
 912 839 912 839 896 832 c 128,-1,59
 880 825 880 825 846 825 c 2,60,-1
 644 825 l 2,61,62
 624 825 624 825 624 805 c 2,63,-1
 624 455 l 2,0,1
EndSplineSet
EndChar

StartChar: u
Encoding: 117 117 88
Width: 1332
Flags: W
LayerCount: 2
Fore
SplineSet
1194 623 m 2,0,-1
 1194 555 l 2,1,2
 1194 462 1194 462 1195.5 409 c 128,-1,3
 1197 356 1197 356 1202 329 c 128,-1,4
 1207 302 1207 302 1219 287 c 0,5,6
 1234 269 1234 269 1252.5 259 c 128,-1,7
 1271 249 1271 249 1282 241 c 0,8,9
 1312 219 1312 219 1312 183 c 0,10,11
 1312 164 1312 164 1296.5 133.5 c 128,-1,12
 1281 103 1281 103 1251 80 c 0,13,14
 1200 40 1200 40 1125.5 14.5 c 128,-1,15
 1051 -11 1051 -11 974 -23 c 128,-1,16
 897 -35 897 -35 836 -35 c 0,17,18
 808 -35 808 -35 793 -5 c 0,19,20
 786 9 786 9 785 26.5 c 128,-1,21
 784 44 784 44 784 65 c 0,22,23
 784 79 784 79 778 91 c 128,-1,24
 772 103 772 103 760 103 c 0,25,26
 746 103 746 103 738 92.5 c 128,-1,27
 730 82 730 82 716 69 c 0,28,29
 649 8 649 8 592.5 -16.5 c 128,-1,30
 536 -41 536 -41 441 -41 c 0,31,32
 357 -41 357 -41 296 -7.5 c 128,-1,33
 235 26 235 26 200 75 c 0,34,35
 168 120 168 120 158 199.5 c 128,-1,36
 148 279 148 279 148 380 c 2,37,-1
 148 720 l 2,38,39
 148 749 148 749 137 762.5 c 128,-1,40
 126 776 126 776 110 785 c 0,41,42
 96 793 96 793 76.5 800 c 128,-1,43
 57 807 57 807 42 821 c 0,44,45
 20 841 20 841 20 895 c 0,46,47
 20 919 20 919 33.5 943 c 128,-1,48
 47 967 47 967 79 980 c 0,49,50
 148 1007 148 1007 227 1022.5 c 128,-1,51
 306 1038 306 1038 378.5 1044.5 c 128,-1,52
 451 1051 451 1051 501 1051 c 0,53,54
 531 1051 531 1051 555.5 1031 c 128,-1,55
 580 1011 580 1011 580 976 c 0,56,57
 580 925 580 925 576.5 789.5 c 128,-1,58
 573 654 573 654 573 423 c 0,59,60
 573 347 573 347 588.5 314 c 128,-1,61
 604 281 604 281 629.5 273 c 128,-1,62
 655 265 655 265 685 265 c 0,63,64
 732 265 732 265 755.5 308.5 c 128,-1,65
 779 352 779 352 779 460 c 0,66,67
 779 505 779 505 778 537.5 c 128,-1,68
 777 570 777 570 777 621 c 0,69,70
 777 669 777 669 776 707.5 c 128,-1,71
 775 746 775 746 770 763 c 0,72,73
 765 778 765 778 757 786.5 c 128,-1,74
 749 795 749 795 740 802 c 0,75,76
 726 814 726 814 710 824 c 128,-1,77
 694 834 694 834 682 845 c 0,78,79
 672 854 672 854 665 867 c 128,-1,80
 658 880 658 880 658 901 c 0,81,82
 658 943 658 943 685 968.5 c 128,-1,83
 712 994 712 994 735 1007 c 0,84,85
 771 1027 771 1027 835.5 1039.5 c 128,-1,86
 900 1052 900 1052 972.5 1057.5 c 128,-1,87
 1045 1063 1045 1063 1104 1063 c 2,88,-1
 1114 1063 l 2,89,90
 1167 1063 1167 1063 1185 1035.5 c 128,-1,91
 1203 1008 1203 1008 1203 973 c 0,92,93
 1203 907 1203 907 1198.5 817 c 128,-1,94
 1194 727 1194 727 1194 623 c 2,0,-1
EndSplineSet
EndChar

StartChar: v
Encoding: 118 118 89
Width: 1213
Flags: W
LayerCount: 2
Fore
SplineSet
788 765 m 0,0,1
 793 778 793 778 795 788.5 c 128,-1,2
 797 799 797 799 797 809 c 0,3,4
 797 832 797 832 782 843 c 0,5,6
 777 847 777 847 767.5 851 c 128,-1,7
 758 855 758 855 749 864 c 0,8,9
 741 873 741 873 734.5 886 c 128,-1,10
 728 899 728 899 728 924 c 0,11,12
 728 977 728 977 769.5 1003 c 128,-1,13
 811 1029 811 1029 872.5 1037 c 128,-1,14
 934 1045 934 1045 994 1045 c 0,15,16
 1110 1045 1110 1045 1166.5 1030 c 128,-1,17
 1223 1015 1223 1015 1223 948 c 0,18,19
 1223 908 1223 908 1197.5 879 c 128,-1,20
 1172 850 1172 850 1119 842 c 0,21,22
 1091 838 1091 838 1072 821 c 128,-1,23
 1053 804 1053 804 1033 754 c 2,24,-1
 856 306 l 2,25,26
 825 229 825 229 790.5 159 c 128,-1,27
 756 89 756 89 743 61 c 0,28,29
 726 23 726 23 696.5 -13 c 128,-1,30
 667 -49 667 -49 623 -49 c 0,31,32
 577 -49 577 -49 538.5 -9 c 128,-1,33
 500 31 500 31 466 88 c 0,34,35
 384 228 384 228 326.5 362.5 c 128,-1,36
 269 497 269 497 206 640 c 0,37,38
 150 766 150 766 112 783 c 0,39,40
 94 792 94 792 75.5 791.5 c 128,-1,41
 57 791 57 791 40 799 c 0,42,43
 21 807 21 807 5.5 826.5 c 128,-1,44
 -10 846 -10 846 -10 886 c 0,45,46
 -10 912 -10 912 -3 933.5 c 128,-1,47
 4 955 4 955 23 975 c 0,48,49
 57 1009 57 1009 152 1027 c 128,-1,50
 247 1045 247 1045 364 1045 c 0,51,52
 528 1045 528 1045 602 1017 c 128,-1,53
 676 989 676 989 676 921 c 0,54,55
 676 900 676 900 664.5 882 c 128,-1,56
 653 864 653 864 624 846 c 0,57,58
 606 835 606 835 601.5 822.5 c 128,-1,59
 597 810 597 810 597 798 c 0,60,61
 597 791 597 791 599 784 c 128,-1,62
 601 777 601 777 604 770 c 0,63,64
 615 743 615 743 630 712.5 c 128,-1,65
 645 682 645 682 650 670 c 0,66,67
 659 650 659 650 670 634.5 c 128,-1,68
 681 619 681 619 699 619 c 0,69,70
 723 619 723 619 735.5 640.5 c 128,-1,71
 748 662 748 662 759 686 c 0,72,73
 775 721 775 721 778.5 736 c 128,-1,74
 782 751 782 751 788 765 c 0,0,1
EndSplineSet
EndChar

StartChar: w
Encoding: 119 119 90
Width: 1921
Flags: W
LayerCount: 2
Fore
SplineSet
1497 787 m 0,0,1
 1512 817 1512 817 1512 831 c 0,2,3
 1512 846 1512 846 1508.5 853.5 c 128,-1,4
 1505 861 1505 861 1500 867 c 0,5,6
 1492 875 1492 875 1481.5 880.5 c 128,-1,7
 1471 886 1471 886 1463 895 c 0,8,9
 1455 903 1455 903 1450 915.5 c 128,-1,10
 1445 928 1445 928 1445 951 c 0,11,12
 1445 1008 1445 1008 1506.5 1033 c 128,-1,13
 1568 1058 1568 1058 1719 1058 c 0,14,15
 1837 1058 1837 1058 1884 1036 c 128,-1,16
 1931 1014 1931 1014 1931 965 c 0,17,18
 1931 940 1931 940 1926 917.5 c 128,-1,19
 1921 895 1921 895 1903 878 c 0,20,21
 1882 859 1882 859 1860 857.5 c 128,-1,22
 1838 856 1838 856 1811 845 c 0,23,24
 1787 835 1787 835 1769.5 811 c 128,-1,25
 1752 787 1752 787 1727 726 c 0,26,27
 1672 591 1672 591 1615.5 462 c 128,-1,28
 1559 333 1559 333 1508 227.5 c 128,-1,29
 1457 122 1457 122 1419 58 c 0,30,31
 1396 18 1396 18 1371.5 -9 c 128,-1,32
 1347 -36 1347 -36 1313 -36 c 0,33,34
 1278 -36 1278 -36 1235 13 c 128,-1,35
 1192 62 1192 62 1152 127 c 0,36,37
 1103 207 1103 207 1075 260 c 128,-1,38
 1047 313 1047 313 1013 384 c 0,39,40
 1004 404 1004 404 995.5 415 c 128,-1,41
 987 426 987 426 971 426 c 0,42,43
 962 426 962 426 949 421 c 128,-1,44
 936 416 936 416 927 393 c 0,45,46
 883 286 883 286 841 203.5 c 128,-1,47
 799 121 799 121 765 55 c 0,48,49
 744 14 744 14 717.5 -13 c 128,-1,50
 691 -40 691 -40 653 -40 c 0,51,52
 612 -40 612 -40 584 -14 c 128,-1,53
 556 12 556 12 519 77 c 0,54,55
 433 230 433 230 357 371 c 128,-1,56
 281 512 281 512 190 664 c 0,57,58
 164 707 164 707 150.5 734 c 128,-1,59
 137 761 137 761 114 776 c 0,60,61
 95 788 95 788 65.5 796.5 c 128,-1,62
 36 805 36 805 18 820 c 0,63,64
 5 830 5 830 -2.5 844 c 128,-1,65
 -10 858 -10 858 -10 879 c 0,66,67
 -10 901 -10 901 -5 920.5 c 128,-1,68
 0 940 0 940 17 957 c 0,69,70
 59 998 59 998 147.5 1020.5 c 128,-1,71
 236 1043 236 1043 346 1043 c 0,72,73
 403 1043 403 1043 465.5 1040.5 c 128,-1,74
 528 1038 528 1038 575 1026 c 0,75,76
 677 1000 677 1000 677 907 c 0,77,78
 677 891 677 891 674.5 883 c 128,-1,79
 672 875 672 875 667 870 c 0,80,81
 663 865 663 865 659 862.5 c 128,-1,82
 655 860 655 860 651 856 c 256,83,84
 647 852 647 852 644.5 847.5 c 128,-1,85
 642 843 642 843 642 833 c 256,86,87
 642 823 642 823 647.5 804 c 128,-1,88
 653 785 653 785 659 771 c 0,89,90
 670 745 670 745 680 721.5 c 128,-1,91
 690 698 690 698 703 669 c 0,92,93
 713 647 713 647 723.5 634.5 c 128,-1,94
 734 622 734 622 750 622 c 256,95,96
 766 622 766 622 773.5 630.5 c 128,-1,97
 781 639 781 639 789 654 c 0,98,99
 798 671 798 671 803.5 680.5 c 128,-1,100
 809 690 809 690 815 703 c 0,101,102
 829 731 829 731 829 741 c 0,103,104
 829 753 829 753 820 770 c 0,105,106
 815 780 815 780 813 784 c 128,-1,107
 811 788 811 788 804 799 c 0,108,109
 784 829 784 829 769 837 c 0,110,111
 760 842 760 842 749.5 844 c 128,-1,112
 739 846 739 846 730 854 c 0,113,114
 722 860 722 860 714 872 c 128,-1,115
 706 884 706 884 706 916 c 0,116,117
 706 940 706 940 719 964 c 128,-1,118
 732 988 732 988 750 1001 c 0,119,120
 781 1025 781 1025 834 1036 c 128,-1,121
 887 1047 887 1047 948.5 1050.5 c 128,-1,122
 1010 1054 1010 1054 1066 1054 c 0,123,124
 1133 1054 1133 1054 1195.5 1048.5 c 128,-1,125
 1258 1043 1258 1043 1298 1025 c 0,126,127
 1328 1012 1328 1012 1345 989 c 128,-1,128
 1362 966 1362 966 1362 928 c 0,129,130
 1362 897 1362 897 1343 873 c 0,131,132
 1337 866 1337 866 1328.5 859.5 c 128,-1,133
 1320 853 1320 853 1314 846 c 0,134,135
 1300 828 1300 828 1300 808 c 0,136,137
 1300 779 1300 779 1315 749 c 0,138,139
 1322 736 1322 736 1330.5 720.5 c 128,-1,140
 1339 705 1339 705 1347 690 c 0,141,142
 1359 669 1359 669 1372 653 c 128,-1,143
 1385 637 1385 637 1396 637 c 0,144,145
 1410 637 1410 637 1420 650 c 128,-1,146
 1430 663 1430 663 1439 682 c 0,147,148
 1451 708 1451 708 1464.5 729 c 128,-1,149
 1478 750 1478 750 1497 787 c 0,0,1
EndSplineSet
EndChar

StartChar: x
Encoding: 120 120 91
Width: 1229
Flags: W
LayerCount: 2
Fore
SplineSet
832 799 m 2,0,-1
 847 823 l 2,1,2
 864 850 864 850 864 867 c 0,3,4
 864 877 864 877 860 885 c 0,5,6
 857 891 857 891 850.5 896.5 c 128,-1,7
 844 902 844 902 840 908 c 256,8,9
 836 914 836 914 833 923 c 128,-1,10
 830 932 830 932 830 949 c 0,11,12
 830 991 830 991 875 1019 c 128,-1,13
 920 1047 920 1047 1038 1047 c 0,14,15
 1151 1047 1151 1047 1190 1022.5 c 128,-1,16
 1229 998 1229 998 1229 958 c 0,17,18
 1229 923 1229 923 1220.5 908 c 128,-1,19
 1212 893 1212 893 1198 886 c 0,20,21
 1186 880 1186 880 1171 877.5 c 128,-1,22
 1156 875 1156 875 1136 865 c 0,23,24
 1117 857 1117 857 1097.5 843.5 c 128,-1,25
 1078 830 1078 830 1053 793 c 2,26,-1
 909 577 l 2,27,28
 905 572 905 572 899.5 562 c 128,-1,29
 894 552 894 552 894 542 c 0,30,31
 894 534 894 534 899 523.5 c 128,-1,32
 904 513 904 513 906 510 c 2,33,-1
 1063 262 l 2,34,35
 1080 237 1080 237 1103 221 c 0,36,37
 1125 206 1125 206 1146.5 199.5 c 128,-1,38
 1168 193 1168 193 1185 182 c 0,39,40
 1199 172 1199 172 1208.5 157 c 128,-1,41
 1218 142 1218 142 1218 120 c 0,42,43
 1218 67 1218 67 1169.5 39 c 128,-1,44
 1121 11 1121 11 1042.5 1 c 128,-1,45
 964 -9 964 -9 874 -9 c 256,46,47
 784 -9 784 -9 697.5 -8 c 128,-1,48
 611 -7 611 -7 555 13 c 128,-1,49
 499 33 499 33 499 90 c 0,50,51
 499 130 499 130 518 148 c 0,52,53
 529 158 529 158 541 164.5 c 128,-1,54
 553 171 553 171 563 180 c 0,55,56
 577 193 577 193 577 210 c 0,57,58
 577 224 577 224 573 231.5 c 128,-1,59
 569 239 569 239 563 248 c 2,60,-1
 524 307 l 2,61,62
 506 334 506 334 482 334 c 256,63,64
 458 334 458 334 441 310 c 2,65,-1
 410 267 l 2,66,67
 369 210 369 210 369 183 c 0,68,69
 369 166 369 166 377 153 c 0,70,71
 382 145 382 145 389.5 139.5 c 128,-1,72
 397 134 397 134 403 128 c 0,73,74
 409 123 409 123 413 113.5 c 128,-1,75
 417 104 417 104 417 83 c 0,76,77
 417 41 417 41 372 11 c 128,-1,78
 327 -19 327 -19 208 -19 c 0,79,80
 95 -19 95 -19 47.5 7 c 128,-1,81
 0 33 0 33 0 73 c 0,82,83
 0 93 0 93 7 107 c 128,-1,84
 14 121 14 121 24 130 c 0,85,86
 38 142 38 142 57.5 146.5 c 128,-1,87
 77 151 77 151 98 160 c 0,88,89
 137 176 137 176 166 225 c 2,90,-1
 341 519 l 2,91,92
 345 526 345 526 349.5 535 c 128,-1,93
 354 544 354 544 354 552 c 0,94,95
 354 563 354 563 350 571.5 c 128,-1,96
 346 580 346 580 341 587 c 2,97,-1
 238 724 l 2,98,99
 217 752 217 752 196.5 774.5 c 128,-1,100
 176 797 176 797 155 809 c 0,101,102
 127 825 127 825 102 829 c 128,-1,103
 77 833 77 833 58 845 c 0,104,105
 28 865 28 865 28 905 c 0,106,107
 28 949 28 949 64 976 c 128,-1,108
 100 1003 100 1003 158 1018 c 128,-1,109
 216 1033 216 1033 284 1038.5 c 128,-1,110
 352 1044 352 1044 416 1044 c 0,111,112
 574 1044 574 1044 664.5 1029.5 c 128,-1,113
 755 1015 755 1015 755 954 c 0,114,115
 755 923 755 923 741 905 c 0,116,117
 736 898 736 898 730.5 893.5 c 128,-1,118
 725 889 725 889 721 883 c 0,119,120
 711 869 711 869 711 851 c 0,121,122
 711 824 711 824 723 807 c 2,123,-1
 733 793 l 2,124,125
 752 766 752 766 782 766 c 0,126,127
 811 766 811 766 832 799 c 2,0,-1
EndSplineSet
EndChar

StartChar: y
Encoding: 121 121 92
Width: 1251
Flags: W
LayerCount: 2
Fore
SplineSet
25 -127 m 0,0,1
 25 -35 25 -35 76 27.5 c 128,-1,2
 127 90 127 90 203 90 c 0,3,4
 273 90 273 90 312 56.5 c 128,-1,5
 351 23 351 23 363 -16 c 0,6,7
 377 -61 377 -61 382.5 -97.5 c 128,-1,8
 388 -134 388 -134 420 -134 c 0,9,10
 435 -134 435 -134 449 -126 c 256,11,12
 463 -118 463 -118 473 -104 c 0,13,14
 487 -81 487 -81 487 -56 c 256,15,16
 487 -31 487 -31 476 15.5 c 128,-1,17
 465 62 465 62 436 118 c 0,18,19
 364 261 364 261 301.5 399.5 c 128,-1,20
 239 538 239 538 169 678 c 0,21,22
 139 739 139 739 123 757 c 128,-1,23
 107 775 107 775 92 787 c 0,24,25
 79 798 79 798 57 803 c 128,-1,26
 35 808 35 808 21 820 c 0,27,28
 8 831 8 831 -1 845.5 c 128,-1,29
 -10 860 -10 860 -10 882 c 0,30,31
 -10 959 -10 959 67 998 c 0,32,33
 123 1027 123 1027 211 1038 c 128,-1,34
 299 1049 299 1049 403 1049 c 0,35,36
 493 1049 493 1049 559 1042 c 128,-1,37
 625 1035 625 1035 661.5 1006.5 c 128,-1,38
 698 978 698 978 698 913 c 0,39,40
 698 891 698 891 693 877 c 128,-1,41
 688 863 688 863 680 854 c 0,42,43
 669 841 669 841 660.5 832 c 128,-1,44
 652 823 652 823 652 808 c 0,45,46
 652 798 652 798 659 777 c 0,47,48
 669 749 669 749 686.5 709 c 128,-1,49
 704 669 704 669 719 643 c 0,50,51
 736 614 736 614 744 602.5 c 128,-1,52
 752 591 752 591 763 591 c 0,53,54
 792 591 792 591 813.5 614.5 c 128,-1,55
 835 638 835 638 845 674 c 0,56,57
 857 716 857 716 860 743 c 0,58,59
 862 760 862 760 862.5 770.5 c 128,-1,60
 863 781 863 781 863 787 c 0,61,62
 863 807 863 807 858 819 c 128,-1,63
 853 831 853 831 845 841 c 0,64,65
 838 850 838 850 827.5 857 c 128,-1,66
 817 864 817 864 809 874 c 0,67,68
 802 883 802 883 797.5 893.5 c 128,-1,69
 793 904 793 904 793 923 c 0,70,71
 793 977 793 977 831.5 1006 c 128,-1,72
 870 1035 870 1035 930 1046 c 128,-1,73
 990 1057 990 1057 1055 1057 c 0,74,75
 1171 1057 1171 1057 1216 1023 c 128,-1,76
 1261 989 1261 989 1261 930 c 0,77,78
 1261 875 1261 875 1225.5 859 c 128,-1,79
 1190 843 1190 843 1142 824 c 0,80,81
 1104 809 1104 809 1069.5 732 c 128,-1,82
 1035 655 1035 655 999 554 c 2,83,-1
 881 220 l 2,84,85
 854 144 854 144 822.5 55.5 c 128,-1,86
 791 -33 791 -33 756 -92 c 0,87,88
 686 -213 686 -213 581.5 -283 c 128,-1,89
 477 -353 477 -353 330 -353 c 0,90,91
 237 -353 237 -353 168.5 -319.5 c 128,-1,92
 100 -286 100 -286 62.5 -234 c 128,-1,93
 25 -182 25 -182 25 -127 c 0,0,1
EndSplineSet
EndChar

StartChar: z
Encoding: 122 122 93
Width: 1066
Flags: W
LayerCount: 2
Fore
SplineSet
331 -4 m 0,0,1
 297 -4 297 -4 253 -5 c 128,-1,2
 209 -6 209 -6 161 -6 c 0,3,4
 114 -6 114 -6 87 9 c 128,-1,5
 60 24 60 24 60 63 c 0,6,7
 60 98 60 98 91 155 c 2,8,-1
 410 745 l 2,9,10
 416 756 416 756 422 769 c 128,-1,11
 428 782 428 782 428 789 c 0,12,13
 428 800 428 800 416.5 809 c 128,-1,14
 405 818 405 818 379 818 c 0,15,16
 340 818 340 818 319 815 c 128,-1,17
 298 812 298 812 274 803 c 0,18,19
 244 792 244 792 230 768.5 c 128,-1,20
 216 745 216 745 207.5 717 c 128,-1,21
 199 689 199 689 183 665 c 0,22,23
 161 631 161 631 125 631 c 0,24,25
 91 631 91 631 53 658 c 128,-1,26
 15 685 15 685 15 743 c 0,27,28
 15 778 15 778 30 832 c 128,-1,29
 45 886 45 886 71 939.5 c 128,-1,30
 97 993 97 993 130 1029.5 c 128,-1,31
 163 1066 163 1066 199 1066 c 0,32,33
 240 1066 240 1066 272.5 1052.5 c 128,-1,34
 305 1039 305 1039 363 1039 c 0,35,36
 395 1039 395 1039 451 1038.5 c 128,-1,37
 507 1038 507 1038 568 1038 c 128,-1,38
 629 1038 629 1038 677.5 1037.5 c 128,-1,39
 726 1037 726 1037 743 1037 c 0,40,41
 800 1037 800 1037 824.5 1042 c 128,-1,42
 849 1047 849 1047 889 1047 c 0,43,44
 936 1047 936 1047 965.5 1022 c 128,-1,45
 995 997 995 997 995 956 c 0,46,47
 995 938 995 938 982 911 c 128,-1,48
 969 884 969 884 959 864 c 2,49,-1
 671 307 l 2,50,51
 661 288 661 288 661 278 c 0,52,53
 661 265 661 265 675.5 258 c 128,-1,54
 690 251 690 251 708 251 c 0,55,56
 740 251 740 251 762.5 256 c 128,-1,57
 785 261 785 261 802 269 c 0,58,59
 834 284 834 284 860.5 307 c 128,-1,60
 887 330 887 330 898 367 c 0,61,62
 903 384 903 384 914.5 396 c 128,-1,63
 926 408 926 408 950 408 c 0,64,65
 984 408 984 408 1017.5 375 c 128,-1,66
 1051 342 1051 342 1051 298 c 0,67,68
 1051 248 1051 248 1034 191 c 128,-1,69
 1017 134 1017 134 989 83 c 128,-1,70
 961 32 961 32 928 0 c 128,-1,71
 895 -32 895 -32 863 -32 c 0,72,73
 836 -32 836 -32 820 -23.5 c 128,-1,74
 804 -15 804 -15 783.5 -6.5 c 128,-1,75
 763 2 763 2 724 2 c 0,76,77
 696 2 696 2 643.5 1 c 128,-1,78
 591 0 591 0 531 -1 c 128,-1,79
 471 -2 471 -2 417 -3 c 128,-1,80
 363 -4 363 -4 331 -4 c 0,0,1
EndSplineSet
EndChar

StartChar: braceleft
Encoding: 123 123 94
Width: 857
Flags: W
LayerCount: 2
Fore
SplineSet
334 589 m 0,0,1
 334 549 334 549 355 508.5 c 128,-1,2
 376 468 376 468 405 417 c 128,-1,3
 434 366 434 366 457 293 c 0,4,5
 474 240 474 240 483 175 c 128,-1,6
 492 110 492 110 492 32 c 0,7,8
 492 -11 492 -11 498.5 -31.5 c 128,-1,9
 505 -52 505 -52 523 -61 c 0,10,11
 543 -71 543 -71 563 -73.5 c 128,-1,12
 583 -76 583 -76 604 -76 c 0,13,14
 633 -76 633 -76 662.5 -75.5 c 128,-1,15
 692 -75 692 -75 718 -75 c 0,16,17
 756 -75 756 -75 781.5 -92 c 128,-1,18
 807 -109 807 -109 807 -164 c 0,19,20
 807 -215 807 -215 793.5 -237.5 c 128,-1,21
 780 -260 780 -260 750 -274 c 0,22,23
 694 -301 694 -301 614 -313.5 c 128,-1,24
 534 -326 534 -326 431 -326 c 0,25,26
 366 -326 366 -326 304 -323 c 128,-1,27
 242 -320 242 -320 206 -313 c 0,28,29
 134 -299 134 -299 134 -244 c 0,30,31
 134 -229 134 -229 137.5 -171 c 128,-1,32
 141 -113 141 -113 145.5 -29 c 128,-1,33
 150 55 150 55 152 147 c 128,-1,34
 154 239 154 239 150 321 c 0,35,36
 148 360 148 360 128 400 c 128,-1,37
 108 440 108 440 89 486 c 128,-1,38
 70 532 70 532 70 589 c 256,39,40
 70 646 70 646 89 692 c 128,-1,41
 108 738 108 738 128 778 c 128,-1,42
 148 818 148 818 150 857 c 0,43,44
 154 939 154 939 152 1031 c 128,-1,45
 150 1123 150 1123 145.5 1207 c 128,-1,46
 141 1291 141 1291 137.5 1349 c 128,-1,47
 134 1407 134 1407 134 1422 c 0,48,49
 134 1478 134 1478 206 1491 c 0,50,51
 242 1498 242 1498 304 1501 c 128,-1,52
 366 1504 366 1504 431 1504 c 0,53,54
 534 1504 534 1504 614 1491.5 c 128,-1,55
 694 1479 694 1479 750 1452 c 0,56,57
 780 1438 780 1438 793.5 1415.5 c 128,-1,58
 807 1393 807 1393 807 1342 c 0,59,60
 807 1287 807 1287 781.5 1270 c 128,-1,61
 756 1253 756 1253 718 1253 c 0,62,63
 692 1253 692 1253 662.5 1253.5 c 128,-1,64
 633 1254 633 1254 604 1254 c 0,65,66
 583 1254 583 1254 563 1252 c 128,-1,67
 543 1250 543 1250 523 1239 c 0,68,69
 505 1230 505 1230 498.5 1209.5 c 128,-1,70
 492 1189 492 1189 492 1146 c 0,71,72
 492 1068 492 1068 483 1003 c 128,-1,73
 474 938 474 938 457 885 c 0,74,75
 434 812 434 812 405 761 c 128,-1,76
 376 710 376 710 355 670 c 128,-1,77
 334 630 334 630 334 589 c 0,0,1
EndSplineSet
EndChar

StartChar: bar
Encoding: 124 124 95
Width: 488
Flags: W
LayerCount: 2
Fore
SplineSet
401 246 m 2,0,1
 401 2 401 2 409.5 -130.5 c 128,-1,2
 418 -263 418 -263 418 -320 c 0,3,4
 418 -340 418 -340 414 -350 c 128,-1,5
 410 -360 410 -360 394 -360 c 2,6,-1
 94 -360 l 2,7,8
 78 -360 78 -360 74 -350 c 128,-1,9
 70 -340 70 -340 70 -320 c 0,10,11
 70 -263 70 -263 78.5 -130.5 c 128,-1,12
 87 2 87 2 87 246 c 2,13,-1
 87 763 l 2,14,15
 87 1008 87 1008 78.5 1155.5 c 128,-1,16
 70 1303 70 1303 70 1360 c 0,17,18
 70 1380 70 1380 74 1390 c 128,-1,19
 78 1400 78 1400 94 1400 c 2,20,-1
 394 1400 l 2,21,22
 410 1400 410 1400 414 1390 c 128,-1,23
 418 1380 418 1380 418 1360 c 0,24,25
 418 1303 418 1303 409.5 1155.5 c 128,-1,26
 401 1008 401 1008 401 763 c 2,27,-1
 401 246 l 2,0,1
EndSplineSet
EndChar

StartChar: braceright
Encoding: 125 125 96
Width: 857
Flags: W
LayerCount: 2
Fore
SplineSet
523 589 m 0,0,1
 523 630 523 630 502 670 c 128,-1,2
 481 710 481 710 452 761 c 128,-1,3
 423 812 423 812 400 885 c 0,4,5
 383 938 383 938 374 1003 c 128,-1,6
 365 1068 365 1068 365 1146 c 0,7,8
 365 1189 365 1189 358.5 1209.5 c 128,-1,9
 352 1230 352 1230 334 1239 c 0,10,11
 314 1250 314 1250 294 1252 c 128,-1,12
 274 1254 274 1254 253 1254 c 0,13,14
 225 1254 225 1254 195 1253.5 c 128,-1,15
 165 1253 165 1253 139 1253 c 0,16,17
 101 1253 101 1253 75.5 1270 c 128,-1,18
 50 1287 50 1287 50 1342 c 0,19,20
 50 1393 50 1393 63.5 1415.5 c 128,-1,21
 77 1438 77 1438 107 1452 c 0,22,23
 163 1479 163 1479 243 1491.5 c 128,-1,24
 323 1504 323 1504 426 1504 c 0,25,26
 491 1504 491 1504 553 1501 c 128,-1,27
 615 1498 615 1498 651 1491 c 0,28,29
 723 1478 723 1478 723 1422 c 0,30,31
 723 1407 723 1407 719.5 1349 c 128,-1,32
 716 1291 716 1291 711.5 1207 c 128,-1,33
 707 1123 707 1123 705 1031 c 128,-1,34
 703 939 703 939 707 857 c 0,35,36
 709 818 709 818 729 778 c 128,-1,37
 749 738 749 738 768 692 c 128,-1,38
 787 646 787 646 787 589 c 256,39,40
 787 532 787 532 768 486 c 128,-1,41
 749 440 749 440 729 400 c 128,-1,42
 709 360 709 360 707 321 c 0,43,44
 703 239 703 239 705 147 c 128,-1,45
 707 55 707 55 711.5 -29 c 128,-1,46
 716 -113 716 -113 719.5 -171 c 128,-1,47
 723 -229 723 -229 723 -244 c 0,48,49
 723 -299 723 -299 651 -313 c 0,50,51
 615 -320 615 -320 553 -323 c 128,-1,52
 491 -326 491 -326 426 -326 c 0,53,54
 323 -326 323 -326 243 -313.5 c 128,-1,55
 163 -301 163 -301 107 -274 c 0,56,57
 77 -260 77 -260 63.5 -237.5 c 128,-1,58
 50 -215 50 -215 50 -164 c 0,59,60
 50 -109 50 -109 75.5 -92 c 128,-1,61
 101 -75 101 -75 139 -75 c 0,62,63
 165 -75 165 -75 195 -75.5 c 128,-1,64
 225 -76 225 -76 253 -76 c 0,65,66
 274 -76 274 -76 294 -73.5 c 128,-1,67
 314 -71 314 -71 334 -61 c 0,68,69
 352 -52 352 -52 358.5 -31.5 c 128,-1,70
 365 -11 365 -11 365 32 c 0,71,72
 365 110 365 110 374 175 c 128,-1,73
 383 240 383 240 400 293 c 0,74,75
 423 366 423 366 452 417 c 128,-1,76
 481 468 481 468 502 508.5 c 128,-1,77
 523 549 523 549 523 589 c 0,0,1
EndSplineSet
EndChar

StartChar: asciitilde
Encoding: 126 126 97
Width: 1182
Flags: W
LayerCount: 2
Fore
SplineSet
404 499 m 0,0,1
 355 499 355 499 342 442 c 0,2,3
 337 420 337 420 328.5 387 c 128,-1,4
 320 354 320 354 293.5 329 c 128,-1,5
 267 304 267 304 208 304 c 0,6,7
 160 304 160 304 115 346.5 c 128,-1,8
 70 389 70 389 70 482 c 0,9,10
 70 557 70 557 109.5 630.5 c 128,-1,11
 149 704 149 704 221.5 753 c 128,-1,12
 294 802 294 802 394 802 c 0,13,14
 475 802 475 802 532.5 769.5 c 128,-1,15
 590 737 590 737 631.5 694.5 c 128,-1,16
 673 652 673 652 705 619.5 c 128,-1,17
 737 587 737 587 768 587 c 0,18,19
 817 587 817 587 830 644 c 0,20,21
 836 669 836 669 844 701.5 c 128,-1,22
 852 734 852 734 878 758 c 128,-1,23
 904 782 904 782 962 782 c 0,24,25
 1018 782 1018 782 1065 734 c 128,-1,26
 1112 686 1112 686 1112 594 c 0,27,28
 1112 523 1112 523 1071.5 451.5 c 128,-1,29
 1031 380 1031 380 956 332 c 128,-1,30
 881 284 881 284 778 284 c 0,31,32
 697 284 697 284 639.5 316.5 c 128,-1,33
 582 349 582 349 540.5 391.5 c 128,-1,34
 499 434 499 434 467 466.5 c 128,-1,35
 435 499 435 499 404 499 c 0,0,1
EndSplineSet
EndChar

StartChar: exclamdown
Encoding: 161 161 99
Width: 569
Flags: W
LayerCount: 2
Fore
SplineSet
527 603 m 256,0,1
 527 536 527 536 494 480.5 c 128,-1,2
 461 425 461 425 405.5 392 c 128,-1,3
 350 359 350 359 283 359 c 256,4,5
 216 359 216 359 160.5 392 c 128,-1,6
 105 425 105 425 72 480.5 c 128,-1,7
 39 536 39 536 39 603 c 256,8,9
 39 670 39 670 72 725.5 c 128,-1,10
 105 781 105 781 160.5 814 c 128,-1,11
 216 847 216 847 283 847 c 256,12,13
 350 847 350 847 405.5 814 c 128,-1,14
 461 781 461 781 494 725.5 c 128,-1,15
 527 670 527 670 527 603 c 256,0,1
535 -341 m 0,16,17
 535 -466 535 -466 472.5 -553.5 c 128,-1,18
 410 -641 410 -641 285 -641 c 256,19,20
 160 -641 160 -641 97.5 -553.5 c 128,-1,21
 35 -466 35 -466 35 -341 c 0,22,23
 35 -190 35 -190 65 -77 c 128,-1,24
 95 36 95 36 129 105.5 c 128,-1,25
 163 175 163 175 175 194 c 0,26,27
 197 227 197 227 227.5 256 c 128,-1,28
 258 285 258 285 285 285 c 256,29,30
 312 285 312 285 337.5 256 c 128,-1,31
 363 227 363 227 385 194 c 0,32,33
 397 175 397 175 433.5 103.5 c 128,-1,34
 470 32 470 32 502.5 -81.5 c 128,-1,35
 535 -195 535 -195 535 -341 c 0,16,17
EndSplineSet
EndChar

StartChar: cent
Encoding: 162 162 100
Width: 1087
Flags: W
LayerCount: 2
Fore
SplineSet
733 -4 m 2,0,1
 733 -35 733 -35 736.5 -60 c 128,-1,2
 740 -85 740 -85 740 -94 c 0,3,4
 740 -106 740 -106 733.5 -118 c 128,-1,5
 727 -130 727 -130 707 -130 c 0,6,7
 690 -130 690 -130 647.5 -132 c 128,-1,8
 605 -134 605 -134 565 -136 c 128,-1,9
 525 -138 525 -138 514 -138 c 0,10,11
 504 -138 504 -138 494 -130 c 128,-1,12
 484 -122 484 -122 484 -98 c 0,13,14
 484 -89 484 -89 485 -71 c 128,-1,15
 486 -53 486 -53 488 -21 c 1,16,17
 356 -5 356 -5 254 69.5 c 128,-1,18
 152 144 152 144 93.5 254 c 128,-1,19
 35 364 35 364 35 486 c 0,20,21
 35 650 35 650 98 764.5 c 128,-1,22
 161 879 161 879 265 947 c 128,-1,23
 369 1015 369 1015 490 1040 c 1,24,25
 490 1072 490 1072 487 1104 c 128,-1,26
 484 1136 484 1136 484 1145 c 0,27,28
 484 1157 484 1157 492 1169 c 128,-1,29
 500 1181 500 1181 517 1181 c 0,30,31
 537 1181 537 1181 571 1181.5 c 128,-1,32
 605 1182 605 1182 636.5 1182 c 128,-1,33
 668 1182 668 1182 678 1182 c 0,34,35
 689 1182 689 1182 698.5 1174 c 128,-1,36
 708 1166 708 1166 708 1142 c 0,37,38
 708 1127 708 1127 706.5 1105.5 c 128,-1,39
 705 1084 705 1084 704 1052 c 1,40,41
 817 1039 817 1039 896.5 991.5 c 128,-1,42
 976 944 976 944 1018 874.5 c 128,-1,43
 1060 805 1060 805 1060 730 c 0,44,45
 1060 687 1060 687 1038 642.5 c 128,-1,46
 1016 598 1016 598 974.5 567.5 c 128,-1,47
 933 537 933 537 874 537 c 0,48,49
 804 537 804 537 755 563 c 128,-1,50
 706 589 706 589 692 640 c 0,51,52
 679 688 679 688 662.5 727.5 c 128,-1,53
 646 767 646 767 592 767 c 0,54,55
 466 767 466 767 466 598 c 0,56,57
 466 529 466 529 503.5 470.5 c 128,-1,58
 541 412 541 412 603.5 376 c 128,-1,59
 666 340 666 340 740 340 c 0,60,61
 785 340 785 340 810.5 352.5 c 128,-1,62
 836 365 836 365 862.5 377 c 128,-1,63
 889 389 889 389 936 389 c 0,64,65
 973 389 973 389 1000.5 365 c 128,-1,66
 1028 341 1028 341 1028 288 c 256,67,68
 1028 235 1028 235 991 179 c 128,-1,69
 954 123 954 123 887.5 76 c 128,-1,70
 821 29 821 29 733 2 c 1,71,-1
 733 -4 l 2,0,1
EndSplineSet
EndChar

